<svg version="1.2" baseProfile="tiny-ps" xmlns="http://www.w3.org/2000/svg" viewBox="0 0 561 242" width="380" height="200">
	<title>free-svg</title>
	<style>
		tspan { white-space:pre }
		.s0 { fill: #e4e4e4 } 
		.s1 { fill: #6c63ff } 
	</style>
	<path id="Layer" class="s0" d="m421.52 52.96c2.05 0 4.01 0.81 5.46 2.26c1.45 1.45 2.26 3.41 2.26 5.46c0 2.05-0.81 4.01-2.26 5.46c-1.45 1.45-3.41 2.26-5.46 2.26h-280.78c-2.05 0-4.01-0.81-5.46-2.26c-1.45-1.45-2.26-3.41-2.26-5.46c0-2.05 0.81-4.01 2.26-5.46c1.45-1.45 3.41-2.26 5.46-2.26h280.78v0z" />
	<path id="Layer" class="s0" d="m426.98 114.74c1.45 1.45 2.26 3.41 2.26 5.46c0 2.05-0.81 4.01-2.26 5.46c-1.45 1.45-3.41 2.26-5.46 2.27h-280.78c-2.05 0-4.01-0.81-5.46-2.26c-1.45-1.45-2.26-3.41-2.26-5.46c0-2.05 0.81-4.01 2.26-5.46c1.45-1.45 3.41-2.26 5.46-2.26h280.78c2.05 0 4.01 0.82 5.46 2.27v-0.02v0z" />
	<path id="Layer" class="s0" d="m426.99 174.25c1.45 1.45 2.26 3.41 2.26 5.46c0 2.05-0.81 4.01-2.26 5.46c-1.45 1.45-3.41 2.26-5.46 2.26h-280.78c-2.05 0-4.01-0.81-5.46-2.26c-1.45-1.45-2.26-3.41-2.26-5.46c0-2.05 0.81-4.01 2.26-5.46c1.45-1.45 3.41-2.26 5.46-2.26h280.78c2.05 0 4.01 0.81 5.46 2.26z" />
	<path id="Layer" class="s1" d="m286.59 68.86h-145.57c-1.05 0.02-2.08-0.17-3.06-0.54c-0.98-0.37-1.88-0.92-2.65-1.62c-0.78-0.7-1.41-1.54-1.88-2.48c-0.46-0.94-0.75-1.95-0.84-2.99c-0.04-0.56-0.02-1.12 0.05-1.67c0.08-0.55 0.21-1.1 0.4-1.63c0.19-0.53 0.43-1.03 0.72-1.51c0.29-0.48 0.63-0.92 1.02-1.33c0.38-0.41 0.8-0.77 1.26-1.1c0.46-0.32 0.94-0.6 1.46-0.82c0.51-0.22 1.05-0.39 1.59-0.51c0.55-0.11 1.1-0.17 1.66-0.17h129.94c2.09 0 4.15 0.42 6.08 1.22c1.93 0.8 3.68 1.97 5.16 3.45c1.48 1.48 2.65 3.23 3.45 5.16c0.8 1.93 1.21 3.99 1.22 6.08v0.45l-0.01 0.01l0 0z" />
	<path id="Layer" class="s1" d="m362.01 128.38h-220.99c-1.05 0.02-2.08-0.17-3.06-0.54c-0.98-0.37-1.88-0.92-2.65-1.62c-0.78-0.7-1.41-1.54-1.88-2.48c-0.46-0.94-0.75-1.95-0.84-2.99c-0.04-0.56-0.02-1.12 0.05-1.67c0.08-0.55 0.21-1.1 0.4-1.63c0.19-0.53 0.43-1.03 0.72-1.51c0.29-0.48 0.63-0.92 1.02-1.33c0.38-0.41 0.8-0.77 1.26-1.1c0.46-0.32 0.94-0.6 1.46-0.82c0.51-0.22 1.05-0.39 1.59-0.51c0.55-0.11 1.1-0.17 1.66-0.17h205.36c2.09 0 4.15 0.42 6.08 1.22c1.93 0.8 3.68 1.97 5.16 3.45c1.48 1.48 2.65 3.23 3.45 5.16c0.8 1.93 1.21 3.99 1.22 6.08v0.45l-0.01 0.01l0 0z" />
	<path id="Layer" class="s1" d="m331.11 187.89h-190.09c-1.05 0.02-2.08-0.17-3.06-0.54c-0.98-0.37-1.88-0.92-2.65-1.62c-0.78-0.7-1.41-1.54-1.88-2.48c-0.46-0.94-0.75-1.95-0.84-2.99c-0.04-0.56-0.02-1.12 0.05-1.67c0.08-0.55 0.21-1.1 0.4-1.63c0.19-0.53 0.43-1.03 0.72-1.51c0.29-0.48 0.63-0.92 1.02-1.33c0.38-0.41 0.8-0.77 1.26-1.1c0.46-0.32 0.94-0.6 1.46-0.82c0.51-0.22 1.05-0.39 1.59-0.51c0.55-0.11 1.1-0.17 1.66-0.17h174.46c2.09 0 4.15 0.42 6.08 1.22c1.93 0.8 3.68 1.97 5.16 3.45c1.48 1.48 2.65 3.23 3.45 5.16c0.8 1.93 1.21 3.99 1.22 6.08v0.45l-0.01 0.01l0 0z" />
</svg>