<svg version="1.2" xmlns="http://www.w3.org/2000/svg" viewBox="0 0 555 513" width="350" height="324">
	<title>undraw_notify_re_65on-svg</title>
	<style>
		.s0 { fill: #e6e6e6 } 
		.s1 { fill: #3f3d56 } 
		.s2 { fill: #a0616a } 
		.s3 { fill: #2f2e41 } 
		.s4 { fill: #cccccc } 
		.s5 { fill: #6c63ff } 
	</style>
	<path id="Layer" class="s0" d="m424.7 479.4c0.1 43.7-86.6 30.2-192.8 30.3-106.1 0.1-191.5 13.7-191.6-30 0-43.7 86.7-53.3 192.8-53.4 106.2-0.1 191.6 9.3 191.6 53.1z"/>
	<path id="Layer" class="s1" d="m-155 509.7h790v2h-790z"/>
	<path id="Layer" class="s2" d="m350.3 420.3h-13.8l-6.6-53.5h20.4v53.5z"/>
	<path id="Layer" class="s3" d="m325 416.4h28.3v16.8h-43.6v-1.5c0-2 0.4-4 1.2-5.9 0.7-1.8 1.9-3.5 3.3-5 1.4-1.4 3.1-2.5 4.9-3.3 1.9-0.7 3.9-1.1 5.9-1.1z"/>
	<path id="Layer" class="s2" d="m452.3 499.3h-13.8l-6.6-53.5h20.4v53.5z"/>
	<path id="Layer" class="s3" d="m427 495.4h28.3v16.8h-43.6v-1.5c0-2 0.4-4 1.2-5.9 0.7-1.8 1.9-3.5 3.3-5 1.4-1.4 3.1-2.5 4.9-3.3 1.9-0.7 3.9-1.1 5.9-1.1z"/>
	<path id="Layer" class="s2" d="m510 344c-2.5 0.4-5.1-0.1-7.3-1.5-2.1-1.3-3.7-3.4-4.4-5.9-0.7-2.4-0.5-5 0.6-7.3l-38.3-127 20.6-8.8 32.2 131.3c1.4 0.7 2.5 1.7 3.4 2.9 0.9 1.3 1.5 2.7 1.7 4.2 0.3 1.4 0.3 3-0.1 4.4-0.4 1.5-1.1 2.8-2.1 4-1.6 2-3.8 3.3-6.3 3.7z"/>
	<path id="Layer" class="s2" d="m494.4 82.4c0.1 2.8-0.8 5.6-2.5 7.7-1.8 2.2-4.3 3.7-7.1 4.1-2.7 0.5-5.6-0.1-7.9-1.6l-45.4 8.5-7.6-19.3 49.9-5.7c1-1.3 2.2-2.4 3.7-3.2 1.5-0.8 3.1-1.3 4.7-1.4 1.7-0.1 3.4 0.1 4.9 0.7 1.6 0.6 3 1.6 4.1 2.8 2 2 3.1 4.6 3.2 7.4z"/>
	<path id="Layer" class="s3" d="m450 311.7c0 0 31 25.1 17.4 39.5-13.5 14.3-9.5 133.3-9.5 133.3l-27.1 5.6-21.8-163.4z"/>
	<path id="Layer" class="s3" d="m425.2 265.1l47.8 14.6c0 0 3.4 50.6 1 57-2.4 6.4-5.8 17.7-20.1 20.8-14.4 3.2-89.9-33.8-89.9-33.8 0.8 4.8-11 87-11 87-9.6 1.6-29.6-4.6-28-7 1.6-2.4 6-37 6-88 0-51 77-19 77-19l10-15z"/>
	<path id="Layer" class="s4" d="m419.3 191.6l-2.8-3.4c0 0-31.9-71.8-19.4-91.2 12.6-19.4 67.3-22.2 69-21.1 1.7 1.1-4.1 16-0.1 22.8 0 0-42.4 9.2-45.2 10.3-2.9 1.2 21.9 43.3 21.9 43.3l-2.8 25.7z"/>
	<path id="Layer" class="s4" d="m492.3 174c9.7 5.1 12.6 19.9 12.6 19.9 0 0-28 70.7-29.7 71.8-1.7 1.2-0.6 24-1.1 28.5-0.6 4.6-63.7-5.2-67.1-3.5-3.4 1.7 9.5-102.5 9.5-102.5l26.2-35.9c0 0 0.6 7.4 1.7 7.4 1.2 0 30.8-3.4 30.8-3.4 0 0 7.4 12.5 17.1 17.7z"/>
	<path id="Layer" class="s4" d="m495.7 184.2l9.2 9.7c0 0 13.5 111.4 6.1 114.8-7.4 3.4-22 3-22 3l-14.4-52.8z"/>
	<circle id="Layer" class="s2" cx="446.7" cy="123" r="26.2"/>
	<path id="Layer" class="s3" d="m440.6 127.1c-0.4-5.5-7.3-5.6-12.7-5.7-5.5 0-12 0.2-15.1-4.3-2-3-1.6-7.1 0.1-10.3 1.6-3.2 4.4-5.7 7.1-8 7.1-6.1 14.3-12.2 22.8-16.1 8.5-3.9 18.4-5.4 27.1-2.3 10.8 3.8 25.4 23.6 26.6 35 1.3 11.4-3.3 22.9-10.9 31.4-7.7 8.5-25.2 5.1-36.2 8.1 6.7-9.5 2.2-26.7-8.5-31.1z"/>
	<circle id="Layer" class="s5" cx="206.7" cy="403.5" r="63"/>
	<path id="Layer" class="s5" d="m164.7 336c-4.4 0-8.7-0.6-12.9-1.8-4.1-1.3-8.1-3.1-11.7-5.4-3.7-2.4-7-5.3-9.8-8.6-2.8-3.3-5.1-7-6.9-10.9l-100-225.1c-6.6-15.1-6.8-32.3-0.4-47.5 6.3-15.2 18.7-27.1 34.2-32.9 15.4-5.7 32.5-4.9 47.3 2.4 14.8 7.3 26 20.3 30.8 36.1l72.4 235.4c2.1 6.7 2.5 13.9 1.3 20.8-1.1 7-3.9 13.6-8.1 19.2-4.2 5.7-9.7 10.3-16 13.5-6.2 3.2-13.2 4.8-20.2 4.8z"/>
</svg>