<svg version="1.2" baseProfile="tiny-ps" xmlns="http://www.w3.org/2000/svg" viewBox="0 0 491 453" width="150" height="150">
	<title>recommended-svg</title>
	<style>
		tspan { white-space:pre }
		.s0 { fill: #3f3d56 } 
		.s1 { fill: #e4e4e4 } 
		.s2 { fill: #f0f0f0 } 
		.s3 { fill: #cacaca } 
		.s4 { fill: #6c63ff } 
	</style>
	<path id="Layer" class="s0" d="m288.25 202.01v-202.01c13.03 0.51 25.99 2.29 38.68 5.31c12.69 3.02 25.06 7.26 36.93 12.67c11.87 5.41 23.19 11.95 33.79 19.55c10.61 7.59 20.45 16.2 29.39 25.69l-138.79 138.79z" />
	<path id="Layer" class="s1" d="m427.05 88.37c8.77 9.27 16.65 19.34 23.51 30.1c6.87 10.76 12.7 22.14 17.41 34c4.71 11.86 8.29 24.14 10.68 36.67c2.39 12.53 3.59 25.27 3.57 38.03h-193.97l138.79-138.79v0l0.01-0.01z" />
	<path id="Layer" class="s2" d="m482.43 241.68c0 3.15-0.07 6.29-0.21 9.43c-0.14 3.14-0.36 6.28-0.65 9.41c-0.29 3.13-0.65 6.26-1.09 9.37c-0.44 3.12-0.94 6.22-1.52 9.31c-0.18 0.98-0.37 1.95-0.57 2.92c-1.09 5.39-2.41 10.72-3.94 16c-1.53 5.28-3.28 10.49-5.24 15.62c-1.96 5.13-4.13 10.18-6.5 15.14c-2.37 4.96-4.95 9.81-7.72 14.56c-0.59 1.02-1.2 2.04-1.81 3.04v0.01c-2.73 4.5-5.64 8.89-8.72 13.16c-3.07 4.27-6.31 8.42-9.71 12.44c-3.4 4.02-6.95 7.9-10.65 11.65c-3.7 3.74-7.54 7.34-11.52 10.78c-0.79 0.69-1.58 1.37-2.38 2.04c-8.49 7.15-17.57 13.58-27.12 19.23c-9.56 5.65-19.56 10.5-29.92 14.5c-10.36 4-21.02 7.14-31.9 9.38c-10.87 2.24-21.91 3.58-33.01 4v-202.01h194.18l0 0.02z" />
	<path id="Layer" class="s3" d="m268.63 443.87c-12.77 0.02-25.52-1.18-38.06-3.58c-12.55-2.4-24.84-5.98-36.7-10.7c-11.87-4.72-23.26-10.56-34.02-17.44c-10.76-6.88-20.85-14.77-30.11-23.55l146.92-146.92v202.02c-2.66 0.1-5.33 0.17-8.01 0.17v0l-0.02 0z" />
	<path id="Layer" class="s4" d="m277.13 25.15v202.01h-210.41c0-111.67 90.52-202.19 202.19-202.19c2.76 0 5.49 0.07 8.22 0.18z" />
	<path id="Layer" class="s4" d="m220.67 241.68l-42.51 42.51l-1.39 1.39l-0.03 0.03l-37.07 37.06l-1.41 1.41l-40.05 40.05l-1.41 1.41v0.01l-23.05 23.04c-9.98-9.41-18.98-19.82-26.84-31.06c-7.87-11.24-14.57-23.25-20-35.85c-5.43-12.6-9.56-25.72-12.32-39.16c-2.76-13.44-4.15-27.12-4.13-40.84h210.21l0 0z" />
	<path id="Layer" class="s0" d="m96.8 365.55c-8.2-8.12-15.62-17-22.15-26.52c-6.53-9.52-12.15-19.63-16.78-30.2c-4.63-10.57-8.25-21.56-10.81-32.81c-2.56-11.25-4.06-22.73-4.46-34.26l4-0.14c0.4 11.28 1.86 22.51 4.36 33.52c2.51 11.01 6.05 21.76 10.58 32.1c4.53 10.34 10.02 20.24 16.41 29.55c6.39 9.31 13.64 18 21.67 25.94l-2.82 2.84l0-0.02z" />
	<path id="Layer" class="s0" d="m139.71 322.71l-2.9 2.74c-5.5-5.8-10.61-11.96-15.3-18.43c-4.69-6.47-8.96-13.24-12.78-20.26c-3.81-7.02-7.17-14.29-10.04-21.75c-2.87-7.46-5.25-15.1-7.12-22.87l1.94-0.47h2.06c1.84 7.55 4.18 14.98 6.98 22.23c2.8 7.25 6.08 14.31 9.79 21.14c3.72 6.83 7.87 13.41 12.44 19.7c4.57 6.29 9.54 12.28 14.88 17.93l0.04 0.04h0.01z" />
	<path id="Layer" class="s0" d="m178.27 284.33l-1.5 1.25l-0.03 0.03l-1.54 1.28c-2.8-3.35-5.48-6.8-8.04-10.34c-2.56-3.54-4.98-7.17-7.28-10.89c-2.3-3.71-4.46-7.51-6.49-11.38c-2.03-3.87-3.91-7.81-5.66-11.81l1.83-0.8h2.19c1.69 3.83 3.51 7.59 5.47 11.29c1.95 3.7 4.04 7.33 6.24 10.88c2.21 3.55 4.54 7.03 6.99 10.42c2.45 3.39 5.02 6.7 7.7 9.91c0.01 0.01 0.02 0.02 0.03 0.04c0.01 0.01 0.02 0.02 0.03 0.04c0.01 0.01 0.02 0.02 0.03 0.03c0.01 0.01 0.02 0.02 0.03 0.03l0 0.02z" />
</svg>