<svg version="1.2" xmlns="http://www.w3.org/2000/svg" viewBox="0 0 543 459" width="350" height="296">
	<title>thankyou-svg</title>
	<style>
		.s0 { fill: #2f2e41 } 
		.s1 { fill: #ffffff } 
		.s2 { fill: #3f3d56 } 
		.s3 { fill: #e6e6e6 } 
		.s4 { fill: #6c63ff } 
		.s5 { opacity: .1;fill: #000000 } 
		.s6 { fill: #cccccc } 
	</style>
	<path id="Layer" class="s0" d="m123.5 366.2c-4.3 11.1-10.5 19-14 17.7-3.5-1.3-2.9-11.4 1.4-22.5 4.2-11.2 10.5-19.1 14-17.7 3.4 1.3 2.8 11.4-1.4 22.5z"/>
	<path id="Layer" class="s0" d="m119.9 403.2c-3.8 23.5-25.9 39.4-49.4 35.6-23.5-3.8-39.5-25.9-35.6-49.4 3.8-23.5 25.9-39.4 49.4-35.6 23.5 3.8 39.4 25.9 35.6 49.4z"/>
	<path id="Layer" class="s0" d="m57.8 430.1h13v23.4h-13z"/>
	<path id="Layer" class="s0" d="m83.9 430.1h13.1v23.4h-13.1z"/>
	<ellipse id="Layer" class="s0" cx="68.7" cy="453.8" rx="10.9" ry="4.1"/>
	<ellipse id="Layer" class="s0" cx="94.8" cy="453.3" rx="10.9" ry="4.1"/>
	<circle id="Layer" class="s1" cx="78.5" cy="385.4" r="14.7"/>
	<circle id="Layer" class="s2" cx="78.5" cy="385.4" r="4.9"/>
	<path id="Layer" class="s3" d="m35.6 356.3c-3.5-15.6 7.6-31.4 24.8-35.2 17.2-3.8 34 5.7 37.4 21.3 3.5 15.5-7.9 21.3-25.1 25.1-17.1 3.9-33.6 4.3-37.1-11.3z"/>
	<path id="Layer" class="s0" d="m48.3 385.5c-1.6 3.4-11.6 2-22.3-3.1-10.8-5.1-18.2-11.9-16.6-15.3 1.6-3.4 11.6-2 22.4 3.1 10.7 5.1 18.1 12 16.5 15.3z"/>
	<path id="Layer" class="s1" d="m79.1 409.1c12.1 0 23.4-5 23.4-0.8 0 4.2-11.3 16.1-23.4 16.1-12 0-22.9-8.4-22.9-12.6 0-4.2 10.9-2.7 22.9-2.7z"/>
	<path id="Layer" class="s4" d="m380.3 279.3l-46.8 46.1-105.7 104.3-2.2 2.2-11.9 11.7-25-24.7-2.2-2.1-45.7-45.2-14.6-14.4-8.7-8.6-25.7-25.4-3.5-3.5-41.1-40.5q-3-3.1-5.9-6.4-2.8-3.2-5.4-6.7-2.5-3.5-4.8-7.1-2.4-3.7-4.4-7.5-0.7-1.3-1.4-2.7c-9.8-19.4-13.9-41.2-12.1-62.8 1.9-21.6 9.7-42.3 22.6-59.8 13-17.4 30.5-31 50.6-39.1 20.2-8.1 42.2-10.5 63.6-6.8q0.5 0.1 1.1 0.2 1.5 0.2 3 0.5 1.5 0.4 3 0.7 1.5 0.3 3 0.7 1.5 0.4 2.9 0.8 3.9 1.2 7.6 2.5 3.8 1.4 7.4 3 3.7 1.6 7.2 3.5 3.5 1.9 6.9 4 1.5 0.9 2.9 1.8 2.4 1.6 4.9 3.4 2.4 1.8 4.7 3.6 2.3 1.9 4.5 3.9 2.2 2 4.3 4.2l0.4-0.4 0.3 0.4q1.3-1.3 2.6-2.6 1.4-1.2 2.7-2.4 1.4-1.2 2.8-2.4 1.4-1.1 2.8-2.2 1.2-1 2.5-1.9c6.4-4.8 13.3-8.8 20.5-12.2 7.3-3.3 14.8-5.9 22.6-7.7 7.7-1.8 15.7-2.8 23.6-3 8-0.2 16 0.4 23.8 1.8q1.5 0.3 3 0.6 1.5 0.3 3 0.6 1.5 0.4 3 0.8 1.5 0.4 2.9 0.8 2 0.5 3.9 1.2 1.6 0.5 3.1 1.1 3.2 1.1 6.4 2.4 3.1 1.4 6.2 2.9 3 1.5 6 3.2 3 1.7 5.8 3.6 2.5 1.6 5 3.4c13.7 10 25.1 22.8 33.4 37.6 8.3 14.9 13.3 31.3 14.6 48.2 1.4 17-1 34-6.9 49.9-5.9 16-15.1 30.5-27.1 42.5z"/>
	<path id="Layer" class="s5" d="m333.5 325.4l-105.7 104.4-2.2 2.1-11.9 11.7-25-24.7-2.2-2.1-45.7-45.2c7.4-1.7 18.6 0.7 22.8 2.7 9.8 4.8 17.8 12.8 27.8 17.3q3.3 1.5 6.8 2.4 3.5 1 7.1 1.4 3.6 0.4 7.2 0.2 3.6-0.1 7.2-0.9c17.8-3.7 31.6-17.5 43.8-31.1 12.1-13.5 24.5-28.1 41.6-34.4 9-3.3 18.7-4 28.4-3.8z"/>
	<path id="Layer" fill-rule="evenodd" class="s2" d="m436.1 153.6c6 14.4 9 29.9 9 45.5 0 15.7-3 31.1-9 45.6-6 14.4-14.7 27.5-25.8 38.6l-167.5 165.4-17.1-16.8-22.2-21.9-2.1-2.1-84.2-83.2-3.1-3-38.9-38.4q-4.1-4.1-7.8-8.5-3.6-4.5-6.8-9.2-3.2-4.8-6-9.9-2.7-5.1-4.9-10.4-0.6-1.4-1.2-2.8c-4.1-10.7-6.8-22-7.7-33.4-1-11.5-0.3-23 2.1-34.3 2.3-11.3 6.3-22.1 11.8-32.3 5.4-10.1 12.4-19.4 20.5-27.5q2.6-2.6 5.3-5c4.8-4.3 9.9-8.1 15.4-11.5 5.4-3.4 11-6.4 16.9-8.9 5.9-2.5 12-4.5 18.2-6 6.2-1.5 12.6-2.5 18.9-3q0.6-0.1 1.2-0.1 5.3-0.4 10.5-0.3 5.3 0.1 10.5 0.7 5.2 0.5 10.4 1.5 5.2 1.1 10.2 2.5 1.5 0.5 3 0.9 6.6 2.1 12.8 5 6.3 2.8 12.2 6.4 5.9 3.5 11.3 7.7 5.5 4.2 10.4 9l0.4-0.3 0.3 0.3c5-4.8 10.4-9.3 16.2-13.2 5.8-3.9 11.9-7.3 18.3-10.2 6.3-2.8 12.9-5.1 19.7-6.8 6.8-1.7 13.7-2.8 20.7-3.2q1.9-0.2 3.8-0.2 1.9-0.1 3.9-0.1 1.9 0 3.8 0 2 0.1 3.9 0.2 1.5 0.1 3.1 0.2 2.2 0.2 4.3 0.5 2.2 0.3 4.4 0.6 2.2 0.4 4.3 0.8 2.2 0.4 4.3 0.9 2 0.5 4 1 7.4 2.1 14.5 5 7.1 3 13.8 6.9 6.6 3.9 12.7 8.5 6.1 4.7 11.5 10.2c11.1 11 19.8 24.2 25.8 38.6zm-27.9 127.5c14.2-14.1 24.5-31.7 29.8-51.1 5.4-19.3 5.6-39.6 0.7-59.1-4.8-19.4-14.7-37.3-28.5-51.8-13.8-14.5-31.2-25.2-50.4-31q-2-0.6-4-1.1-2.3-0.6-4.7-1.1-2.4-0.6-4.8-1-2.3-0.4-4.7-0.7-2.4-0.3-4.9-0.5-1.5-0.2-3-0.3-1.9-0.1-3.8-0.2c-7.9-0.2-15.8 0.3-23.6 1.7-7.8 1.3-15.4 3.5-22.8 6.4-7.3 2.9-14.4 6.5-21 10.9-6.6 4.3-12.7 9.3-18.3 14.9l-1.1 1.1-0.3-0.4-0.4 0.4-1.1-1.1q-1.8-1.9-3.8-3.7-2-1.8-4-3.5-2.1-1.7-4.2-3.3-2.2-1.6-4.4-3.1-3.3-2.4-6.9-4.4-3.5-2.1-7.2-3.9-3.7-1.9-7.5-3.4-3.8-1.5-7.7-2.8-1.5-0.5-2.9-1-3.7-1-7.3-1.9-3.7-0.8-7.4-1.4-3.7-0.6-7.5-1-3.7-0.3-7.5-0.5-1.8 0-3.7 0-4.9 0-9.8 0.4-9.2 0.8-18.1 3c-5.9 1.4-11.8 3.4-17.4 5.8q-8.5 3.5-16.3 8.4-7.7 4.9-14.7 11-2.9 2.5-5.7 5.3c-7.9 8-14.7 17-20 26.9-5.4 9.9-9.2 20.5-11.5 31.5-2.3 11-3 22.3-2 33.5 0.9 11.2 3.5 22.2 7.6 32.6q0.6 1.4 1.2 2.8 2.1 5.2 4.8 10.1 2.6 4.9 5.8 9.5 3.1 4.6 6.6 8.9 3.6 4.3 7.5 8.3l41.1 40.5 3 3 82.6 81.5 2.2 2.2 21.6 21.3 15 14.8 165.5-163.4z"/>
	<path id="Layer" class="s5" d="m175.9 87.8c-6.4 5-13.3 9.7-17.5 16.6-3.1 5.2-4.4 11.1-5.4 17-1.9 11.4-2.7 23.2-6.5 34.1-3.7 11-11.1 21.5-21.9 25.6-6.7 2.5-14.2 2.4-21.3 1.9-17.7-1.2-35.5-4.4-51.4-12.2-8.9-4.4-17.6-10.2-27.5-10.9q-0.7 0-1.5 0-0.7 0-1.5 0-0.7 0.1-1.5 0.1-0.8 0.1-1.5 0.3c4.3-13.4 10.9-25.9 19.6-36.9 8.7-11 19.3-20.4 31.3-27.7 12-7.3 25.2-12.4 38.9-15 13.8-2.6 28-2.8 41.8-0.4q0.6 0.1 1.1 0.2 1.5 0.2 3 0.5 1.5 0.3 3 0.7 1.5 0.3 3 0.7 1.5 0.4 2.9 0.8 1.7 0.5 3.3 1 1.6 0.5 3.2 1.1 1.6 0.6 3.2 1.2 1.6 0.6 3.2 1.3z"/>
	<circle id="Layer" class="s0" cx="107.1" cy="76.1" r="43.1"/>
	<path id="Layer" class="s0" d="m87.5 109.8h13v23.5h-13z"/>
	<path id="Layer" class="s0" d="m113.6 109.8h13.1v23.5h-13.1z"/>
	<ellipse id="Layer" class="s0" cx="98.4" cy="133.6" rx="10.9" ry="4.1"/>
	<ellipse id="Layer" class="s0" cx="124.5" cy="133" rx="10.9" ry="4.1"/>
	<circle id="Layer" class="s1" cx="108.2" cy="65.2" r="14.7"/>
	<path id="Layer" class="s2" d="m116.7 71.6c-2 1.9-5.1 1.9-7 0-1.9-1.9-1.9-5 0-6.9 1.9-1.9 5-1.9 6.9 0 2 1.9 2 5 0.1 6.9z"/>
	<path id="Layer" class="s3" d="m65.3 36c-3.5-15.6 7.7-31.3 24.8-35.1 17.2-3.9 34 5.6 37.5 21.2 3.4 15.6-7.9 21.3-25.1 25.2-17.2 3.8-33.7 4.3-37.2-11.3z"/>
	<path id="Layer" class="s0" d="m453.4 369.5c-2.9 2.4-11.3-3.1-18.9-12.3-7.6-9.2-11.4-18.6-8.5-20.9 2.9-2.4 11.3 3.1 18.9 12.3 7.6 9.2 11.4 18.5 8.5 20.9z"/>
	<path id="Layer" class="s0" d="m484.1 438.4c-23.5 3.8-45.6-12.1-49.4-35.6-3.8-23.5 12.1-45.6 35.6-49.4 23.5-3.9 45.6 12.1 49.4 35.6 3.8 23.5-12.1 45.6-35.6 49.4z"/>
	<path id="Layer" class="s0" d="m483.7 429.7h13.1v23.4h-13.1z"/>
	<path id="Layer" class="s0" d="m457.6 429.7h13.1v23.4h-13.1z"/>
	<ellipse id="Layer" class="s0" cx="485.9" cy="453.4" rx="10.9" ry="4.1"/>
	<ellipse id="Layer" class="s0" cx="459.8" cy="452.8" rx="10.9" ry="4.1"/>
	<path id="Layer" class="s4" d="m492.3 372.9c-13.6-11.2-21.1-21.5-11-33.8 10.2-12.3 29.4-13.2 43-2 13.6 11.2 16.3 30.3 6.2 42.6-10.2 12.3-24.6 4.4-38.2-6.8z"/>
	<circle id="Layer" class="s1" cx="462.3" cy="373.5" r="14.7"/>
	<circle id="Layer" class="s2" cx="457.1" cy="369.9" r="4.9"/>
	<path id="Layer" class="s1" d="m450 391.7c4.1 4.2 11.6 4.5 8.7 7.5-3 3-15.3 7.5-19.5 3.3-4.2-4.2-2.1-13.9 0.9-16.9 2.9-2.9 5.7 1.9 9.9 6.1z"/>
	<path id="Layer" class="s0" d="m518.1 453.4c-3.5 1.4-9.8-6.5-14-17.6-4.3-11.2-4.9-21.2-1.4-22.6 3.5-1.3 9.8 6.6 14 17.7 4.3 11.1 4.9 21.2 1.4 22.6z"/>
	<path id="Layer" class="s6" d="m730 458.1h-922q-0.4 0-0.7-0.3-0.3-0.3-0.3-0.7 0-0.4 0.3-0.7 0.3-0.3 0.7-0.3h922q0.4 0 0.7 0.3 0.3 0.3 0.3 0.7 0 0.4-0.3 0.7-0.3 0.3-0.7 0.3z"/>
</svg>