<svg version="1.2" baseProfile="tiny-ps" xmlns="http://www.w3.org/2000/svg" viewBox="0 0 572 191" width="380" height="200">
	<title>team-svg</title>
	<style>
		tspan { white-space:pre }
		.s0 { fill: #2f2e41 } 
		.s1 { fill: #ffb8b8 } 
		.s2 { fill: #6c63ff } 
		.s3 { fill: #a0616a } 
	</style>
	<path id="Layer" class="s0" d="m247.98 109.27c-7.48-4.87-11.2-16.18-9.37-26.53c1.83-10.35 8.73-19.26 17.01-23.1c2-0.9 4.11-1.56 6.28-1.94c2.16-0.39 4.37-0.5 6.56-0.35c2.19 0.16 4.36 0.58 6.45 1.27c2.09 0.69 4.08 1.63 5.94 2.81c7.59 4.64 18.32 7.18 21.92 16.46c2.77 7.13-0.74 21.62-4.47 28.55c-3.22 5.99-9.34 8.73-15.09 9.92c-3.17 0.65-6.4 0.95-9.64 0.91c-3.24-0.04-6.46-0.43-9.61-1.16c-3.15-0.73-6.22-1.79-9.15-3.17c-2.93-1.38-5.7-3.07-8.27-5.04l1.44 1.38l0-0.01z" />
	<path id="Layer" class="s1" d="m244.08 164.23l-5.98 10.31l-0.79 1.36l-1.15 2h-17.63l1.19-2l3.08-5.19l7.18-12.12l8.13 3.25l5.97 2.39v0h0z" />
	<path id="Layer" class="s0" d="m217.21 177.9l-3.22-2l-0.4-0.25l20.21-36.83c0.43-0.8 0.94-1.55 1.53-2.24c0.58-0.69 1.23-1.33 1.94-1.9c0.71-0.57 1.47-1.06 2.27-1.48c0.8-0.42 1.65-0.75 2.52-1c0.55-0.16 1.11-0.29 1.67-0.38c0.56-0.09 1.13-0.15 1.7-0.17c0.57-0.02 1.14-0.01 1.71 0.05c0.57 0.05 1.13 0.14 1.69 0.26c0.33 0.07 0.65 0.15 0.97 0.24c0.32 0.09 0.64 0.2 0.95 0.32c0.31 0.12 0.62 0.25 0.92 0.39c0.3 0.14 0.6 0.29 0.89 0.45c0.12 0.07 0.24 0.13 0.36 0.2c0.12 0.07 0.24 0.14 0.35 0.21c0.12 0.07 0.23 0.15 0.34 0.23c0.11 0.08 0.23 0.16 0.34 0.24c0.43 0.3 0.83 0.62 1.22 0.97c0.39 0.35 0.76 0.71 1.1 1.1c0.34 0.39 0.67 0.8 0.96 1.22c0.3 0.43 0.57 0.87 0.82 1.33c0.58 1.07 1.02 2.22 1.31 3.4c0.28 1.19 0.41 2.41 0.37 3.63c-0.04 1.22-0.24 2.43-0.59 3.6c-0.35 1.17-0.86 2.28-1.51 3.32l-7.79 12.45l-6.66 10.65l-1.25 2h-24.73v0l0.01-0.01z" />
	<path id="Layer" class="s1" d="m269.13 122.35c-13.58 0-24.56-10.98-24.56-24.56c0-13.58 10.98-24.56 24.56-24.56c13.58 0 24.56 10.98 24.56 24.56c0 13.58-10.98 24.56-24.56 24.56z" />
	<path id="Layer" class="s2" d="m293.79 177.9h-55.21l0.25-0.71c-0.14-0.43-0.27-0.86-0.39-1.29c-0.13-0.45-0.24-0.91-0.34-1.36c-0.22-1.04-0.39-2.1-0.5-3.16c-0.11-1.06-0.17-2.13-0.17-3.19c0-1.07 0.06-2.13 0.17-3.19c0.11-1.06 0.28-2.11 0.51-3.16c3.05-14.98 15.22-27.15 15.22-27.15c0.21-0.16 0.42-0.31 0.63-0.46c0.45-0.33 0.91-0.65 1.39-0.95c0.47-0.3 0.95-0.59 1.44-0.87c0.49-0.27 0.99-0.53 1.49-0.78c0.5-0.24 1.02-0.47 1.53-0.69c9.04-3.75 18.52-2.24 24.89-0.3c0.55 0.17 1.11 0.35 1.65 0.53c0.55 0.19 1.09 0.38 1.63 0.59c0.54 0.21 1.08 0.42 1.61 0.65c0.53 0.22 1.06 0.46 1.59 0.7c0.74 0.35 1.14 0.57 1.14 0.57l0.63 19.21l0.76 23l0.07 2l0.01 0.01z" />
	<path id="Layer" class="s0" d="m319.73 177.9h-31.49c0.05-0.67 0.09-1.34 0.14-2c1.1-17.37 1.02-33.36-3.31-43.46c-0.06-0.14-0.11-0.28-0.16-0.43c-0.05-0.15-0.08-0.29-0.12-0.45c-0.03-0.15-0.05-0.3-0.07-0.45c-0.02-0.15-0.02-0.31-0.02-0.46c0-0.25 0.02-0.49 0.07-0.74c0.04-0.24 0.11-0.48 0.19-0.72c0.08-0.23 0.18-0.46 0.3-0.67c0.12-0.22 0.26-0.42 0.41-0.61c0.25-0.32 0.54-0.6 0.86-0.84c0.33-0.24 0.68-0.44 1.06-0.58c0.38-0.14 0.77-0.24 1.18-0.28c0.4-0.04 0.81-0.02 1.21 0.05l8.3 1.43l8.92 1.54c0.45 0.08 0.88 0.22 1.28 0.43c0.4 0.21 0.77 0.47 1.1 0.79c0.32 0.32 0.6 0.68 0.81 1.08c0.22 0.4 0.37 0.83 0.46 1.27l4.26 21.64l4.22 21.46l0.4 2v0z" />
	<path id="Layer" class="s0" d="m259.9 131.54c0.02 0.2 0.03 0.4 0.02 0.6c-0.01 0.2-0.03 0.4-0.06 0.59c-0.03 0.2-0.08 0.39-0.14 0.58c-0.5 1.69-1.06 3.54-1.67 5.54c-2.2 7.22-5.05 16.35-8.21 26.4c-1.08 3.46-2.2 7.02-3.35 10.65c-0.21 0.66-0.42 1.33-0.63 2h-25.84c0.26-0.67 0.52-1.34 0.76-2c0.69-1.78 1.36-3.51 2.01-5.19c4.01-10.31 7.46-18.66 9.23-22.89c0.06-0.15 0.13-0.3 0.21-0.44c0.08-0.14 0.17-0.28 0.26-0.42c0.09-0.13 0.2-0.26 0.3-0.38c0.11-0.12 0.22-0.24 0.35-0.35l15.68-14.28l3.83-3.48c0.59-0.46 1.29-0.76 2.04-0.88c0.74-0.12 1.5-0.05 2.21 0.19c0.71 0.25 1.35 0.66 1.85 1.22c0.51 0.55 0.87 1.22 1.05 1.95c0.05 0.19 0.08 0.39 0.1 0.59v0z" />
	<path id="Layer" class="s1" d="m325.13 177.9h-5.4h-9.43l-0.82-2l-5.93-14.47l11.56-6.99l1.44-0.87l9.41 22.33l0.61 1.44l0.23 0.56h-1.67v0l0 0z" />
	<path id="Layer" class="s0" d="m330.83 175.7l-0.52 0.2l-3.74 1.44l-1.44 0.56h-20.93l-0.9-2l-10.34-23l-2.89-6.44c-0.37-0.83-0.66-1.68-0.87-2.57c-0.2-0.88-0.32-1.78-0.35-2.69c-0.03-0.9 0.04-1.81 0.19-2.7c0.15-0.89 0.39-1.77 0.71-2.61c0.09-0.24 0.19-0.48 0.3-0.72c0.11-0.24 0.22-0.47 0.34-0.7c0.12-0.23 0.25-0.46 0.38-0.68c0.13-0.22 0.27-0.44 0.42-0.66c0.36-0.54 0.75-1.05 1.18-1.53c0.43-0.48 0.89-0.93 1.38-1.35c0.49-0.42 1.01-0.8 1.56-1.14c0.55-0.34 1.11-0.65 1.7-0.91c0.1-0.05 0.21-0.09 0.31-0.14c0.1-0.04 0.21-0.09 0.32-0.13c0.11-0.04 0.21-0.08 0.32-0.12c0.11-0.04 0.21-0.08 0.32-0.11c1.68-0.56 3.44-0.8 5.21-0.7c1.76 0.1 3.49 0.54 5.09 1.3c1.6 0.75 3.04 1.81 4.24 3.1c1.2 1.3 2.14 2.81 2.77 4.46l15.24 39.84l0 0z" />
	<path id="Layer" class="s0" d="m291.81 69.75c-0.96-0.06-1.92-0.17-2.87-0.34c-0.95-0.16-1.89-0.38-2.82-0.64c-0.93-0.26-1.84-0.58-2.73-0.94c-0.89-0.36-1.77-0.77-2.62-1.22c-1.72-0.92-3.44-2.16-4.08-4c-0.15-0.51-0.22-1.04-0.21-1.57c0.01-0.53 0.09-1.06 0.25-1.57c0.16-0.51 0.4-0.99 0.7-1.42c0.3-0.44 0.67-0.83 1.09-1.16c0.43-0.32 0.89-0.59 1.37-0.82c0.48-0.22 0.99-0.39 1.51-0.51c0.52-0.11 1.05-0.17 1.59-0.17c0.53 0 1.06 0.05 1.59 0.17c0.52 0.12 1.03 0.27 1.53 0.45c0.5 0.18 0.99 0.4 1.46 0.64c0.47 0.25 0.93 0.52 1.37 0.82c0.44 0.3 0.86 0.64 1.25 0.99c0.35 0.28 0.68 0.58 0.99 0.9c0.31 0.32 0.6 0.66 0.87 1.01c0.27 0.35 0.52 0.73 0.74 1.11c0.22 0.39 0.42 0.78 0.6 1.2c0.17 0.41 0.29 0.84 0.36 1.28c0.07 0.44 0.09 0.89 0.06 1.33c-0.03 0.44-0.11 0.88-0.24 1.31c-0.13 0.43-0.31 0.84-0.53 1.22c-0.23 0.38-0.53 0.71-0.87 1c-0.34 0.28-0.73 0.51-1.14 0.66c-0.41 0.16-0.85 0.25-1.3 0.26c-0.44 0.02-0.89-0.04-1.31-0.17l3.39 0.17l0 0.01z" />
	<path id="Layer" class="s0" d="m293.2 97.05c-3.95 0.54-3.44-1.47-5.02-5.12c-1.58-3.66-3.7-8-7.67-8.37c-3.25-0.3-5.93 2.3-8.57 4.23c-4.7 3.44-11.03 5.13-16.47 3.06c-5.44-2.06-9.23-8.55-7.16-14c0.32-0.75 0.72-1.46 1.18-2.13c0.47-0.67 1-1.29 1.59-1.85c0.59-0.56 1.24-1.06 1.93-1.49c0.69-0.43 1.43-0.78 2.2-1.06c0.77-0.27 1.55-0.51 2.34-0.7c0.79-0.19 1.59-0.35 2.4-0.46c0.81-0.11 1.62-0.18 2.44-0.21c0.81-0.03 1.63-0.02 2.44 0.04c1.81 0.06 3.61 0.21 5.4 0.47c1.79 0.25 3.57 0.61 5.32 1.06c1.75 0.45 3.48 0.99 5.17 1.63c1.69 0.64 3.35 1.37 4.97 2.19c4.47 2.27 8.83 5.52 10.52 10.24c1.7 4.72 2.81 11.35-2.04 12.63l-0.99-0.15l0.02-0.01z" />
	<path id="Layer" class="s0" d="m286.4 56.59c-1.95-3.4-0.34-8.06 2.85-10.33c3.19-2.27 7.48-2.49 11.29-1.58c1.88 0.47 3.68 1.19 5.37 2.13c1.69 0.94 3.25 2.1 4.64 3.45c1.39 1.35 2.6 2.87 3.59 4.53c0.99 1.66 1.77 3.44 2.3 5.3c1.62 5.94 0.66 12.32 2.03 18.33c0.73 3.2 2.11 6.22 4.05 8.86c1.94 2.65 4.4 4.87 7.23 6.53c2.83 1.66 5.97 2.72 9.23 3.12c3.26 0.4 6.56 0.13 9.71-0.79c4.1-1.2 8.27-4.13 8.67-8.39c0.21 2.43 0.04 4.88-0.5 7.25c-0.54 2.38-1.45 4.66-2.69 6.75c-1.24 2.1-2.8 3.99-4.62 5.61c-1.82 1.62-3.89 2.95-6.12 3.93c-5.29 2.2-11.18 2.35-16.91 2.2c-3.73-0.1-7.55-0.32-10.99-1.76c-1.19-0.54-2.32-1.2-3.38-1.97c-1.06-0.77-2.04-1.63-2.92-2.59c-0.89-0.96-1.67-2-2.35-3.12c-0.68-1.12-1.24-2.3-1.69-3.52c-0.44-1.23-0.79-2.49-1.07-3.76c-0.28-1.28-0.48-2.57-0.59-3.87c-0.12-1.3-0.15-2.61-0.1-3.91c0.05-1.3 0.18-2.6 0.39-3.89c0.56-4.03 1.68-7.98 2-12.03c0.31-4.06-0.28-8.39-2.78-11.59c-2.5-3.21-7.28-4.85-10.83-2.87c-1.43 0.79-2.58 2.09-4.13 2.61c-1.55 0.51-3.75-0.39-3.61-2.02l1.93-2.6v-0.01z" />
	<path id="Layer" class="s2" d="m454.01 177.9l0.19-2l5.64-58.68c0.46-0.36 0.93-0.71 1.41-1.05c0.48-0.34 0.97-0.67 1.46-0.98c0.49-0.31 1-0.62 1.51-0.91c0.51-0.29 1.03-0.57 1.55-0.83c11.61-5.85 22.81-3.05 28.87-0.63c0.4 0.16 0.8 0.32 1.19 0.5c0.39 0.17 0.79 0.35 1.17 0.54c0.39 0.19 0.77 0.39 1.15 0.59c0.38 0.21 0.75 0.42 1.12 0.64l3.3 60.81l0.11 2h-48.68l0.01 0z" />
	<path id="Layer" class="s1" d="m480.42 101.61c-13.58 0-24.56-10.98-24.56-24.56c0-13.58 10.98-24.56 24.56-24.56c13.58 0 24.56 10.98 24.56 24.56c0 13.58-10.98 24.56-24.56 24.56z" />
	<path id="Layer" class="s0" d="m500.35 92.02c1.83-1.92 3.04-4.35 3.48-6.96c0.44-2.61 0.1-5.3-0.99-7.72c-1.09-2.42-2.87-4.46-5.12-5.86c-2.25-1.4-4.87-2.1-7.52-2.02c-3.4 0.11-6.6 1.5-9.84 2.52c-1.22 0.42-2.47 0.76-3.73 1.03c-1.26 0.27-2.54 0.46-3.83 0.58c-1.29 0.12-2.58 0.15-3.87 0.12c-1.29-0.04-2.58-0.15-3.86-0.34c-1.28-0.2-2.53-0.52-3.75-0.95c-1.22-0.44-2.39-0.98-3.5-1.64c-1.11-0.66-2.16-1.42-3.13-2.27c-0.97-0.85-1.85-1.8-2.64-2.82c-3.04-4.18-3.99-9.97-1.84-14.67c2.48-5.42 8.27-8.41 13.71-10.84c0.55-0.27 1.11-0.53 1.67-0.76c0.57-0.23 1.14-0.45 1.72-0.64c0.58-0.19 1.17-0.36 1.77-0.51c0.59-0.15 1.19-0.27 1.8-0.38c0.6-0.1 1.22-0.14 1.83-0.11c0.61 0.03 1.22 0.11 1.81 0.26c0.59 0.15 1.17 0.36 1.72 0.63c0.55 0.27 1.07 0.59 1.56 0.97c1.53 1.32 2.43 3.29 4.09 4.44c1.87 1.28 4.31 1.25 6.57 1.48c5.09 0.51 9.91 2.56 13.81 5.87c3.9 3.31 6.7 7.74 8.02 12.68c1.33 4.94 1.11 10.17-0.61 14.99c-1.72 4.82-4.87 9-9.02 11.99l-0.35 0.95l0.04-0.02z" />
	<path id="Layer" class="s0" d="m477.27 177.9v0h-57.91c0.12-0.67 0.24-1.34 0.36-2c4.32-24 9.35-43.44 9.62-44.49v-0.01v-0.01v-0.01v-0.01c0.03-0.3 0.07-0.58 0.1-0.83c2.14-15.99 28.79-15.99 28.79-15.99l4.16-2.77c0.27-0.18 0.57-0.29 0.88-0.33c0.32-0.04 0.64-0.01 0.94 0.09c0.3 0.1 0.58 0.27 0.81 0.49c0.23 0.22 0.4 0.49 0.51 0.79l0.23 0.63l3.66 10.16c8.67 7.77 9.72 30.18 7.84 54.29l0.01 0z" />
	<path id="Layer" class="s0" d="m538.76 177.9h-55.85v0c-1.88-24.11-0.83-46.52 7.84-54.29l3.89-10.79c0.11-0.3 0.28-0.57 0.51-0.8c0.23-0.22 0.51-0.39 0.81-0.49c0.3-0.1 0.63-0.13 0.94-0.09c0.32 0.04 0.62 0.16 0.88 0.33l4.15 2.77c0 0 26.65 0 28.78 15.99c0.03 0.25 0.07 0.53 0.11 0.83c0 0 4.52 19.91 7.68 44.53c0.08 0.66 0.17 1.33 0.25 2l0.01 0.01z" />
	<path id="Layer" class="s2" d="m69.43 119.84l-5.94 56.06l-0.21 2h-16.07c0.19-0.65 0.38-1.32 0.58-2c4.56-15.64 10.77-38.47 10.1-44.52c-1.05-9.44 6.3-12.59 6.3-12.59l0.46 0.09l4.78 0.96v0z" />
	<path id="Layer" class="s3" d="m95.34 102.54c-13.58 0-24.56-10.98-24.56-24.56c0-13.58 10.98-24.56 24.56-24.56c13.58 0 24.56 10.98 24.56 24.56c0 13.58-10.98 24.56-24.56 24.56z" />
	<path id="Layer" class="s2" d="m127.14 166c-0.31 0.57-0.6 1.15-0.89 1.73c-0.28 0.58-0.55 1.18-0.8 1.77c-0.25 0.6-0.49 1.2-0.72 1.81c-0.22 0.61-0.43 1.22-0.63 1.84c-0.29 0.88-0.57 1.8-0.83 2.74c-0.19 0.65-0.36 1.32-0.53 2h-64.78c0.09-0.66 0.17-1.33 0.26-2c3.31-26.15 5.99-52.69 6.42-57.02c0.04-0.41 0.06-0.62 0.06-0.62c38.82-20.46 67.15 6.3 67.15 6.3c0 0 0.04 0.19 0.1 0.56c0.62 3.74 3.78 25.58-4.82 40.88l0.01 0.01z" />
	<path id="Layer" class="s2" d="m124.11 173.16l-4.32-9.26l1.05-36.72l11.12-2.06l0.39-0.07c1.42 0.83 2.78 1.77 4.04 2.83c1.27 1.05 2.44 2.21 3.51 3.46c1.07 1.25 2.04 2.59 2.89 4c0.85 1.41 1.58 2.89 2.18 4.43c2.16 5.4 6.27 21.64 9.74 36.13c0.16 0.67 0.32 1.34 0.48 2h-28.87l-0.93-2l-1.28-2.74h0z" />
	<path id="Layer" class="s0" d="m107.09 99.38c-0.05-0.05-0.1-0.11-0.15-0.17c-0.05-0.06-0.1-0.12-0.14-0.18c-0.04-0.06-0.09-0.12-0.13-0.18c-0.04-0.06-0.08-0.13-0.12-0.19c-0.21-0.45-0.4-0.92-0.57-1.39c-0.17-0.47-0.32-0.95-0.44-1.43c-0.13-0.48-0.23-0.97-0.31-1.47c-0.08-0.49-0.14-0.99-0.18-1.49l-1.9-13.84c-0.37-2.66-0.78-5.45-2.41-7.59c-2.31-3.03-6.54-3.98-10.33-3.62c-3.8 0.36-7.4 1.79-11.13 2.61c-3.72 0.82-7.86 0.96-11.11-1.04c-0.65-0.43-1.25-0.93-1.8-1.48c-0.55-0.55-1.03-1.16-1.45-1.82c-0.42-0.66-0.77-1.35-1.04-2.08c-0.27-0.73-0.47-1.48-0.59-2.25c-0.11-0.77-0.17-1.55-0.17-2.33c0-0.78 0.05-1.56 0.16-2.33c0.11-0.77 0.27-1.53 0.48-2.28c0.21-0.75 0.48-1.48 0.79-2.19c1.57-3.76 4.43-7.25 8.35-8.36c0.7-0.16 1.4-0.27 2.12-0.33c0.71-0.06 1.43-0.06 2.14-0.01c0.71 0.05 1.42 0.16 2.12 0.31c0.7 0.16 1.38 0.37 2.05 0.63c1.06 0.36 2.09 0.8 3.1 1.3c1 0.5 1.97 1.06 2.9 1.69c0.93 0.62 1.82 1.31 2.66 2.05c0.84 0.74 1.63 1.53 2.37 2.38c-0.13-0.67-0.15-1.36-0.08-2.05c0.08-0.68 0.26-1.35 0.53-1.98c0.27-0.63 0.64-1.21 1.09-1.73c0.45-0.52 0.97-0.97 1.55-1.33c0.59-0.35 1.21-0.65 1.86-0.88c0.65-0.23 1.31-0.41 1.99-0.52c0.68-0.11 1.37-0.15 2.05-0.14c0.69 0.02 1.37 0.1 2.04 0.25c0.67 0.15 1.34 0.33 1.99 0.53c0.66 0.2 1.31 0.42 1.95 0.67c0.64 0.25 1.27 0.52 1.9 0.81c0.62 0.29 1.23 0.61 1.83 0.95c6.18 3.18 12.38 7.05 15.9 13.05c4.15 7.09 3.77 16.26 0.32 23.72c-3.01 6.51-8.09 11.86-13.88 16.15c-0.46 0.35-0.98 0.62-1.54 0.78c-0.55 0.17-1.13 0.23-1.71 0.2c-0.58-0.04-1.15-0.18-1.67-0.41c-0.53-0.24-1.01-0.57-1.42-0.97v0l0.03-0.02z" />
</svg>