<svg version="1.2" baseProfile="tiny-ps" xmlns="http://www.w3.org/2000/svg" viewBox="0 0 729 599" width="710" height="583">
	<title>devices-svg</title>
	<style>
		tspan { white-space:pre }
		.s0 { fill: #e4e4e4 } 
		.s1 { fill: #6c63ff } 
		.s2 { fill: #ffffff } 
		.s3 { fill: #3f3d56 } 
		.s4 { fill: #e6e6e6 } 
		.s5 { fill: #cacaca } 
	</style>
	<path id="Layer" class="s0" d="m473.5 447.59c-99.8 0-181-81.2-181-181c0-99.8 81.2-181 181-181c2.64 0 5.27 0.06 7.91 0.17c2.63 0.11 5.26 0.28 7.89 0.51c2.63 0.23 5.25 0.51 7.86 0.85c2.61 0.34 5.22 0.74 7.82 1.19c0.26 0.05 0.49 0.19 0.65 0.41c0.15 0.22 0.21 0.49 0.17 0.75c-0.05 0.26-0.19 0.49-0.41 0.65c-0.22 0.15-0.49 0.21-0.75 0.17c-2.57-0.45-5.15-0.84-7.73-1.18c-2.59-0.34-5.18-0.62-7.78-0.84c-2.6-0.23-5.2-0.39-7.8-0.51c-2.6-0.11-5.21-0.17-7.82-0.17c-98.7 0-179 80.3-179 179c0 98.7 80.3 179 179 179c98.7 0 179-80.3 179-179c0.01-11.03-1-22.04-3.02-32.89c-2.02-10.85-5.04-21.48-9.03-31.77c-3.98-10.29-8.91-20.19-14.73-29.56c-5.81-9.38-12.48-18.2-19.92-26.35c-0.18-0.2-0.27-0.45-0.26-0.72c0.01-0.26 0.13-0.51 0.33-0.69c0.2-0.18 0.45-0.27 0.72-0.26c0.26 0.01 0.51 0.13 0.69 0.32c7.52 8.24 14.27 17.16 20.14 26.64c5.88 9.48 10.86 19.49 14.89 29.89c4.03 10.4 7.09 21.16 9.13 32.13c2.04 10.97 3.07 22.1 3.06 33.26c0 99.8-81.2 181-181 181z" />
	<path id="Layer" class="s1" d="m553.31 147.66c-19.8 0-35.81-16.01-35.81-35.81c0-19.8 16.01-35.81 35.81-35.81c19.8 0 35.81 16.01 35.81 35.81c0 19.8-16.01 35.81-35.81 35.81z" />
	<path id="Layer" class="s2" d="m548.42 130.49c-0.31 0-0.62-0.04-0.92-0.11c-0.3-0.07-0.59-0.18-0.87-0.31c-0.28-0.14-0.53-0.31-0.77-0.5c-0.24-0.2-0.45-0.42-0.63-0.67l-9.77-13.03c-0.63-0.85-0.91-1.91-0.76-2.95c0.15-1.05 0.71-1.99 1.55-2.62c0.85-0.63 1.91-0.91 2.95-0.76c1.05 0.15 1.99 0.71 2.62 1.55l6.39 8.52l16.42-24.62c0.59-0.88 1.5-1.48 2.53-1.69c1.03-0.21 2.11 0.01 2.98 0.59c0.88 0.58 1.49 1.49 1.7 2.53c0.21 1.03 0 2.11-0.58 2.99l-19.54 29.31c-0.18 0.26-0.38 0.51-0.62 0.72c-0.23 0.21-0.49 0.4-0.77 0.55c-0.28 0.15-0.57 0.27-0.88 0.36c-0.31 0.08-0.62 0.13-0.94 0.14c-0.04 0-0.07 0-0.11 0z" />
	<path id="Layer" class="s3" d="m468.84 238.5c0.63 1.76 0.91 3.63 0.82 5.5c-0.09 1.87-0.55 3.7-1.34 5.4c-0.8 1.69-1.92 3.21-3.3 4.47c-1.38 1.26-3 2.23-4.76 2.87l-99.83 35.89c-1.76 0.64-3.63 0.92-5.5 0.83c-1.87-0.09-3.71-0.54-5.4-1.34c-1.69-0.8-3.21-1.92-4.47-3.31c-1.26-1.39-2.23-3.01-2.86-4.77l-54.74-152.27l-1.44 0.56l-7.55-19.6l1.89-0.73l-1.57-4.36l-1.77 0.68l-7.55-19.6l2.21-0.85l-11.82-32.89c-0.63-1.76-0.91-3.63-0.82-5.5c0.09-1.87 0.55-3.7 1.34-5.4c0.8-1.69 1.92-3.21 3.31-4.47c1.39-1.26 3.01-2.23 4.77-2.87l99.83-35.89c1.76-0.63 3.63-0.91 5.5-0.82c1.87 0.09 3.7 0.55 5.4 1.34c1.69 0.8 3.21 1.92 4.47 3.31c1.26 1.39 2.23 3.01 2.87 4.77l16.96 47.17l1.4-0.5l10.16 28.26l-1.4 0.5l55.22 153.63v0z" />
	<path id="Layer" class="s2" d="m355.17 287.56c-0.7 0-1.39-0.11-2.06-0.32c-0.67-0.21-1.3-0.52-1.87-0.93c-0.57-0.4-1.08-0.89-1.5-1.45c-0.42-0.56-0.76-1.17-1-1.83l-83.2-231.47c-0.3-0.84-0.44-1.74-0.39-2.64c0.04-0.9 0.26-1.77 0.64-2.59c0.38-0.81 0.92-1.54 1.58-2.14c0.66-0.6 1.44-1.07 2.28-1.37l21.24-7.64l-0.03 0.74c-0.05 1.29 0.21 2.57 0.77 3.74c0.56 1.16 1.39 2.17 2.43 2.94c1.04 0.76 2.25 1.26 3.53 1.45c1.28 0.19 2.58 0.05 3.8-0.38l47.14-16.94c0.57-0.26 1.1-0.59 1.59-0.97c0.49-0.38 0.94-0.82 1.32-1.31c0.39-0.49 0.72-1.02 0.98-1.58c0.26-0.56 0.46-1.16 0.59-1.77c0.12-0.6 0.18-1.21 0.16-1.83c-0.02-0.61-0.11-1.22-0.27-1.81c-0.16-0.59-0.39-1.16-0.69-1.7c-0.29-0.54-0.65-1.04-1.06-1.49l-0.5-0.55l21.94-7.89c0.84-0.3 1.74-0.44 2.64-0.39c0.9 0.04 1.77 0.26 2.59 0.64c0.81 0.38 1.54 0.92 2.14 1.58c0.6 0.66 1.07 1.44 1.38 2.28l79.38 220.85c0.8 2.24 1.16 4.62 1.04 6.99c-0.11 2.38-0.7 4.71-1.71 6.86c-1.01 2.15-2.44 4.08-4.2 5.69c-1.76 1.6-3.82 2.84-6.06 3.65l-92.32 33.19c-0.19 0.07-0.37 0.13-0.56 0.18c-0.19 0.05-0.38 0.09-0.58 0.13c-0.19 0.03-0.39 0.06-0.59 0.08c-0.2 0.02-0.39 0.03-0.59 0.03v0z" />
	<path id="Layer" class="s1" d="m347.03 123.38c-14.93 0-27-12.07-27-27c0-14.93 12.07-27 27-27c14.93 0 27 12.07 27 27c0 14.93-12.07 27-27 27z" />
	<path id="Layer" class="s4" d="m413.94 135.64l-93.5 33.61c-0.59 0.21-1.24 0.18-1.81-0.08c-0.57-0.27-1.01-0.75-1.22-1.34c-0.21-0.59-0.18-1.24 0.09-1.81c0.27-0.57 0.75-1 1.34-1.22l93.5-33.61c0.59-0.21 1.24-0.18 1.8 0.09c0.57 0.27 1 0.75 1.21 1.34c0.21 0.59 0.18 1.24-0.08 1.8c-0.27 0.57-0.75 1-1.33 1.22h0z" />
	<path id="Layer" class="s4" d="m386.17 156.95l-30.76 11.06c-0.59 0.21-1.24 0.18-1.81-0.08c-0.57-0.27-1.01-0.75-1.22-1.34c-0.21-0.59-0.18-1.24 0.09-1.81c0.27-0.57 0.75-1 1.34-1.22l30.76-11.06c0.59-0.21 1.24-0.18 1.81 0.09c0.57 0.27 1 0.75 1.22 1.34c0.21 0.59 0.18 1.24-0.09 1.81c-0.27 0.57-0.75 1-1.34 1.22l0 0z" />
	<path id="Layer" class="s4" d="m393.49 177.3l-30.76 11.06c-0.59 0.21-1.24 0.18-1.81-0.09c-0.57-0.27-1-0.75-1.22-1.34c-0.21-0.59-0.18-1.24 0.09-1.81c0.27-0.57 0.75-1 1.34-1.22l30.76-11.06c0.59-0.21 1.24-0.18 1.81 0.09c0.57 0.27 1 0.75 1.22 1.34c0.21 0.59 0.18 1.24-0.09 1.81c-0.27 0.57-0.75 1-1.34 1.22l0 0z" />
	<path id="Layer" class="s4" d="m397.23 187.73l-30.76 11.06c-0.59 0.21-1.24 0.18-1.81-0.08c-0.57-0.27-1.01-0.75-1.22-1.34c-0.21-0.59-0.18-1.24 0.09-1.81c0.27-0.57 0.75-1 1.34-1.22l30.76-11.06c0.59-0.21 1.24-0.18 1.81 0.08c0.57 0.27 1.01 0.75 1.22 1.34c0.21 0.59 0.18 1.24-0.09 1.81c-0.27 0.57-0.75 1-1.34 1.22l0 0z" />
	<path id="Layer" class="s4" d="m407.03 160.78l-65.25 23.46c-0.59 0.21-1.24 0.18-1.81-0.08c-0.57-0.27-1.01-0.75-1.22-1.34c-0.21-0.59-0.18-1.24 0.09-1.81c0.27-0.57 0.75-1 1.34-1.22l65.25-23.46c0.59-0.21 1.24-0.18 1.81 0.08c0.57 0.27 1.01 0.75 1.22 1.34c0.21 0.59 0.18 1.24-0.09 1.81c-0.27 0.57-0.75 1-1.34 1.22l0 0z" />
	<path id="Layer" class="s1" d="m393.88 213.03l-11.17 4.01c-1 0.36-2.11 0.31-3.07-0.15c-0.96-0.45-1.71-1.27-2.07-2.27c-0.36-1-0.31-2.11 0.15-3.07c0.45-0.96 1.27-1.71 2.27-2.07l11.17-4.01c1-0.36 2.11-0.31 3.07 0.15c0.96 0.45 1.71 1.27 2.07 2.27c0.36 1 0.31 2.11-0.15 3.07c-0.45 0.96-1.27 1.71-2.27 2.07v0z" />
	<path id="Layer" class="s2" d="m305.88 35.93c-0.86 0-1.55-0.69-1.55-1.55c0-0.86 0.69-1.55 1.55-1.55c0.86 0 1.55 0.69 1.55 1.55c0 0.86-0.69 1.55-1.55 1.55z" />
	<path id="Layer" class="s3" d="m725.7 333.1l-28.94 48.7l1.1 0.58l-9.8 18.58l-2.04-1.08l-6.44 10.83l1.6 0.92l-10.5 18.18l-1.82-1.05l-94.43 158.92c-1.23 2.06-2.85 3.86-4.77 5.29c-1.92 1.43-4.1 2.48-6.43 3.07c-2.32 0.59-4.74 0.72-7.11 0.38c-2.37-0.34-4.65-1.15-6.72-2.37l-175.55-104.31c-2.06-1.23-3.86-2.85-5.29-4.77c-1.43-1.92-2.48-4.1-3.07-6.43c-0.59-2.32-0.72-4.74-0.38-7.11c0.34-2.37 1.15-4.65 2.37-6.72l151.27-254.58c1.23-2.06 2.85-3.86 4.77-5.29c1.92-1.43 4.1-2.48 6.43-3.07c2.32-0.59 4.74-0.72 7.11-0.38c2.37 0.34 4.65 1.15 6.72 2.37l175.55 104.31c2.06 1.23 3.86 2.85 5.29 4.77c1.43 1.92 2.48 4.1 3.07 6.43c0.59 2.32 0.72 4.74 0.38 7.11c-0.34 2.37-1.14 4.65-2.37 6.72l0 0z" />
	<path id="Layer" class="s2" d="m555.66 584.22l-176.17-104.68c-0.63-0.38-1.19-0.88-1.63-1.47c-0.44-0.59-0.76-1.27-0.95-1.98c-0.18-0.72-0.22-1.46-0.12-2.19c0.11-0.73 0.35-1.43 0.73-2.07l152.27-256.27c0.38-0.63 0.88-1.19 1.47-1.63c0.59-0.44 1.27-0.76 1.98-0.95c0.72-0.18 1.46-0.22 2.19-0.12c0.73 0.11 1.43 0.35 2.07 0.73l176.17 104.68c0.63 0.38 1.19 0.88 1.63 1.47c0.44 0.59 0.76 1.27 0.95 1.98c0.18 0.72 0.22 1.46 0.12 2.19c-0.11 0.73-0.35 1.43-0.73 2.07l-152.27 256.27c-0.38 0.63-0.88 1.19-1.47 1.63c-0.59 0.44-1.27 0.76-1.98 0.95c-0.72 0.18-1.46 0.22-2.19 0.12c-0.73-0.11-1.43-0.35-2.07-0.73v0z" />
	<path id="Layer" class="s2" d="m628.03 261.89c-0.86 0-1.55-0.69-1.55-1.55c0-0.86 0.69-1.55 1.55-1.55c0.86 0 1.55 0.69 1.55 1.55c0 0.86-0.69 1.55-1.55 1.55z" />
	<path id="Layer" class="s4" d="m618.42 445.46l-147.06-87.38c-0.93-0.55-1.61-1.45-1.87-2.49c-0.27-1.05-0.11-2.16 0.44-3.09c0.55-0.93 1.45-1.6 2.5-1.87c1.05-0.26 2.16-0.1 3.09 0.45l147.06 87.38c0.93 0.55 1.61 1.45 1.87 2.49c0.27 1.05 0.11 2.16-0.44 3.09c-0.55 0.93-1.45 1.6-2.5 1.87c-1.05 0.26-2.16 0.1-3.09-0.45l0 0z" />
	<path id="Layer" class="s4" d="m559.7 431.93l-48.37-28.74c-0.93-0.55-1.6-1.45-1.86-2.49c-0.27-1.05-0.11-2.15 0.44-3.08c0.55-0.93 1.45-1.6 2.49-1.86c1.05-0.27 2.15-0.11 3.08 0.45l48.37 28.74c0.93 0.55 1.6 1.45 1.86 2.49c0.27 1.05 0.11 2.15-0.44 3.08c-0.55 0.93-1.45 1.6-2.49 1.86c-1.05 0.27-2.15 0.11-3.08-0.44l0 0z" />
	<path id="Layer" class="s4" d="m540.68 463.93l-48.37-28.74c-0.93-0.55-1.6-1.45-1.86-2.49c-0.27-1.04-0.11-2.15 0.44-3.08c0.55-0.93 1.45-1.6 2.49-1.86c1.04-0.27 2.15-0.11 3.08 0.44l48.37 28.74c0.93 0.55 1.6 1.45 1.86 2.49c0.27 1.05 0.11 2.15-0.44 3.08c-0.55 0.93-1.45 1.6-2.49 1.86c-1.05 0.27-2.15 0.11-3.08-0.44l0 0z" />
	<path id="Layer" class="s4" d="m530.94 480.33l-48.37-28.74c-0.93-0.55-1.6-1.45-1.87-2.49c-0.27-1.05-0.11-2.16 0.44-3.08c0.55-0.93 1.45-1.6 2.5-1.86c1.05-0.27 2.16-0.1 3.08 0.45l48.37 28.74c0.93 0.55 1.61 1.45 1.88 2.49c0.27 1.05 0.11 2.16-0.44 3.09c-0.55 0.93-1.45 1.6-2.5 1.87c-1.05 0.26-2.16 0.1-3.09-0.46l0 0z" />
	<path id="Layer" class="s4" d="m577.45 463.82l-102.63-60.98c-0.92-0.55-1.59-1.45-1.85-2.49c-0.26-1.04-0.1-2.15 0.45-3.07c0.55-0.92 1.44-1.59 2.48-1.86c1.04-0.27 2.15-0.11 3.07 0.43l102.63 60.98c0.93 0.55 1.61 1.45 1.88 2.49c0.27 1.05 0.11 2.16-0.44 3.09c-0.55 0.93-1.45 1.6-2.5 1.87c-1.05 0.26-2.16 0.1-3.09-0.46h0z" />
	<path id="Layer" class="s1" d="m557.89 541.76l-17.56-10.44c-1.57-0.94-2.71-2.46-3.16-4.24c-0.45-1.78-0.18-3.66 0.76-5.23c0.94-1.58 2.46-2.71 4.23-3.17c1.78-0.45 3.66-0.18 5.23 0.75l17.56 10.44c1.58 0.94 2.72 2.46 3.17 4.24c0.45 1.78 0.18 3.66-0.76 5.24c-0.94 1.58-2.46 2.72-4.24 3.17c-1.78 0.45-3.66 0.18-5.24-0.76l0 0z" />
	<path id="Layer" class="s1" d="m590.66 372.31c-19.91 0-36-16.09-36-36c0-19.91 16.09-36 36-36c19.91 0 36 16.09 36 36c0 19.91-16.09 36-36 36z" />
	<path id="Layer" class="s5" d="m0.42 200.56c0-1.05 0.21-2.08 0.61-3.05c0.4-0.97 0.99-1.84 1.73-2.58c0.74-0.74 1.62-1.33 2.58-1.73c0.97-0.4 2-0.61 3.05-0.61h471.24c1.05 0 2.08 0.21 3.05 0.61c0.97 0.4 1.84 0.99 2.58 1.73c0.74 0.74 1.33 1.62 1.73 2.58c0.4 0.97 0.61 2 0.61 3.05v282.05h-487.18v-282.05z" />
	<path id="Layer" class="s2" d="m15.48 203.61h457.08v259.49h-457.08v-259.49z" />
	<path id="Layer" class="s3" d="m488.45 474.97l0 34.81c0 1.44-0.28 2.87-0.84 4.2c-0.55 1.33-1.36 2.54-2.38 3.56c-1.02 1.02-2.23 1.83-3.56 2.38c-1.33 0.55-2.76 0.84-4.2 0.84h-179.81v68.69h2.39c0.19 0 0.37 0.04 0.55 0.11c0.17 0.07 0.33 0.18 0.46 0.31c0.13 0.13 0.24 0.29 0.31 0.46c0.07 0.17 0.11 0.36 0.11 0.55v4.78c0 0.19-0.04 0.37-0.11 0.55c-0.07 0.17-0.18 0.33-0.31 0.46c-0.13 0.13-0.29 0.24-0.46 0.31c-0.17 0.07-0.36 0.11-0.55 0.11h-111.63c-0.19 0-0.37-0.04-0.55-0.11c-0.17-0.07-0.33-0.18-0.46-0.31c-0.13-0.13-0.24-0.29-0.31-0.46c-0.07-0.17-0.11-0.36-0.11-0.55v-4.78c0-0.19 0.04-0.37 0.11-0.55c0.07-0.17 0.18-0.33 0.31-0.46c0.13-0.13 0.29-0.24 0.46-0.31c0.17-0.07 0.36-0.11 0.55-0.11h2.39v-68.69h-179.81c-1.44 0-2.87-0.28-4.2-0.84c-1.33-0.55-2.54-1.36-3.56-2.38c-1.02-1.02-1.83-2.23-2.38-3.56c-0.55-1.33-0.84-2.76-0.84-4.2v-34.8l488.45 0z" />
	<path id="Layer" class="s4" d="m406.41 290.39h-216.45c-1.36 0-2.67-0.54-3.64-1.51c-0.96-0.96-1.51-2.27-1.51-3.64c0-1.36 0.54-2.67 1.51-3.64c0.96-0.96 2.27-1.51 3.64-1.51l216.45 0c1.36 0 2.67 0.54 3.64 1.51c0.96 0.96 1.51 2.27 1.51 3.64c0 1.36-0.54 2.67-1.51 3.64c-0.96 0.96-2.27 1.51-3.64 1.51z" />
	<path id="Layer" class="s4" d="m333.79 313.62h-71.2c-1.36 0-2.67-0.54-3.64-1.51c-0.96-0.96-1.51-2.27-1.51-3.64c0-1.36 0.54-2.67 1.51-3.64c0.96-0.96 2.27-1.51 3.64-1.51h71.2c1.36 0 2.67 0.54 3.64 1.51c0.96 0.96 1.51 2.27 1.51 3.64c0 1.36-0.54 2.67-1.51 3.64c-0.96 0.96-2.27 1.51-3.64 1.51z" />
	<path id="Layer" class="s4" d="m333.79 360.73h-71.2c-1.36 0-2.67-0.54-3.64-1.51c-0.96-0.96-1.51-2.27-1.51-3.64c0-1.36 0.54-2.67 1.51-3.64c0.96-0.96 2.27-1.51 3.64-1.51l71.2 0c1.36 0 2.67 0.54 3.64 1.51c0.96 0.96 1.51 2.27 1.51 3.64c0 1.36-0.54 2.67-1.51 3.64c-0.96 0.96-2.27 1.51-3.64 1.51v0z" />
	<path id="Layer" class="s4" d="m333.79 384.86h-71.2c-1.36 0-2.67-0.54-3.64-1.51c-0.96-0.96-1.51-2.27-1.51-3.64c0-1.36 0.54-2.67 1.51-3.64c0.96-0.96 2.27-1.51 3.64-1.51h71.2c1.36 0 2.67 0.54 3.64 1.51c0.96 0.96 1.51 2.27 1.51 3.64c0 1.36-0.54 2.67-1.51 3.64c-0.96 0.96-2.27 1.51-3.64 1.51h0z" />
	<path id="Layer" class="s4" d="m373.72 336.84h-151.06c-1.36 0-2.67-0.54-3.64-1.51c-0.96-0.96-1.51-2.27-1.51-3.64c0-1.36 0.54-2.67 1.51-3.64c0.96-0.96 2.27-1.51 3.64-1.51l151.06 0c1.36 0 2.67 0.54 3.64 1.51c0.96 0.96 1.51 2.27 1.51 3.64c0 1.36-0.54 2.67-1.51 3.64c-0.96 0.96-2.27 1.51-3.64 1.51z" />
	<path id="Layer" class="s1" d="m402.81 434.27h-25.85c-2.32 0-4.55-0.92-6.19-2.56c-1.64-1.64-2.56-3.87-2.56-6.19c0-2.32 0.92-4.55 2.56-6.19c1.64-1.64 3.87-2.56 6.19-2.56l25.85 0c2.32 0 4.55 0.92 6.19 2.56c1.64 1.64 2.56 3.87 2.56 6.19c0 2.32-0.92 4.55-2.56 6.19c-1.64 1.64-3.87 2.56-6.19 2.56l0 0z" />
	<path id="Layer" class="s1" d="m121.89 370.77c-24.89 0-45-20.12-45-45c0-24.88 20.11-45 45-45c24.88 0 45 20.12 45 45c0 24.88-20.12 45-45 45z" />
	<path id="Layer" class="s2" d="m243.8 198.1c-0.94 0-1.7-0.76-1.7-1.7c0-0.94 0.76-1.7 1.7-1.7c0.94 0 1.7 0.76 1.7 1.7c0 0.94-0.76 1.7-1.7 1.7z" />
</svg>