<svg version="1.2" baseProfile="tiny-ps" xmlns="http://www.w3.org/2000/svg" viewBox="0 0 370 713" width="200" height="350">
	<title>mobile-phone-svg</title>
	<style>
		tspan { white-space:pre }
		.s0 { fill: #3f3d56 } 
		.s1 { fill: #ffffff } 
		.s2 { fill: #e6e6e6 } 
		.s3 { fill: #6c63ff } 
	</style>
	<path id="a7e0d23c-0c47-41f1-93b9-87dfccd4c0f5-1729" class="s0" d="m361.74 245.04h-3.9v403.76c0 8.13-1.6 16.18-4.71 23.69c-3.11 7.51-7.67 14.34-13.42 20.09c-5.75 5.75-12.57 10.31-20.09 13.42c-7.51 3.11-15.56 4.71-23.69 4.71h-226.65c-8.13 0-16.18-1.6-23.69-4.71c-7.51-3.11-14.34-7.67-20.09-13.42c-5.75-5.75-10.31-12.57-13.42-20.09c-3.11-7.51-4.71-15.56-4.71-23.69v-586.88c0-8.13 1.6-16.18 4.71-23.69c3.11-7.51 7.67-14.34 13.42-20.09c5.75-5.75 12.57-10.31 20.09-13.42c7.51-3.11 15.56-4.71 23.69-4.71h226.65c8.13 0 16.18 1.6 23.69 4.71c7.51 3.11 14.34 7.67 20.09 13.42c5.75 5.75 10.31 12.57 13.42 20.09c3.11 7.51 4.71 15.56 4.71 23.69v106.98h3.9v76.15v-0.01z" />
	<path id="a1ad11fc-8226-4675-bbe0-e36020d9de96-1730" class="s1" d="m345.14 57.77v595.17c0 6.16-1.22 12.27-3.57 17.96c-2.36 5.7-5.82 10.87-10.18 15.23c-4.36 4.36-9.53 7.82-15.23 10.18c-5.69 2.36-11.8 3.58-17.96 3.58h-231.3c-6.17 0-12.27-1.21-17.97-3.57c-5.7-2.36-10.88-5.82-15.24-10.18c-4.36-4.36-7.82-9.54-10.18-15.23c-2.36-5.7-3.58-11.8-3.58-17.97v-595.17c0-6.17 1.22-12.27 3.58-17.97c2.36-5.7 5.82-10.87 10.18-15.23c4.36-4.36 9.54-7.82 15.24-10.18c5.7-2.36 11.8-3.57 17.97-3.57h28.06c-1.38 3.39-1.9 7.06-1.53 10.7c0.38 3.64 1.64 7.13 3.68 10.16c2.04 3.04 4.79 5.52 8.02 7.25c3.23 1.72 6.83 2.62 10.48 2.63h131.87c3.66 0 7.26-0.91 10.48-2.63c3.23-1.72 5.98-4.21 8.02-7.25c2.04-3.04 3.3-6.53 3.68-10.16c0.38-3.64-0.15-7.31-1.53-10.7h30.05c6.16 0 12.27 1.22 17.96 3.58c5.7 2.36 10.87 5.82 15.23 10.18c4.36 4.36 7.82 9.53 10.18 15.23c2.36 5.69 3.58 11.8 3.58 17.96v0.01l0.01-0.01l0 0z" />
	<path id="a71e44ec-7616-4081-86af-b6db32cd39f3-1731" fill-rule="evenodd" class="s2" d="m287.81 400.6h-205.54c-0.5 0-0.99-0.1-1.46-0.29c-0.46-0.19-0.88-0.47-1.23-0.83c-0.35-0.35-0.63-0.77-0.83-1.23c-0.19-0.46-0.29-0.96-0.29-1.46v-50.98c0-0.5 0.1-0.99 0.29-1.46c0.19-0.46 0.47-0.88 0.83-1.23c0.35-0.35 0.77-0.63 1.23-0.83c0.46-0.19 0.96-0.29 1.46-0.29h205.54c0.5 0 0.99 0.1 1.46 0.29c0.46 0.19 0.88 0.47 1.23 0.83c0.35 0.35 0.63 0.77 0.83 1.23c0.19 0.46 0.29 0.96 0.29 1.46v50.99c0 0.5-0.1 0.99-0.29 1.46c-0.19 0.46-0.47 0.88-0.83 1.23c-0.35 0.35-0.77 0.63-1.23 0.83c-0.46 0.19-0.96 0.29-1.46 0.29v-0.01zm-205.54-57.07c-0.3 0-0.6 0.06-0.87 0.17c-0.28 0.11-0.53 0.28-0.74 0.5c-0.21 0.21-0.38 0.46-0.5 0.74c-0.11 0.28-0.17 0.57-0.17 0.87v50.99c0 0.3 0.06 0.6 0.17 0.87c0.11 0.28 0.28 0.53 0.5 0.74c0.21 0.21 0.46 0.38 0.74 0.5c0.28 0.11 0.57 0.17 0.87 0.17h205.54c0.3 0 0.6-0.06 0.87-0.17c0.28-0.11 0.53-0.28 0.74-0.5c0.21-0.21 0.38-0.46 0.5-0.74c0.11-0.28 0.17-0.57 0.17-0.87v-50.99c0-0.3-0.06-0.6-0.17-0.87c-0.11-0.28-0.28-0.53-0.5-0.74c-0.21-0.21-0.46-0.38-0.74-0.5c-0.28-0.11-0.57-0.17-0.87-0.17h-205.54z" />
	<path id="a3f57aef-fb20-4553-8f82-b751eb5ec42c-1732" class="s2" d="m145.84 360.36h125.69c0.04 0 0.08 0 0.12 0c0.71 0.03 1.37 0.33 1.85 0.85c0.48 0.52 0.73 1.21 0.71 1.91c-0.03 0.71-0.33 1.37-0.85 1.85c-0.52 0.48-1.21 0.73-1.91 0.71h-125.61c-0.71 0-1.38-0.28-1.88-0.78c-0.5-0.5-0.78-1.18-0.78-1.88c0-0.71 0.28-1.38 0.78-1.88c0.5-0.5 1.18-0.78 1.88-0.78v0v0l0 0z" />
	<path id="a617e1da-1a45-4bf0-a146-8b20186fa5b6-1733" class="s2" d="m145.84 376.35h125.69c0.04 0 0.08 0 0.12 0c0.71 0.03 1.37 0.33 1.85 0.85c0.48 0.52 0.73 1.21 0.71 1.91c-0.03 0.71-0.33 1.37-0.85 1.85c-0.52 0.48-1.21 0.73-1.91 0.71h-125.61c-0.71 0-1.38-0.28-1.88-0.78c-0.5-0.5-0.78-1.18-0.78-1.88c0-0.71 0.28-1.38 0.78-1.88c0.5-0.5 1.18-0.78 1.88-0.78v0v0l0 0z" />
	<path id="f83fafa3-5270-49ac-8952-eedc3d6c92ed-1734" fill-rule="evenodd" class="s2" d="m82.27 485.58c-0.5 0-0.99-0.1-1.46-0.29c-0.46-0.19-0.88-0.47-1.23-0.83c-0.35-0.35-0.63-0.77-0.83-1.23c-0.19-0.46-0.29-0.96-0.29-1.46v-50.98c0-0.5 0.1-0.99 0.29-1.46c0.19-0.46 0.47-0.88 0.83-1.23c0.35-0.35 0.77-0.63 1.23-0.83c0.46-0.19 0.96-0.29 1.46-0.29h205.54c0.5 0 0.99 0.1 1.46 0.29c0.46 0.19 0.88 0.47 1.23 0.83c0.35 0.35 0.63 0.77 0.83 1.23c0.19 0.46 0.29 0.96 0.29 1.46v50.99c0 0.5-0.1 0.99-0.29 1.46c-0.19 0.46-0.47 0.88-0.83 1.23c-0.35 0.35-0.77 0.63-1.23 0.82c-0.46 0.19-0.96 0.29-1.46 0.29h-205.54zm0-57.07c-0.3 0-0.6 0.06-0.87 0.17c-0.28 0.11-0.53 0.28-0.74 0.5c-0.21 0.21-0.38 0.46-0.5 0.74c-0.11 0.28-0.17 0.57-0.17 0.87v50.98c0 0.3 0.06 0.6 0.17 0.87c0.11 0.28 0.28 0.53 0.5 0.74c0.21 0.21 0.46 0.38 0.74 0.5c0.28 0.11 0.57 0.17 0.87 0.17h205.54c0.3 0 0.6-0.06 0.87-0.17c0.28-0.11 0.53-0.28 0.74-0.5c0.21-0.21 0.38-0.46 0.5-0.74c0.11-0.28 0.17-0.57 0.17-0.87v-50.99c0-0.3-0.06-0.6-0.17-0.87c-0.11-0.28-0.28-0.53-0.5-0.74c-0.21-0.21-0.46-0.38-0.74-0.5c-0.28-0.11-0.57-0.17-0.87-0.17h-205.54v0.01z" />
	<path id="b1e095e5-1d51-47f4-b1e9-85a21efab4ec-1735" class="s2" d="m145.84 445.62h125.69c0.7 0.03 1.35 0.32 1.83 0.83c0.48 0.51 0.74 1.18 0.73 1.88c-0.01 0.7-0.3 1.36-0.79 1.85c-0.5 0.49-1.16 0.77-1.86 0.77h-125.61c-0.71 0-1.38-0.28-1.88-0.78c-0.5-0.5-0.78-1.18-0.78-1.88c0-0.71 0.28-1.38 0.78-1.88c0.5-0.5 1.18-0.78 1.88-0.78v0l0.01-0.01l0 0z" />
	<path id="e7ccabbb-2f45-40c9-adc9-a92013dc0f4d-1736" class="s2" d="m145.84 461.61h125.69c0.7 0.03 1.35 0.32 1.83 0.83c0.48 0.51 0.74 1.18 0.73 1.88c-0.01 0.7-0.3 1.36-0.79 1.85c-0.5 0.49-1.16 0.77-1.86 0.77h-125.61c-0.71 0-1.38-0.28-1.88-0.78c-0.5-0.5-0.78-1.18-0.78-1.88c0-0.71 0.28-1.38 0.78-1.88c0.5-0.5 1.18-0.78 1.88-0.78v0l0.01-0.01l0 0z" />
	<path id="ec532991-8ec8-4eba-a86f-87c70c278f41-1737" fill-rule="evenodd" class="s2" d="m287.81 570.83h-205.54c-0.5 0-0.99-0.1-1.46-0.29c-0.46-0.19-0.88-0.47-1.23-0.83c-0.35-0.35-0.63-0.77-0.83-1.23c-0.19-0.46-0.29-0.96-0.29-1.46v-50.98c0-0.5 0.1-0.99 0.29-1.46c0.19-0.46 0.47-0.88 0.83-1.23c0.35-0.35 0.77-0.63 1.23-0.83c0.46-0.19 0.96-0.29 1.46-0.29h205.54c0.5 0 0.99 0.1 1.46 0.29c0.46 0.19 0.88 0.47 1.23 0.83c0.35 0.35 0.63 0.77 0.83 1.23c0.19 0.46 0.29 0.96 0.29 1.46v50.99c0 0.5-0.1 0.99-0.29 1.46c-0.19 0.46-0.47 0.88-0.83 1.23c-0.35 0.35-0.77 0.63-1.23 0.83c-0.46 0.19-0.96 0.29-1.46 0.29v-0.01zm-205.54-57.07c-0.3 0-0.6 0.06-0.87 0.17c-0.28 0.11-0.53 0.28-0.74 0.5c-0.21 0.21-0.38 0.46-0.5 0.74c-0.11 0.28-0.17 0.57-0.17 0.87v50.99c0 0.3 0.06 0.6 0.17 0.87c0.11 0.28 0.28 0.53 0.5 0.74c0.21 0.21 0.46 0.38 0.74 0.5c0.28 0.11 0.57 0.17 0.87 0.17h205.54c0.3 0 0.6-0.06 0.87-0.17c0.28-0.11 0.53-0.28 0.74-0.5c0.21-0.21 0.38-0.46 0.5-0.74c0.11-0.28 0.17-0.57 0.17-0.87v-50.98c0-0.3-0.06-0.6-0.17-0.87c-0.11-0.28-0.28-0.53-0.5-0.74c-0.21-0.21-0.46-0.38-0.74-0.5c-0.28-0.11-0.57-0.17-0.87-0.17h-205.54v-0.01z" />
	<path id="a788f10e-f95b-4590-bad9-be702445c232-1738" class="s2" d="m145.84 530.88h125.69c0.04 0 0.08 0 0.12 0c0.71 0.03 1.37 0.33 1.85 0.85c0.48 0.52 0.73 1.21 0.71 1.91c-0.03 0.71-0.33 1.37-0.85 1.85c-0.52 0.48-1.21 0.73-1.91 0.71h-125.61c-0.71 0-1.38-0.28-1.88-0.78c-0.5-0.5-0.78-1.18-0.78-1.88c0-0.71 0.28-1.38 0.78-1.88c0.5-0.5 1.18-0.78 1.88-0.78v0v0l0 0z" />
	<path id="f15a5014-9b42-4c0b-a546-80766b911601-1739" class="s2" d="m145.84 546.87h125.69c0.04 0 0.08 0 0.12 0c0.71 0.03 1.37 0.33 1.85 0.85c0.48 0.52 0.73 1.21 0.71 1.91c-0.03 0.71-0.33 1.37-0.85 1.85c-0.52 0.48-1.21 0.73-1.91 0.71h-125.61c-0.71 0-1.38-0.28-1.88-0.78c-0.5-0.5-0.78-1.18-0.78-1.88c0-0.71 0.28-1.38 0.78-1.88c0.5-0.5 1.18-0.78 1.88-0.78v0v0l0 0z" />
	<g id="ac055b4e-9afd-48c4-86db-12c8e2993e8d">
	</g>
	<g id="bf60e786-3805-43a5-8cdd-bbea060079bf">
		<path id="a323e3dd-8f2c-40f7-a0c1-7a235f78e8b7" class="s3" d="m107.92 386.97c-8.84 0-15.99-7.15-15.99-15.99c0-8.84 7.15-15.99 15.99-15.99c8.84 0 15.99 7.15 15.99 15.99c0 8.84-7.15 15.99-15.99 15.99v0h0z" />
		<path id="b21d221e-9b86-4bff-9dca-a61a27263db1-1745" class="s2" d="m100.26 368h15.73c0.08 0.22 0.15 0.44 0.2 0.66c0.05 0.22 0.09 0.45 0.12 0.68c0.03 0.23 0.04 0.46 0.04 0.69c0 0.23-0.01 0.46-0.04 0.69c0 1.47-0.15 2.64-0.34 2.62h-15.72c-0.18 0-0.33-1.19-0.33-2.67c0-1.47 0.15-2.66 0.33-2.66v0l0.01-0.01h0z" />
	</g>
	<g id="b51141dd-8175-4f5a-b697-41b89601b37f">
		<path id="e363222e-d569-47a6-8bf5-edbaac636a07" class="s3" d="m107.92 472.26c-8.84 0-15.99-7.15-15.99-15.99c0-8.84 7.15-15.99 15.99-15.99c8.84 0 15.99 7.15 15.99 15.99c0 8.84-7.15 15.99-15.99 15.99v0h0z" />
		<path id="bf4b9d9b-b2cd-48cd-bc0b-2e6b007ef33d-1746" class="s2" d="m100.26 453.29h15.73c0.08 0.22 0.15 0.44 0.2 0.66c0.05 0.22 0.09 0.45 0.12 0.68c0.03 0.23 0.04 0.46 0.04 0.69c0 0.23-0.01 0.46-0.04 0.69c0 1.47-0.15 2.64-0.34 2.62h-15.72c-0.18 0-0.33-1.19-0.33-2.66c0-1.47 0.15-2.66 0.33-2.66v0l0.01-0.02h0z" />
	</g>
	<g id="b35aa588-fd9e-4429-8570-fee6b5da93cc">
		<path id="b896a996-d737-41ee-9642-d5eaf8a9fd6b" class="s3" d="m107.92 557.52c-8.84 0-15.99-7.15-15.99-15.99c0-8.84 7.15-15.99 15.99-15.99c8.84 0 15.99 7.15 15.99 15.99c0 8.84-7.15 15.99-15.99 15.99v0h0z" />
		<path id="f0c90521-3626-484d-9767-39f7327e6a31-1747" class="s2" d="m100.26 538.55h15.73c0.08 0.22 0.15 0.44 0.2 0.66c0.05 0.22 0.09 0.45 0.12 0.68c0.03 0.23 0.04 0.46 0.04 0.69c0 0.23-0.01 0.46-0.04 0.69c0 1.47-0.15 2.64-0.34 2.62h-15.72c-0.18 0-0.33-1.19-0.33-2.66c0-1.47 0.15-2.66 0.33-2.66v0l0.01-0.02l0 0z" />
	</g>
	<path id="Layer" class="s2" d="m234.19 256.67c-0.41 0-0.82-0.05-1.22-0.17c-0.4-0.11-0.78-0.28-1.13-0.49c-0.35-0.22-0.67-0.48-0.95-0.78c-0.28-0.3-0.52-0.64-0.71-1.01c-1.6-3.13-3.51-6.09-5.69-8.84c-2.19-2.75-4.64-5.27-7.33-7.54c-2.69-2.26-5.59-4.25-8.67-5.94c-3.08-1.69-6.32-3.06-9.68-4.1c-0.69-0.21-1.38-0.41-2.07-0.59c-0.7-0.18-1.39-0.36-2.09-0.51c-0.7-0.16-1.41-0.3-2.11-0.44c-0.71-0.13-1.42-0.25-2.13-0.36l-0.58-0.09l29.92-93.55l0.51 0.02c58.13 15.79 91.38 62.38 100.19 76.28c0.34 0.53 0.56 1.13 0.65 1.75c0.09 0.62 0.05 1.26-0.12 1.86c-0.17 0.61-0.46 1.17-0.86 1.65c-0.4 0.48-0.9 0.88-1.46 1.16l-82.43 41.2c-0.16 0.08-0.32 0.15-0.48 0.21c-0.16 0.06-0.33 0.11-0.5 0.15c-0.17 0.04-0.34 0.07-0.52 0.09c-0.17 0.02-0.35 0.03-0.52 0.03l-0.02 0.01l0 0z" />
	<path id="Layer" class="s0" d="m183.98 274.46c-4.42 0-8-3.58-8-8c0-4.42 3.58-8 8-8c4.42 0 8 3.58 8 8c0 4.42-3.58 8-8 8z" />
	<path id="Layer" class="s3" d="m130.29 256.55c-0.18 0-0.36-0.01-0.55-0.03c-0.18-0.02-0.36-0.06-0.54-0.1c-0.18-0.04-0.35-0.1-0.52-0.16c-0.17-0.07-0.34-0.14-0.5-0.23l-81.95-43.23c-0.54-0.29-1.02-0.68-1.41-1.16c-0.39-0.48-0.67-1.03-0.83-1.62c-0.16-0.59-0.2-1.21-0.12-1.82c0.09-0.61 0.29-1.19 0.62-1.72c2.73-4.38 5.65-8.64 8.74-12.76c3.09-4.13 6.36-8.12 9.79-11.97c3.43-3.85 7.03-7.55 10.78-11.1c3.75-3.54 7.65-6.93 11.68-10.14c28.3-22.43 60.49-33.68 95.68-33.5c3.29 0.01 6.59 0.14 9.87 0.37c3.29 0.23 6.57 0.56 9.83 1.01c3.26 0.44 6.51 0.99 9.74 1.64c3.23 0.65 6.44 1.41 9.62 2.27l0.5 0.14l-29.93 93.54l-0.42-0.06c-0.67-0.1-1.35-0.19-2.03-0.27c-0.68-0.08-1.35-0.15-2.03-0.21c-0.68-0.06-1.36-0.11-2.04-0.15c-0.68-0.04-1.36-0.07-2.04-0.09c-30.45-0.86-43.65 19.88-47.91 28.83c-0.13 0.27-0.28 0.53-0.46 0.77c-0.18 0.24-0.38 0.46-0.61 0.66c-0.22 0.2-0.47 0.37-0.73 0.52c-0.26 0.15-0.53 0.27-0.82 0.36c-0.11 0.04-0.23 0.07-0.35 0.1c-0.12 0.03-0.24 0.05-0.36 0.07c-0.12 0.02-0.24 0.03-0.36 0.04c-0.12 0.01-0.24 0.01-0.36 0.01v0l0.02-0.01l0 0z" />
	<path id="Layer" class="s0" d="m220.11 132.77l-21.16 94.56c-0.69-0.21-1.39-0.41-2.09-0.59c-0.7-0.19-1.41-0.36-2.11-0.52c-0.71-0.16-1.42-0.31-2.13-0.44c-0.71-0.13-1.43-0.26-2.14-0.37l29.63-92.64h0.01h-0.01v0z" />
</svg>