<svg version="1.2" baseProfile="tiny-ps" xmlns="http://www.w3.org/2000/svg" viewBox="0 0 749 437" width="710" height="400">
	<title>pc-svg</title>
	<style>
		tspan { white-space:pre }
		.s0 { fill: #3f3d56 } 
		.s1 { fill: #ffffff } 
		.s2 { fill: #f2f2f2 } 
		.s3 { fill: #6c63ff } 
		.s4 { fill: #cccccc } 
	</style>
	<path id="Layer" class="s0" d="m692.28 0c2.31 0 4.6 0.46 6.73 1.34c2.14 0.88 4.08 2.18 5.71 3.81c1.63 1.63 2.93 3.57 3.81 5.71c0.88 2.14 1.34 4.42 1.34 6.73v356.25c0 2.31-0.46 4.6-1.34 6.73c-0.88 2.14-2.18 4.08-3.81 5.71c-1.63 1.63-3.57 2.93-5.71 3.81c-2.14 0.88-4.42 1.34-6.73 1.34h-639.38c-2.31 0-4.6-0.46-6.73-1.34c-2.14-0.88-4.08-2.18-5.71-3.81c-1.63-1.63-2.93-3.57-3.81-5.71c-0.88-2.14-1.34-4.42-1.34-6.73v-356.25c0-2.31 0.46-4.6 1.34-6.73c0.88-2.14 2.18-4.08 3.81-5.71c1.63-1.63 3.57-2.93 5.71-3.81c2.14-0.88 4.42-1.34 6.73-1.34h639.38v0v0z" />
	<path id="Layer" class="s1" d="m58.89 31.1h627.39v353.91h-627.39v-353.91l0 0z" />
	<path id="Layer" class="s1" d="m372.05 21.45c-3.56 0-6.43-2.88-6.43-6.43c0-3.56 2.88-6.43 6.43-6.43c3.56 0 6.43 2.88 6.43 6.43c0 3.56-2.88 6.43-6.43 6.43z" />
	<path id="Layer" class="s2" d="m506.86 385.01h-447.97v-353.91l447.97 353.91v0z" />
	<path id="Layer" class="s3" d="m157.06 358.53c-33.35 0-60.31-26.96-60.31-60.31c0-33.35 26.96-60.31 60.31-60.31c33.35 0 60.31 26.96 60.31 60.31c0 33.35-26.96 60.31-60.31 60.31z" />
	<path id="Layer" fill-rule="evenodd" class="s0" d="m101.18 297.24c-11.61-28.03-5.19-60.3 16.26-81.75c21.45-21.45 53.72-27.87 81.75-16.26c28.03 11.61 46.31 38.96 46.31 69.31c0 9.85-1.94 19.61-5.71 28.71c-3.77 9.1-9.3 17.37-16.26 24.34c-6.97 6.97-15.24 12.49-24.34 16.26c-9.1 3.77-18.86 5.71-28.71 5.71c-30.34 0-57.69-18.28-69.31-46.31l0.01-0.01zm69.31-102.74c-29.94 0-56.94 18.04-68.4 45.7c-11.46 27.67-5.13 59.51 16.05 80.68c21.17 21.17 53.02 27.51 80.68 16.05c27.67-11.46 45.7-38.46 45.7-68.4c0-9.72-1.91-19.35-5.64-28.33c-3.72-8.98-9.17-17.14-16.05-24.02c-6.87-6.87-15.04-12.33-24.02-16.05c-8.98-3.72-18.61-5.64-28.33-5.64l0.01 0.01z" />
	<path id="Layer" class="s0" d="m482.44 214.97h58.61v12.25h-58.61v-12.25z" />
	<path id="Layer" class="s0" d="m426.99 148.63h169.5v5.25h-169.5v-5.25z" />
	<path id="Layer" class="s0" d="m426.99 169.25h169.5v5.25h-169.5v-5.25z" />
	<path id="Layer" class="s0" d="m426.99 189.87h169.5v5.25h-169.5v-5.25z" />
	<path id="Layer" class="s3" d="m617.4 52.28h24.49v24.49h-24.49v-24.49z" />
	<path id="Layer" fill-rule="evenodd" class="s4" d="m653.26 88.14h-29.74v-29.74h29.74v29.74zm-28.45-1.29h27.15v-27.15h-27.15v27.15z" />
	<path id="Layer" class="s0" d="m727.49 378.58c2.76 0 5.49 0.54 8.03 1.6c2.55 1.05 4.86 2.6 6.81 4.55c1.95 1.95 3.5 4.26 4.55 6.81c1.05 2.55 1.6 5.28 1.6 8.03v9.49c0 2.76-0.54 5.49-1.6 8.03c-1.05 2.55-2.6 4.86-4.55 6.81c-1.95 1.95-4.26 3.5-6.81 4.55c-2.55 1.05-5.28 1.6-8.03 1.6h-698.01c-2.76 0-5.49-0.54-8.03-1.6c-2.55-1.05-4.86-2.6-6.81-4.55c-1.95-1.95-3.5-4.26-4.55-6.81c-1.05-2.55-1.6-5.28-1.6-8.03v-9.49c0-2.76 0.54-5.49 1.6-8.03c1.05-2.55 2.6-4.86 4.55-6.81c1.95-1.95 4.26-3.5 6.81-4.55c2.55-1.05 5.28-1.6 8.03-1.6h40.24v-4.41v0c0-0.11 0.02-0.23 0.07-0.33c0.04-0.11 0.11-0.2 0.19-0.28c0.08-0.08 0.18-0.15 0.28-0.19c0.11-0.04 0.22-0.07 0.33-0.07h20.99c0.11 0 0.23 0.02 0.33 0.07c0.11 0.04 0.2 0.11 0.28 0.19c0.08 0.08 0.15 0.18 0.19 0.28c0.04 0.11 0.07 0.22 0.07 0.33v4.41h13.12v-4.41c0-0.11 0.02-0.23 0.07-0.33c0.04-0.11 0.11-0.2 0.19-0.28c0.08-0.08 0.18-0.15 0.28-0.19c0.11-0.04 0.22-0.07 0.33-0.07h20.99c0.11 0 0.23 0.02 0.33 0.07c0.11 0.04 0.2 0.11 0.28 0.19c0.08 0.08 0.15 0.18 0.19 0.28c0.04 0.11 0.07 0.22 0.07 0.33v4.41h13.12v-4.41v0c0-0.11 0.02-0.23 0.07-0.33c0.04-0.11 0.11-0.2 0.19-0.28c0.08-0.08 0.18-0.15 0.28-0.19c0.11-0.04 0.22-0.07 0.33-0.07h20.99c0.11 0 0.23 0.02 0.33 0.07c0.11 0.04 0.2 0.11 0.28 0.19c0.08 0.08 0.15 0.18 0.19 0.28c0.04 0.11 0.07 0.22 0.07 0.33v4.41h13.12v-4.41v0c0-0.11 0.02-0.23 0.07-0.33c0.04-0.11 0.11-0.2 0.19-0.28c0.08-0.08 0.18-0.15 0.28-0.19c0.11-0.04 0.22-0.07 0.33-0.07h20.99c0.11 0 0.23 0.02 0.33 0.07c0.11 0.04 0.2 0.11 0.28 0.19c0.08 0.08 0.15 0.18 0.19 0.28c0.04 0.11 0.07 0.22 0.07 0.33v4.41h13.12v-4.41v0c0-0.11 0.02-0.23 0.07-0.33c0.04-0.11 0.11-0.2 0.19-0.28c0.08-0.08 0.18-0.15 0.28-0.19c0.11-0.04 0.22-0.07 0.33-0.07h20.99c0.11 0 0.23 0.02 0.33 0.07c0.11 0.04 0.2 0.11 0.28 0.19c0.08 0.08 0.15 0.18 0.19 0.28c0.04 0.11 0.07 0.22 0.07 0.33v4.41h13.12v-4.41v0c0-0.11 0.02-0.23 0.07-0.33c0.04-0.11 0.11-0.2 0.19-0.28c0.08-0.08 0.18-0.15 0.28-0.19c0.11-0.04 0.22-0.07 0.33-0.07h20.99c0.11 0 0.23 0.02 0.33 0.07c0.11 0.04 0.2 0.11 0.28 0.19c0.08 0.08 0.15 0.18 0.19 0.28c0.04 0.11 0.07 0.22 0.07 0.33v4.41h13.12v-4.41v0c0-0.11 0.02-0.23 0.07-0.33c0.04-0.11 0.11-0.2 0.19-0.28c0.08-0.08 0.18-0.15 0.28-0.19c0.11-0.04 0.22-0.07 0.33-0.07h164.44c0.11 0 0.23 0.02 0.33 0.07c0.11 0.04 0.2 0.11 0.28 0.19c0.08 0.08 0.15 0.18 0.19 0.28c0.04 0.11 0.07 0.22 0.07 0.33v4.41h13.12v-4.41v0c0-0.11 0.02-0.23 0.07-0.33c0.04-0.11 0.11-0.2 0.19-0.28c0.08-0.08 0.18-0.15 0.28-0.19c0.11-0.04 0.22-0.07 0.33-0.07h20.99c0.11 0 0.23 0.02 0.33 0.07c0.11 0.04 0.2 0.11 0.28 0.19c0.08 0.08 0.15 0.18 0.19 0.28c0.04 0.11 0.07 0.22 0.07 0.33v4.41h13.12v-4.41v0c0-0.11 0.02-0.23 0.07-0.33c0.04-0.11 0.11-0.2 0.19-0.28c0.08-0.08 0.18-0.15 0.28-0.19c0.11-0.04 0.22-0.07 0.33-0.07h20.99c0.11 0 0.23 0.02 0.33 0.07c0.11 0.04 0.2 0.11 0.28 0.19c0.08 0.08 0.15 0.18 0.19 0.28c0.04 0.11 0.07 0.22 0.07 0.33v4.41h13.12v-4.41c0-0.11 0.02-0.23 0.07-0.33c0.04-0.11 0.11-0.2 0.19-0.28c0.08-0.08 0.18-0.15 0.28-0.19c0.11-0.04 0.22-0.07 0.33-0.07h20.99c0.11 0 0.23 0.02 0.33 0.07c0.11 0.04 0.2 0.11 0.28 0.19c0.08 0.08 0.15 0.18 0.19 0.28c0.04 0.11 0.07 0.22 0.07 0.33v4.41h13.12v-4.41v0c0-0.11 0.02-0.23 0.07-0.33c0.04-0.11 0.11-0.2 0.19-0.28c0.08-0.08 0.18-0.15 0.28-0.19c0.11-0.04 0.22-0.07 0.33-0.07h20.99c0.11 0 0.23 0.02 0.33 0.07c0.11 0.04 0.2 0.11 0.28 0.19c0.08 0.08 0.15 0.18 0.19 0.28c0.04 0.11 0.07 0.22 0.07 0.33v4.41h13.12v-4.41v0c0-0.11 0.02-0.23 0.07-0.33c0.04-0.11 0.11-0.2 0.19-0.28c0.08-0.08 0.18-0.15 0.28-0.19c0.11-0.04 0.22-0.07 0.33-0.07h20.99c0.11 0 0.23 0.02 0.33 0.07c0.11 0.04 0.2 0.11 0.28 0.19c0.08 0.08 0.15 0.18 0.19 0.28c0.04 0.11 0.07 0.22 0.07 0.33v4.41h13.12v-4.41c0-0.11 0.02-0.23 0.07-0.33c0.04-0.11 0.11-0.2 0.19-0.28c0.08-0.08 0.18-0.15 0.28-0.19c0.11-0.04 0.22-0.07 0.33-0.07h20.99c0.11 0 0.23 0.02 0.33 0.07c0.11 0.04 0.2 0.11 0.28 0.19c0.08 0.08 0.15 0.18 0.19 0.28c0.04 0.11 0.07 0.22 0.07 0.33v4.41h61.23v0h0.16z" />
</svg>