<svg version="1.2" baseProfile="tiny-ps" xmlns="http://www.w3.org/2000/svg" viewBox="0 0 1058 748" width="400" height="283">
	<title>sync-svg</title>
	<style>
		tspan { white-space:pre }
		.s0 { fill: #e4e4e4 } 
		.s1 { fill: #3f3d56 } 
		.s2 { fill: #ffffff } 
		.s3 { fill: #6c63ff } 
	</style>
	<path id="Layer" class="s0" d="m449.47 318.91c-0.42-0.31-0.83-0.62-1.23-0.93c-0.41-0.32-0.81-0.64-1.2-0.97c-0.4-0.33-0.79-0.67-1.17-1.01c-0.39-0.34-0.77-0.69-1.14-1.04l2.06-2.18c0.35 0.33 0.71 0.66 1.08 0.98c0.36 0.32 0.73 0.64 1.1 0.95c0.37 0.31 0.75 0.62 1.13 0.91c0.38 0.3 0.77 0.59 1.16 0.88l-1.78 2.42z" />
	<path id="Layer" class="s0" d="m436.46 304.88c-0.57-0.92-1.12-1.87-1.63-2.83c-0.51-0.96-1-1.93-1.45-2.93c-0.45-0.99-0.87-2-1.26-3.01c-0.39-1.02-0.74-2.05-1.06-3.09l2.87-0.88c0.3 0.98 0.63 1.95 1 2.9c0.36 0.96 0.76 1.9 1.18 2.83c0.42 0.93 0.88 1.85 1.36 2.75c0.48 0.9 1 1.79 1.54 2.66l-2.55 1.58zm-7.6-24.68c-0.03-0.71-0.04-1.42-0.04-2.13c0-0.91 0.02-1.82 0.07-2.73c0.05-0.91 0.12-1.82 0.22-2.72c0.1-0.91 0.22-1.81 0.37-2.71c0.15-0.9 0.32-1.79 0.51-2.68l2.93 0.64c-0.18 0.84-0.34 1.68-0.48 2.52c-0.14 0.85-0.25 1.69-0.34 2.55c-0.09 0.85-0.16 1.71-0.21 2.56c-0.05 0.86-0.07 1.71-0.07 2.57c0 0.67 0.01 1.34 0.04 2l-3 0.13zm8.21-23.85l-2.67-1.37c0.31-0.6 0.63-1.2 0.96-1.78c0.33-0.59 0.68-1.17 1.03-1.74c0.36-0.57 0.72-1.14 1.1-1.7c0.38-0.56 0.77-1.11 1.17-1.66c0.25-0.33 0.5-0.66 0.75-0.99c0.26-0.33 0.52-0.65 0.78-0.97c0.27-0.32 0.54-0.63 0.81-0.94c0.27-0.31 0.55-0.62 0.84-0.92l2.19 2.05c-0.26 0.28-0.52 0.56-0.78 0.85c-0.25 0.29-0.51 0.58-0.75 0.88c-0.25 0.3-0.49 0.59-0.72 0.9c-0.24 0.3-0.47 0.61-0.7 0.92c-0.38 0.51-0.74 1.03-1.1 1.56c-0.36 0.53-0.7 1.06-1.04 1.6c-0.34 0.54-0.66 1.09-0.97 1.64c-0.31 0.55-0.62 1.11-0.91 1.68h0zm16.6-17.4l-1.42-2.64c0.97-0.52 1.95-1 2.96-1.43c1-0.44 2.03-0.84 3.06-1.19c1.04-0.36 2.09-0.67 3.15-0.94c1.06-0.27 2.13-0.5 3.21-0.69l0.51 2.96c-1 0.17-1.99 0.38-2.98 0.63c-0.98 0.25-1.96 0.54-2.92 0.87c-0.96 0.33-1.91 0.7-2.84 1.1c-0.93 0.41-1.85 0.85-2.74 1.33l0 0zm35.15-0.33c-0.9-0.46-1.82-0.89-2.76-1.28c-0.94-0.39-1.89-0.74-2.86-1.05c-0.97-0.31-1.94-0.59-2.93-0.82c-0.99-0.23-1.99-0.43-2.99-0.58l0.45-2.97c1.08 0.16 2.16 0.37 3.23 0.62c1.07 0.25 2.12 0.55 3.17 0.88c1.04 0.34 2.07 0.72 3.08 1.14c1.01 0.42 2.01 0.88 2.98 1.38l-1.37 2.67z" />
	<path id="Layer" class="s0" d="m501.89 250.49c-0.25-0.41-0.5-0.81-0.77-1.21c-0.26-0.4-0.54-0.78-0.82-1.17c-0.28-0.38-0.58-0.76-0.88-1.13c-0.3-0.37-0.61-0.73-0.93-1.08l2.23-2.01c0.35 0.39 0.69 0.79 1.02 1.19c0.33 0.41 0.65 0.82 0.97 1.24c0.31 0.42 0.61 0.85 0.91 1.29c0.29 0.44 0.57 0.88 0.84 1.33l-2.57 1.55z" />
	<path id="Layer" class="s0" d="m386.89 218.58l-2.42-1.78c1.2-1.63 2.47-3.25 3.76-4.8l2.3 1.92c-1.26 1.5-2.48 3.07-3.65 4.65z" />
	<path id="Layer" class="s0" d="m535.52 215.11c-0.58-0.8-1.17-1.59-1.77-2.36c-0.61-0.78-1.23-1.54-1.87-2.29c-0.64-0.75-1.29-1.49-1.96-2.22c-0.67-0.73-1.35-1.44-2.04-2.14l2.13-2.11c0.72 0.73 1.43 1.47 2.12 2.22c0.69 0.76 1.37 1.52 2.03 2.31c0.66 0.78 1.31 1.58 1.94 2.38c0.63 0.81 1.25 1.63 1.85 2.46l-2.43 1.75zm-136.83-9.8l-2.04-2.2c0.75-0.7 1.51-1.38 2.28-2.05c0.77-0.67 1.55-1.33 2.34-1.98c0.79-0.65 1.59-1.28 2.4-1.9c0.81-0.62 1.63-1.23 2.46-1.83l1.75 2.44c-0.8 0.58-1.6 1.17-2.38 1.77c-0.78 0.6-1.56 1.22-2.33 1.84c-0.77 0.63-1.52 1.27-2.27 1.92c-0.75 0.65-1.48 1.31-2.2 1.99zm120.23-6.92c-0.8-0.59-1.6-1.16-2.42-1.72c-0.82-0.56-1.64-1.11-2.47-1.64c-0.83-0.53-1.67-1.06-2.52-1.57c-0.85-0.51-1.7-1-2.57-1.49l1.46-2.62c0.89 0.5 1.77 1.01 2.65 1.53c0.88 0.52 1.74 1.06 2.6 1.62c0.86 0.55 1.71 1.12 2.55 1.69c0.84 0.58 1.67 1.17 2.5 1.77l-1.78 2.42zm-101-6.9l-1.43-2.64c0.9-0.49 1.8-0.96 2.72-1.42c0.91-0.46 1.83-0.9 2.76-1.33c0.93-0.43 1.86-0.84 2.8-1.24c0.94-0.4 1.88-0.78 2.84-1.15l1.09 2.8c-0.92 0.36-1.84 0.73-2.75 1.12c-0.91 0.39-1.81 0.79-2.71 1.2c-0.9 0.42-1.79 0.85-2.67 1.29c-0.88 0.44-1.76 0.9-2.63 1.37h0zm80.32-4.63c-0.92-0.37-1.84-0.72-2.77-1.06c-0.93-0.34-1.86-0.67-2.8-0.98c-0.94-0.31-1.88-0.61-2.83-0.89c-0.95-0.28-1.9-0.55-2.86-0.8l0.76-2.9c0.99 0.26 1.97 0.53 2.95 0.82c0.98 0.29 1.95 0.6 2.92 0.92c0.97 0.32 1.93 0.66 2.89 1.01c0.96 0.35 1.91 0.72 2.86 1.1l-1.12 2.78zm-58.25-3.95l-0.73-2.91c0.99-0.25 1.98-0.48 2.98-0.7c1-0.22 2-0.42 3-0.6c1-0.19 2.01-0.36 3.02-0.51c1.01-0.15 2.02-0.29 3.03-0.42l0.36 2.98c-0.98 0.12-1.96 0.25-2.94 0.4c-0.98 0.15-1.95 0.31-2.93 0.49c-0.97 0.18-1.94 0.38-2.91 0.59c-0.97 0.21-1.93 0.44-2.89 0.68l0 0zm35.35-2.05c-0.98-0.13-1.96-0.24-2.95-0.34c-0.98-0.1-1.97-0.18-2.96-0.25c-0.99-0.07-1.98-0.12-2.96-0.15c-0.99-0.04-1.98-0.06-2.97-0.06l0.01-3c1.02 0 2.04 0.03 3.06 0.06c1.02 0.04 2.04 0.09 3.06 0.16c1.02 0.07 2.04 0.15 3.05 0.25c1.02 0.1 2.03 0.22 3.04 0.35l-0.39 2.97z" />
	<path id="Layer" class="s0" d="m544.09 230.58c-0.74-1.81-1.56-3.61-2.43-5.35l2.68-1.35c0.91 1.81 1.76 3.68 2.53 5.57l-2.78 1.13z" />
	<path id="Layer" class="s0" d="m552.31 406.88l-1.03-2.82c1.85-0.68 3.71-1.4 5.54-2.15l1.14 2.77c-1.86 0.77-3.76 1.5-5.65 2.19z" />
	<path id="Layer" class="s0" d="m505.54 416.04l-0.11-3c3.89-0.14 7.83-0.44 11.69-0.89l0.34 2.98c-3.94 0.46-7.96 0.76-11.93 0.9zm-11.96-0.04c-3.97-0.17-7.99-0.5-11.92-0.98l0.36-2.98c3.86 0.47 7.79 0.79 11.69 0.96l-0.13 3zm35.71-2.71l-0.58-2.94c3.82-0.75 7.66-1.66 11.41-2.7l0.81 2.89c-3.83 1.07-7.74 2-11.64 2.76v0zm-59.44-0.19c-3.89-0.79-7.8-1.75-11.62-2.85l0.83-2.88c3.74 1.08 7.57 2.01 11.39 2.79l-0.6 2.94zm-22.98-6.61c-3.72-1.4-7.43-2.96-11.02-4.65l1.28-2.71c3.52 1.66 7.16 3.19 10.8 4.56l-1.06 2.81zm-21.64-10.16c-3.44-1.96-6.85-4.09-10.15-6.33l1.69-2.48c3.23 2.19 6.58 4.28 9.95 6.2l-1.49 2.61z" />
	<path id="Layer" class="s0" d="m405.43 384.86c-1.56-1.28-3.12-2.61-4.61-3.96l2.01-2.23c1.46 1.31 2.97 2.61 4.5 3.86l-1.9 2.32z" />
	<path id="Layer" class="s0" d="m322.38 80.37l-1.54-2.57c1.72-1.03 3.48-2.05 5.22-3.03l1.47 2.61c-1.72 0.97-3.45 1.98-5.15 3z" />
	<path id="Layer" class="s0" d="m611.18 121.34c-2.57-2.99-5.28-5.95-8.04-8.78l2.15-2.1c2.81 2.88 5.56 5.88 8.17 8.92l-2.28 1.95zm-16.63-17.02c-2.93-2.64-5.99-5.22-9.1-7.68l1.86-2.35c3.15 2.5 6.26 5.12 9.24 7.8l-2.01 2.23zm-18.66-14.79c-3.24-2.28-6.58-4.5-9.92-6.6l1.6-2.54c3.38 2.13 6.76 4.38 10.05 6.69l-1.72 2.46zm-20.17-12.69c-3.45-1.93-7-3.8-10.54-5.56l1.33-2.69c3.59 1.78 7.18 3.67 10.68 5.63l-1.47 2.62zm-217.66-5.06l-1.34-2.68c3.59-1.79 7.27-3.51 10.95-5.11l1.2 2.75c-3.63 1.58-7.26 3.28-10.81 5.04l0 0zm196.3-5.51c-3.63-1.57-7.35-3.07-11.06-4.45l1.05-2.81c3.75 1.4 7.52 2.91 11.2 4.5l-1.19 2.75zm-174.45-4.02l-1.06-2.81c3.75-1.41 7.59-2.74 11.41-3.96l0.91 2.86c-3.78 1.2-7.57 2.52-11.26 3.91l0 0zm152.12-4.29c-3.77-1.19-7.63-2.29-11.46-3.28l0.75-2.9c3.88 1 7.79 2.12 11.61 3.33l-0.9 2.86zm-129.4-2.95l-0.76-2.9c3.87-1.02 7.82-1.96 11.75-2.78l0.62 2.94c-3.88 0.81-7.78 1.74-11.6 2.75l0 0zm106.33-3.02c-3.87-0.79-7.82-1.5-11.74-2.09l0.45-2.97c3.97 0.6 7.97 1.31 11.89 2.11l-0.6 2.94zm-83-1.87l-0.47-2.96c3.96-0.62 7.98-1.15 11.97-1.57l0.31 2.98c-3.94 0.42-7.92 0.94-11.82 1.55l0 0zm59.44-1.7c-3.93-0.39-7.93-0.69-11.89-0.88l0.14-3c4.01 0.19 8.06 0.49 12.04 0.89l-0.3 2.99zm-35.73-0.8l-0.16-3c4.01-0.22 8.07-0.33 12.07-0.35l0.01 3c-3.95 0.01-7.96 0.13-11.92 0.34l0 0z" />
	<path id="Layer" class="s0" d="m622.18 135.49c-1.14-1.62-2.31-3.24-3.5-4.81l2.4-1.8c1.2 1.6 2.4 3.25 3.55 4.89l-2.46 1.72z" />
	<path id="Layer" class="s0" d="m485.57 620.64c-1.99-0.26-3.98-0.53-5.97-0.82l0.43-2.97c1.97 0.29 3.94 0.56 5.92 0.81l-0.38 2.98z" />
	<path id="Layer" class="s0" d="m467.46 617.85c-4.02-0.72-8.07-1.52-12.07-2.38l0.63-2.93c3.96 0.85 7.98 1.64 11.97 2.36l-0.53 2.95zm-24.04-5.16c-3.97-0.99-7.96-2.06-11.88-3.18l0.83-2.88c3.88 1.11 7.85 2.17 11.78 3.16l-0.73 2.91zm-23.64-6.76c-3.89-1.26-7.81-2.59-11.64-3.98l1.02-2.82c3.8 1.37 7.68 2.7 11.54 3.94l-0.92 2.85zm-23.13-8.34c-3.79-1.51-7.6-3.11-11.34-4.75l1.21-2.75c3.71 1.63 7.49 3.21 11.25 4.71l-1.11 2.79zm-22.52-9.88c-3.68-1.76-7.38-3.61-11-5.5l1.39-2.66c3.59 1.87 7.26 3.71 10.91 5.46l-1.3 2.71zm-21.8-11.37c-3.54-2-7.11-4.09-10.6-6.22l1.56-2.56c3.47 2.11 7.01 4.19 10.52 6.17l-1.48 2.61zm-20.99-12.79c-3.41-2.24-6.83-4.56-10.17-6.91l1.73-2.45c3.31 2.33 6.7 4.64 10.09 6.86l-1.65 2.51zm-20.11-14.17c-3.26-2.48-6.51-5.05-9.65-7.64l1.91-2.31c3.11 2.57 6.32 5.12 9.55 7.57l-1.81 2.39zm-18.98-15.68c-3.04-2.73-6.06-5.56-8.98-8.42l2.1-2.15c2.89 2.82 5.88 5.63 8.89 8.33l-2.01 2.23zm-17.61-17.2c-2.8-2.98-5.58-6.05-8.25-9.14l2.27-1.96c2.64 3.06 5.39 6.1 8.16 9.05l-2.18 2.06zm-16.1-18.62c-2.54-3.2-5.05-6.5-7.45-9.8l2.43-1.76c2.38 3.27 4.86 6.53 7.37 9.7l-2.35 1.87z" />
	<path id="Layer" class="s0" d="m244.01 477.92c-1.11-1.68-2.21-3.36-3.28-5.05l2.53-1.61c1.07 1.68 2.15 3.34 3.25 5l-2.5 1.66z" />
	<path id="Layer" class="s1" d="m354.66 130.38l-2.24 0.69l71.19 231.22l0 0c1.43 4.66 1.94 9.55 1.48 14.4c-0.46 4.85-1.87 9.56-4.14 13.87c-2.28 4.31-5.38 8.12-9.14 11.23c-3.75 3.11-8.08 5.44-12.74 6.88l-129.79 39.96l0 0c-4.66 1.43-9.55 1.94-14.4 1.48c-4.85-0.46-9.56-1.87-13.87-4.14c-4.31-2.28-8.12-5.38-11.23-9.14c-3.11-3.75-5.44-8.08-6.88-12.74l-103.48-336.09l0 0c-1.43-4.66-1.94-9.55-1.48-14.4c0.46-4.85 1.87-9.56 4.14-13.87c2.28-4.31 5.38-8.12 9.14-11.23c3.75-3.11 8.08-5.44 12.74-6.88l129.79-39.96h0c4.66-1.43 9.55-1.94 14.4-1.48c4.85 0.46 9.56 1.87 13.87 4.14c4.31 2.28 8.12 5.38 11.23 9.14c3.11 3.75 5.44 8.08 6.88 12.74l18.86 61.26l2.24-0.69l13.43 43.61z" />
	<path id="Layer" class="s2" d="m288.79 9.33c3.62 0.34 7.14 1.39 10.36 3.1c3.22 1.7 6.06 4.02 8.38 6.82c2.32 2.8 4.06 6.04 5.14 9.51l103.32 335.6v0c1.07 3.48 1.45 7.13 1.1 10.75c-0.34 3.62-1.39 7.14-3.1 10.36c-1.7 3.22-4.02 6.06-6.82 8.38c-2.8 2.32-6.04 4.06-9.51 5.14l-130.42 40.15h0c-3.48 1.07-7.13 1.45-10.75 1.1c-3.62-0.34-7.14-1.39-10.36-3.1c-3.22-1.7-6.06-4.02-8.38-6.82c-2.32-2.8-4.06-6.04-5.14-9.51l-103.32-335.6c-1.07-3.48-1.45-7.13-1.1-10.75c0.34-3.62 1.39-7.14 3.1-10.36c1.7-3.22 4.02-6.06 6.82-8.38c2.8-2.32 6.04-4.06 9.51-5.14l15.82-4.87c-0.19 2.15 0.15 4.31 0.99 6.3c0.84 1.99 2.16 3.74 3.84 5.1c1.68 1.36 3.66 2.28 5.78 2.69c2.12 0.41 4.31 0.29 6.37-0.34l74.36-22.89c2.06-0.64 3.94-1.77 5.46-3.3c1.52-1.53 2.64-3.41 3.27-5.48c0.62-2.07 0.73-4.25 0.31-6.37c-0.42-2.12-1.36-4.1-2.72-5.77l16.94-5.22c3.48-1.07 7.13-1.45 10.75-1.1z" />
	<path id="Layer" class="s1" d="m803.14 743.15l-304.47-109.45c-3.57-1.29-6.86-3.27-9.66-5.82c-2.81-2.56-5.09-5.64-6.71-9.07c-1.62-3.44-2.55-7.15-2.73-10.95c-0.18-3.79 0.38-7.58 1.66-11.16l158.72-441.56c1.29-3.57 3.27-6.86 5.82-9.66c2.56-2.81 5.64-5.09 9.07-6.71c3.44-1.62 7.15-2.55 10.95-2.73c3.79-0.18 7.58 0.38 11.16 1.66l304.47 109.45c3.57 1.29 6.86 3.27 9.66 5.82c2.81 2.56 5.09 5.64 6.71 9.07c1.62 3.44 2.55 7.15 2.73 10.95c0.18 3.79-0.38 7.58-1.66 11.16l-158.72 441.56c-1.29 3.57-3.27 6.86-5.82 9.66c-2.56 2.81-5.64 5.09-9.07 6.71c-3.44 1.62-7.15 2.55-10.95 2.73c-3.79 0.18-7.58-0.38-11.16-1.66h0z" />
	<path id="Layer" class="s2" d="m809.92 725.97l-305.55-109.83c-1.1-0.4-2.11-1.01-2.98-1.79c-0.87-0.79-1.57-1.74-2.07-2.8c-0.5-1.06-0.78-2.21-0.84-3.37c-0.06-1.17 0.12-2.34 0.51-3.44l159.77-444.48c0.4-1.1 1.01-2.11 1.79-2.98c0.79-0.87 1.74-1.57 2.8-2.07c1.06-0.5 2.21-0.78 3.37-0.84c1.17-0.06 2.34 0.12 3.44 0.51l305.55 109.83c1.1 0.4 2.11 1.01 2.98 1.79c0.87 0.79 1.57 1.74 2.07 2.8c0.5 1.06 0.78 2.21 0.84 3.37c0.06 1.17-0.12 2.34-0.51 3.44l-159.77 444.48c-0.4 1.1-1.01 2.11-1.79 2.98c-0.79 0.87-1.74 1.57-2.8 2.07c-1.06 0.5-2.21 0.78-3.37 0.84c-1.17 0.06-2.34-0.12-3.44-0.51h0z" />
	<path id="Layer" class="s2" d="m825.04 202.81c-1.36 0-2.46-1.1-2.46-2.46c0-1.36 1.1-2.46 2.46-2.46c1.36 0 2.46 1.1 2.46 2.46c0 1.36-1.1 2.46-2.46 2.46z" />
	<path id="Layer" class="s3" d="m319.27 267.61c-25.98 25.98-67.99 25.98-93.97 0c-25.98-25.98-25.98-67.99 0-93.97c25.98-25.98 67.99-25.98 93.97 0c25.98 25.98 25.98 67.99 0 93.97z" />
	<path id="Layer" class="s2" d="m279.25 252.33l-32.89-22.31l2.87-4.23l27.23 18.47l19.68-61.56l4.87 1.56l-21.76 68.08v0z" />
	<path id="Layer" class="s3" d="m799.8 494.13c-32.91 32.91-86.11 32.91-119.02 0c-32.91-32.91-32.91-86.11 0-119.02c32.91-32.91 86.11-32.91 119.02 0c32.91 32.91 32.91 86.11 0 119.02z" />
	<path id="Layer" class="s2" d="m719.99 470.38l-12.09-48.86l6.29-1.55l10.01 40.46l70.67-41.32l3.27 5.59l-78.14 45.7v0z" />
</svg>