<svg version="1.2" baseProfile="tiny-ps" xmlns="http://www.w3.org/2000/svg" viewBox="0 0 400 498" width="350" height="500">
	<title>watch-svg</title>
	<style>
		tspan { white-space:pre }
		.s0 { fill: #cccccc } 
		.s1 { fill: #e6e6e6 } 
		.s2 { fill: #3f3d56 } 
		.s3 { fill: #6c63ff } 
		.s4 { opacity: .2;fill: #000000 } 
		.s5 { fill: #ffffff } 
		.s6 { opacity: .3;fill: #000000 } 
		.s7 { opacity: .2;fill: #ffffff } 
	</style>
	<path id="Layer" class="s0" d="m142.03 473.12c-37.7 0-70.96-33.26-70.96-33.26c0 0-35.48-57.66-51-128.62c-15.52-70.96 4.43-177.4 4.43-177.4c75.4-177.4 170.75-79.83 170.75-79.83c-39.92 26.61-62.09 99.79-62.09 99.79c0 0 4.44-13.31-8.87 117.53c-13.31 130.83 79.83 177.4 79.83 177.4c0 0-24.39 24.39-62.09 24.39z" />
	<path id="Layer" class="s1" d="m358.24 370.01c0 0-53.22 141.92-219.53 115.31c-166.31-26.61-121.96-314.89-121.96-314.89c0 0-18.58 215.05 78.65 278.29c26.94 17.52 62.13 17.68 87.87-1.57c17.05-12.76 31.67-35.01 29.73-73.82l145.25-3.33z" />
	<path id="Layer" class="s1" d="m217.43 98.24l-4.43-10.97c-63.36-97.47-122.94-51-150.27-19.17c-3.14 3.68-5.99 7.6-8.51 11.73c-2.52 4.13-4.7 8.46-6.53 12.94c-1.83 4.48-3.29 9.1-4.38 13.81c-1.09 4.71-1.8 9.51-2.12 14.34c-0.02 0.24-0.03 0.48-0.05 0.72c-1.59 24.03 6.58 39.93 54.33 29.94c47.68-9.98 63.2-56.55 63.2-56.55c0 0 11 19.69 5.54 54.33c-31.08 197.26-163.09 200.25-150.83 15.23c0 0-1.89-111.59 99.83-154.93c164.1-46.57 239.85 90.33 239.85 90.33c-57.3 19.37-135.63-1.75-135.63-1.75z" />
	<path id="Layer" class="s2" d="m339.08 96.14c7.17 0.01 14.28 1.43 20.9 4.18c6.63 2.75 12.65 6.77 17.72 11.85c5.07 5.07 9.1 11.09 11.85 17.72c2.75 6.63 4.17 13.73 4.18 20.9v182.73c-0.01 7.12-1.42 14.17-4.14 20.74c-2.73 6.58-6.72 12.55-11.76 17.58c-5.03 5.03-11.01 9.03-17.58 11.76c-6.58 2.73-13.62 4.14-20.74 4.14h-107.01c-5.91-0.01-11.76-1.18-17.21-3.44c-5.46-2.26-10.41-5.58-14.59-9.76c-4.18-4.18-7.49-9.13-9.76-14.59c-2.26-5.46-3.43-11.3-3.44-17.21v-203.39c0.01-5.67 1.13-11.29 3.3-16.53c2.17-5.24 5.36-10 9.37-14.01c4.01-4.01 8.77-7.2 14.01-9.37c5.24-2.17 10.86-3.3 16.53-3.3l108.36 0z" />
	<path id="Layer" class="s3" d="m356.51 105.01c5.32 0.01 10.59 1.06 15.51 3.1c4.92 2.04 9.38 5.03 13.15 8.79c3.76 3.76 6.75 8.23 8.79 13.15c2.04 4.92 3.09 10.19 3.1 15.51v188.41c-0.01 6.04-1.2 12.02-3.52 17.6c-2.32 5.58-5.7 10.65-9.98 14.92c-4.27 4.27-9.34 7.66-14.92 9.98c-5.58 2.32-11.56 3.51-17.6 3.52h-101.76c-3.02 0-6-0.6-8.79-1.76c-2.79-1.16-5.32-2.85-7.45-4.98c-2.13-2.13-3.82-4.66-4.98-7.45c-1.16-2.79-1.75-5.77-1.76-8.79v-229.03c0-3.02 0.6-6 1.76-8.79c1.16-2.79 2.85-5.32 4.98-7.45c2.13-2.13 4.66-3.82 7.45-4.98c2.79-1.16 5.77-1.75 8.79-1.76h107.24z" />
	<path id="Layer" class="s4" d="m245.52 106.29c-1.43 1.06-2.73 2.29-3.87 3.65c-1.14 1.36-2.13 2.85-2.92 4.44c-0.8 1.59-1.41 3.27-1.82 5c-0.41 1.73-0.62 3.5-0.62 5.28v229.03c0 3.02 0.6 6 1.76 8.79c1.16 2.79 2.85 5.32 4.98 7.45c2.13 2.13 4.66 3.82 7.45 4.98c2.79 1.16 5.77 1.75 8.79 1.76h101.76c0.96 0 1.93-0.04 2.89-0.1c0.96-0.06 1.92-0.16 2.88-0.28c0.96-0.13 1.91-0.28 2.85-0.47c0.95-0.19 1.89-0.4 2.82-0.64c-1.71 0.97-3.48 1.82-5.3 2.56c-1.82 0.74-3.68 1.36-5.58 1.86c-1.9 0.5-3.83 0.88-5.77 1.13c-1.95 0.25-3.91 0.38-5.87 0.38h-101.76c-3.02 0-6-0.6-8.79-1.76c-2.79-1.16-5.32-2.85-7.45-4.98c-2.13-2.13-3.82-4.66-4.98-7.45c-1.16-2.79-1.75-5.77-1.76-8.79v-229.03c0-2.79 0.52-5.56 1.51-8.17c1-2.61 2.46-5.01 4.32-7.1c1.86-2.08 4.08-3.81 6.56-5.1c2.48-1.29 5.17-2.11 7.94-2.44l0 0z" />
	<path id="Layer" class="s3" d="m195.26 215.89c-12.26 0-22.18-12.39-22.18-27.72c0-15.33 9.91-27.72 22.18-27.72c12.26 0 22.18 12.39 22.18 27.72c0 15.33-9.91 27.72-22.18 27.72z" />
	<path id="Layer" class="s4" d="m210.78 188.17c0-13.41-7.62-24.59-17.74-27.16c0.36-0.09 0.73-0.17 1.09-0.24c0.37-0.07 0.74-0.13 1.11-0.17c0.37-0.05 0.74-0.08 1.12-0.1c0.37-0.02 0.75-0.04 1.12-0.04c12.25 0 22.18 12.41 22.18 27.72c0 15.31-9.93 27.72-22.18 27.72c-0.37 0-0.75-0.01-1.12-0.04c-0.37-0.02-0.74-0.06-1.12-0.1c-0.37-0.05-0.74-0.1-1.11-0.17c-0.37-0.07-0.73-0.15-1.09-0.24c10.12-2.57 17.74-13.75 17.74-27.16z" />
	<path id="Layer" class="s3" d="m190.82 259.13c0-2.06 0.82-4.03 2.27-5.49c1.46-1.46 3.43-2.27 5.49-2.27c2.06 0 4.03 0.82 5.49 2.27c1.46 1.46 2.27 3.43 2.27 5.49v57.66c0 2.06-0.82 4.03-2.27 5.49c-1.46 1.46-3.43 2.27-5.49 2.27c-2.06 0-4.03-0.82-5.49-2.27c-1.46-1.46-2.27-3.43-2.27-5.49v-57.66h0z" />
	<path id="Layer" class="s4" d="m203.02 316.79v-57.66c0-0.83-0.14-1.65-0.4-2.43c-0.26-0.78-0.65-1.52-1.15-2.18c-0.5-0.66-1.1-1.24-1.77-1.71c-0.68-0.47-1.43-0.83-2.22-1.07c0.18-0.06 0.36-0.11 0.54-0.15c0.18-0.04 0.37-0.08 0.55-0.11c0.19-0.03 0.37-0.05 0.56-0.07c0.19-0.02 0.37-0.03 0.56-0.03c1.02 0 2.03 0.2 2.97 0.59c0.94 0.39 1.8 0.96 2.52 1.68c0.72 0.72 1.29 1.58 1.68 2.52c0.39 0.94 0.59 1.95 0.59 2.97v57.66c0 1.02-0.2 2.03-0.59 2.97c-0.39 0.94-0.96 1.8-1.68 2.52c-0.72 0.72-1.58 1.29-2.52 1.68c-0.94 0.39-1.95 0.59-2.97 0.59c-0.19 0-0.38-0.01-0.56-0.03c-0.19-0.02-0.37-0.04-0.56-0.07c-0.19-0.03-0.37-0.07-0.55-0.11c-0.18-0.04-0.36-0.09-0.54-0.15c0.79-0.24 1.54-0.6 2.22-1.07c0.68-0.47 1.28-1.05 1.77-1.71c0.5-0.66 0.88-1.4 1.15-2.18c0.26-0.78 0.4-1.61 0.4-2.43z" />
	<path id="Layer" class="s5" d="m79.94 377.77c-6.13 0-11.09-4.96-11.09-11.09c0-6.13 4.96-11.09 11.09-11.09c6.13 0 11.09 4.96 11.09 11.09c0 6.13-4.96 11.09-11.09 11.09z" />
	<path id="Layer" class="s6" d="m86.6 366.68c0-1.27-0.22-2.53-0.64-3.72c-0.43-1.19-1.05-2.31-1.86-3.29c-0.8-0.98-1.77-1.82-2.85-2.48c-1.09-0.66-2.28-1.12-3.52-1.38c3.26-0.66 6.65 0.17 9.23 2.28c2.58 2.11 4.07 5.26 4.07 8.59c0 3.33-1.5 6.48-4.07 8.59c-2.58 2.11-5.97 2.94-9.23 2.28c1.24-0.25 2.43-0.72 3.52-1.38c1.09-0.66 2.05-1.49 2.85-2.48c0.8-0.98 1.43-2.1 1.86-3.29c0.43-1.19 0.64-2.45 0.64-3.72v0z" />
	<path id="Layer" class="s5" d="m74.94 333.77c-6.13 0-11.09-4.96-11.09-11.09c0-6.13 4.96-11.09 11.09-11.09c6.13 0 11.09 4.96 11.09 11.09c0 6.13-4.96 11.09-11.09 11.09z" />
	<path id="Layer" class="s6" d="m81.6 322.68c0-1.27-0.22-2.53-0.64-3.72c-0.43-1.19-1.05-2.31-1.86-3.29c-0.8-0.98-1.77-1.82-2.85-2.48c-1.09-0.66-2.28-1.12-3.52-1.38c3.26-0.66 6.65 0.17 9.23 2.28c2.58 2.11 4.07 5.26 4.07 8.59c0 3.33-1.5 6.48-4.07 8.59c-2.58 2.11-5.97 2.94-9.23 2.28c1.24-0.25 2.43-0.72 3.52-1.38c1.09-0.66 2.05-1.49 2.85-2.48c0.8-0.98 1.43-2.1 1.86-3.29c0.43-1.19 0.64-2.45 0.64-3.72v0z" />
	<path id="Layer" class="s5" d="m86.6 131.62c-6.13 0-11.09-4.96-11.09-11.09c0-6.13 4.96-11.09 11.09-11.09c6.13 0 11.09 4.96 11.09 11.09c0 6.13-4.96 11.09-11.09 11.09z" />
	<path id="Layer" class="s6" d="m93.25 120.54c0-1.27-0.22-2.53-0.64-3.72c-0.43-1.19-1.05-2.31-1.86-3.29c-0.8-0.98-1.77-1.82-2.85-2.48c-1.09-0.66-2.28-1.12-3.52-1.38c3.26-0.66 6.65 0.17 9.23 2.28c2.58 2.11 4.07 5.26 4.07 8.59c0 3.33-1.5 6.48-4.07 8.59c-2.58 2.11-5.97 2.94-9.23 2.28c1.24-0.25 2.43-0.72 3.52-1.38c1.09-0.66 2.05-1.49 2.85-2.48c0.8-0.98 1.43-2.1 1.86-3.29c0.43-1.19 0.64-2.45 0.64-3.72z" />
	<path id="Layer" class="s7" d="m315.99 276.59c-12.26 0-22.18-12.39-22.18-27.72c0-15.33 9.91-27.72 22.18-27.72c12.26 0 22.18 12.39 22.18 27.72c0 15.33-9.91 27.72-22.18 27.72z" />
	<path id="Layer" class="s7" d="m315.99 300.66c-22.91 0-41.43-23.15-41.43-51.79c0-28.64 18.52-51.79 41.43-51.79c22.91 0 41.43 23.15 41.43 51.79c0 28.64-18.52 51.79-41.43 51.79z" />
	<path id="Layer" class="s7" d="m315.99 326.9c-34.52 0-62.43-34.88-62.43-78.03c0-43.15 27.9-78.03 62.43-78.03c34.52 0 62.43 34.88 62.43 78.03c0 43.15-27.9 78.03-62.43 78.03z" />
</svg>