<svg version="1.2" baseProfile="tiny-ps" xmlns="http://www.w3.org/2000/svg" viewBox="0 0 543 459" width="600" height="600">
	<title>thankyou-svg</title>
	<style>
		tspan { white-space:pre }
		.s0 { fill: #2f2e41 } 
		.s1 { fill: #ffffff } 
		.s2 { fill: #3f3d56 } 
		.s3 { fill: #e6e6e6 } 
		.s4 { fill: #6c63ff } 
		.s5 { opacity: .1;fill: #000000 } 
		.s6 { fill: #cccccc } 
	</style>
	<path id="Layer" class="s0" d="m123.49 366.19c-4.25 11.12-10.51 19.04-14 17.7c-3.49-1.33-2.88-11.4 1.37-22.53c4.25-11.12 10.51-19.04 14-17.7c3.49 1.33 2.88 11.4-1.37 22.53z" />
	<path id="Layer" class="s0" d="m119.88 403.2c-3.81 23.51-25.9 39.43-49.41 35.61c-23.51-3.81-39.43-25.9-35.61-49.41c3.81-23.51 25.9-39.43 49.41-35.61c23.51 3.81 39.43 25.9 35.61 49.41z" />
	<path id="Layer" class="s0" d="m57.75 430.1h13.08v23.44h-13.08v-23.44z" />
	<path id="Layer" class="s0" d="m83.91 430.1h13.08v23.44h-13.08v-23.44z" />
	<path id="Layer" class="s0" d="m68.65 457.9c-6.03 0-10.9-1.83-10.9-4.09c0-2.26 4.87-4.09 10.9-4.09c6.03 0 10.9 1.83 10.9 4.09c0 2.26-4.87 4.09-10.9 4.09z" />
	<path id="Layer" class="s0" d="m94.82 457.36c-6.03 0-10.9-1.83-10.9-4.09c0-2.26 4.87-4.09 10.9-4.09c6.03 0 10.9 1.83 10.9 4.09c0 2.26-4.87 4.09-10.9 4.09z" />
	<path id="Layer" class="s1" d="m78.89 400.11c-8.14 0.24-14.91-6.14-15.15-14.28c-0.24-8.14 6.14-14.91 14.28-15.15c8.14-0.24 14.91 6.14 15.15 14.28c0.24 8.14-6.14 14.91-14.28 15.15z" />
	<path id="Layer" class="s2" d="m78.46 390.3c-2.71 0-4.91-2.19-4.91-4.91c0-2.71 2.19-4.91 4.91-4.91c2.71 0 4.91 2.19 4.91 4.91c0 2.71-2.19 4.91-4.91 4.91z" />
	<path id="Layer" class="s3" d="m35.59 356.25c-3.48-15.57 7.64-31.31 24.83-35.15c17.19-3.84 33.94 5.68 37.42 21.25c3.48 15.57-7.91 21.32-25.1 25.16c-17.19 3.84-33.67 4.32-37.15-11.26z" />
	<path id="Layer" class="s0" d="m48.32 385.54c-1.6 3.38-11.59 1.98-22.35-3.12c-10.76-5.1-18.16-11.96-16.56-15.34c1.6-3.38 11.59-1.98 22.35 3.12c10.76 5.1 18.16 11.96 16.56 15.34z" />
	<path id="Layer" class="s1" d="m79.11 409.11c12.04 0 23.34-5.03 23.34-0.82c0 4.22-11.29 16.08-23.34 16.08c-12.04 0-22.9-8.32-22.9-12.54c0-4.22 10.85-2.73 22.9-2.73z" />
	<path id="Layer" class="s4" d="m380.26 279.26l-46.78 46.17l-105.72 104.32l-2.14 2.11l-11.92 11.76l-24.99-24.69l-2.2-2.17l-45.69-45.13h-0.01l-14.64-14.47l-8.65-8.55l-25.76-25.44l-3.48-3.44l-41.06-40.56c-2.04-2.04-4-4.14-5.88-6.32c-1.88-2.18-3.68-4.43-5.4-6.74c-1.72-2.31-3.35-4.68-4.89-7.11c-1.54-2.43-2.99-4.92-4.35-7.45c-0.5-0.91-0.97-1.83-1.43-2.75c-9.74-19.41-13.9-41.15-12.04-62.78c1.87-21.64 9.7-42.34 22.61-59.79c12.92-17.46 30.42-31 50.57-39.11c20.15-8.11 42.15-10.48 63.56-6.84h0.01c0.38 0.06 0.75 0.12 1.13 0.2c1 0.18 2.01 0.37 3 0.57c1 0.2 1.99 0.42 2.99 0.65c0.99 0.23 1.98 0.48 2.97 0.73c0.99 0.26 1.97 0.53 2.95 0.81c2.56 0.74 5.09 1.57 7.59 2.48c2.5 0.91 4.97 1.91 7.41 2.99c2.43 1.08 4.83 2.24 7.19 3.49c2.36 1.24 4.67 2.57 6.93 3.97c0.95 0.59 1.89 1.19 2.82 1.8c1.66 1.1 3.29 2.24 4.9 3.42c1.6 1.18 3.18 2.4 4.72 3.66c1.54 1.26 3.05 2.56 4.53 3.89c1.48 1.34 2.92 2.71 4.33 4.12l0.35-0.35l0.35 0.35c0.85-0.85 1.72-1.69 2.6-2.52c0.88-0.83 1.77-1.64 2.67-2.44c0.9-0.8 1.82-1.58 2.75-2.35c0.93-0.77 1.87-1.53 2.82-2.27c0.83-0.65 1.67-1.29 2.51-1.91c6.41-4.73 13.29-8.79 20.53-12.13c7.24-3.34 14.79-5.93 22.56-7.73c7.76-1.81 15.69-2.82 23.65-3.02c7.97-0.2 15.93 0.41 23.77 1.82c1.01 0.18 2.01 0.37 3.01 0.57c1 0.2 2 0.42 2.99 0.65c0.99 0.23 1.98 0.48 2.97 0.74c0.99 0.26 1.97 0.53 2.95 0.82c1.31 0.37 2.61 0.77 3.9 1.2c1.04 0.34 2.08 0.69 3.11 1.07c2.14 0.77 4.26 1.59 6.35 2.48c2.09 0.89 4.16 1.84 6.2 2.85c2.04 1.01 4.04 2.08 6.02 3.21c1.97 1.13 3.92 2.31 5.82 3.56c1.67 1.09 3.32 2.23 4.94 3.42c13.74 9.99 25.15 22.84 33.45 37.66c8.3 14.82 13.28 31.27 14.62 48.21c1.33 16.94-1.02 33.96-6.9 49.9c-5.88 15.94-15.14 30.41-27.16 42.43h0z" />
	<path id="Layer" class="s5" d="m333.48 325.43l-105.72 104.32l-2.14 2.11l-11.92 11.76l-24.99-24.69l-2.2-2.17l-45.69-45.13c7.34-1.71 18.62 0.64 22.75 2.68c9.79 4.83 17.84 12.76 27.78 17.28c2.2 0.99 4.48 1.81 6.81 2.45c2.33 0.64 4.71 1.09 7.11 1.36c2.4 0.27 4.82 0.34 7.23 0.23c2.41-0.11 4.81-0.42 7.18-0.91c17.82-3.74 31.61-17.52 43.77-31.08c12.16-13.57 24.59-28.13 41.68-34.42c9.01-3.32 18.69-4.07 28.35-3.79z" />
	<path id="Layer" fill-rule="evenodd" class="s2" d="m436.1 153.6c5.97 14.44 9.04 29.91 9.04 45.53c0 15.62-3.07 31.09-9.04 45.53c-5.97 14.44-14.72 27.56-25.76 38.62l-167.58 165.45l-17.09-16.87l-22.12-21.84l-2.17-2.15l-84.22-83.13l-3.06-3.03l-38.92-38.42c-2.72-2.71-5.3-5.55-7.74-8.51c-2.44-2.96-4.73-6.04-6.87-9.22c-2.14-3.18-4.12-6.47-5.94-9.84c-1.82-3.38-3.47-6.84-4.96-10.38c-0.4-0.93-0.78-1.86-1.13-2.8c-4.19-10.72-6.81-21.99-7.76-33.46c-0.96-11.47-0.25-23.02 2.1-34.28c2.35-11.27 6.33-22.13 11.79-32.26c5.47-10.13 12.38-19.41 20.51-27.55c1.74-1.74 3.53-3.42 5.35-5.02c4.79-4.24 9.91-8.09 15.32-11.5c5.41-3.41 11.09-6.38 16.98-8.88c5.89-2.49 11.97-4.51 18.19-6.02c6.21-1.51 12.54-2.52 18.92-3.01c0.38-0.04 0.77-0.07 1.16-0.09c3.5-0.24 7.01-0.33 10.51-0.27c3.51 0.07 7.01 0.28 10.49 0.66c3.49 0.37 6.96 0.9 10.4 1.58c3.44 0.68 6.85 1.51 10.22 2.48c1 0.29 2 0.6 2.99 0.92c4.37 1.4 8.65 3.04 12.82 4.94c4.17 1.89 8.24 4.02 12.16 6.39c3.93 2.36 7.72 4.95 11.34 7.75c3.63 2.8 7.09 5.81 10.37 9.01l0.36-0.36l0.36 0.36c4.99-4.88 10.41-9.31 16.18-13.23c5.77-3.92 11.88-7.33 18.25-10.18c6.37-2.85 12.98-5.13 19.76-6.81c6.77-1.68 13.68-2.76 20.65-3.23c1.28-0.09 2.57-0.16 3.85-0.21c1.29-0.05 2.57-0.07 3.86-0.08c1.29-0.01 2.57 0.01 3.86 0.05c1.29 0.04 2.57 0.1 3.86 0.18c1.03 0.05 2.05 0.12 3.07 0.22c1.46 0.12 2.93 0.27 4.38 0.45c1.46 0.18 2.91 0.38 4.36 0.62c1.45 0.23 2.9 0.49 4.34 0.78c1.44 0.29 2.88 0.6 4.3 0.94c1.33 0.31 2.64 0.64 3.96 1.01c4.94 1.35 9.79 3.02 14.52 5c4.73 1.98 9.32 4.26 13.75 6.84c4.43 2.58 8.69 5.44 12.74 8.56c4.06 3.13 7.91 6.52 11.52 10.14c11.03 11.06 19.79 24.18 25.76 38.62zm-27.87 127.54c14.18-14.17 24.44-31.77 29.78-51.09c5.35-19.32 5.59-39.69 0.72-59.13c-4.88-19.44-14.71-37.29-28.54-51.8c-13.83-14.51-31.18-25.19-50.37-30.99c-1.32-0.41-2.65-0.78-3.99-1.12c-1.56-0.41-3.14-0.79-4.72-1.14c-1.58-0.35-3.17-0.66-4.76-0.94c-1.59-0.28-3.19-0.53-4.79-0.74c-1.6-0.21-3.21-0.39-4.82-0.53c-1.01-0.1-2.03-0.17-3.05-0.23c-1.27-0.09-2.54-0.15-3.81-0.19c-7.9-0.26-15.81 0.28-23.6 1.63c-7.79 1.35-15.42 3.49-22.77 6.4c-7.35 2.9-14.39 6.56-21 10.9c-6.61 4.34-12.75 9.35-18.34 14.94l-1.06 1.06l-0.35-0.35l-0.35 0.35l-1.06-1.06c-1.26-1.26-2.55-2.49-3.86-3.69c-1.32-1.2-2.66-2.37-4.03-3.51c-1.37-1.14-2.77-2.24-4.19-3.32c-1.42-1.07-2.87-2.11-4.33-3.12c-2.25-1.55-4.56-3.02-6.92-4.4c-2.36-1.38-4.77-2.68-7.22-3.9c-2.45-1.21-4.95-2.34-7.48-3.37c-2.53-1.03-5.1-1.97-7.7-2.82c-0.98-0.33-1.97-0.64-2.96-0.93c-2.41-0.72-4.83-1.36-7.28-1.92c-2.45-0.56-4.91-1.04-7.39-1.44c-2.48-0.4-4.97-0.72-7.47-0.96c-2.5-0.24-5-0.4-7.51-0.48c-1.23-0.04-2.45-0.06-3.68-0.06c-3.28 0-6.55 0.14-9.82 0.42c-6.1 0.5-12.15 1.49-18.1 2.96c-5.94 1.46-11.76 3.4-17.4 5.79c-5.64 2.39-11.08 5.22-16.26 8.47c-5.19 3.25-10.11 6.91-14.72 10.94h-0.01c-1.95 1.7-3.85 3.48-5.71 5.34c-7.94 7.95-14.68 17.02-20.02 26.91c-5.34 9.89-9.21 20.5-11.49 31.5c-2.29 11-2.97 22.28-2.01 33.48c0.95 11.2 3.52 22.2 7.64 32.65c0.35 0.93 0.73 1.86 1.13 2.79c1.45 3.42 3.06 6.77 4.83 10.04c1.77 3.27 3.7 6.44 5.77 9.52c2.08 3.08 4.3 6.06 6.67 8.92c2.36 2.86 4.87 5.61 7.5 8.24l41.1 40.58l3.01 2.97l82.58 81.53l2.17 2.14l21.65 21.37l14.95 14.76l165.47-163.36z" />
	<path id="Layer" class="s5" d="m175.88 87.77c-6.42 5.07-13.31 9.75-17.48 16.68c-3.07 5.12-4.4 11.07-5.39 16.95c-1.92 11.44-2.74 23.16-6.5 34.13c-3.75 10.97-11.07 21.45-21.92 25.54c-6.73 2.53-14.15 2.39-21.32 1.9c-17.69-1.2-35.5-4.37-51.42-12.16c-8.9-4.36-17.53-10.24-27.42-10.89c-0.5-0.03-1.01-0.05-1.51-0.05c-0.5 0-1.01 0.01-1.51 0.04c-0.5 0.03-1 0.07-1.51 0.13c-0.5 0.06-1 0.13-1.49 0.22c4.28-13.36 10.92-25.85 19.6-36.87c8.68-11.02 19.27-20.4 31.26-27.68c11.99-7.29 25.18-12.37 38.96-15.01c13.78-2.64 27.92-2.78 41.75-0.43l0.01 0c0.38 0.06 0.75 0.12 1.13 0.2c1 0.18 2.01 0.37 3 0.57c1 0.2 1.99 0.42 2.99 0.65c0.99 0.23 1.98 0.48 2.97 0.73c0.99 0.26 1.97 0.53 2.95 0.81c1.09 0.32 2.18 0.65 3.26 0.99c1.08 0.35 2.16 0.71 3.23 1.09c1.07 0.38 2.14 0.77 3.2 1.18c1.06 0.41 2.11 0.83 3.16 1.27l0 0z" />
	<path id="Layer" class="s0" d="m107.09 119.12c-23.82 0-43.07-19.25-43.07-43.07c0-23.82 19.25-43.07 43.07-43.07c23.82 0 43.07 19.25 43.07 43.07c0 23.82-19.25 43.07-43.07 43.07z" />
	<path id="Layer" class="s0" d="m87.46 109.85h13.08v23.44h-13.08v-23.44z" />
	<path id="Layer" class="s0" d="m113.63 109.85h13.08v23.44h-13.08v-23.44z" />
	<path id="Layer" class="s0" d="m98.37 137.65c-6.03 0-10.9-1.83-10.9-4.09c0-2.26 4.87-4.09 10.9-4.09c6.03 0 10.9 1.83 10.9 4.09c0 2.26-4.87 4.09-10.9 4.09z" />
	<path id="Layer" class="s0" d="m124.54 137.11c-6.03 0-10.9-1.83-10.9-4.09c0-2.26 4.87-4.09 10.9-4.09c6.03 0 10.9 1.83 10.9 4.09c0 2.26-4.87 4.09-10.9 4.09z" />
	<path id="Layer" class="s1" d="m108.18 79.87c-8.14 0-14.72-6.58-14.72-14.72c0-8.14 6.58-14.72 14.72-14.72c8.14 0 14.72 6.58 14.72 14.72c0 8.14-6.58 14.72-14.72 14.72z" />
	<path id="Layer" class="s2" d="m116.66 71.63c-1.91 1.91-5.01 1.9-6.93-0.03c-1.92-1.92-1.93-5.02-0.02-6.93c1.91-1.91 5.01-1.9 6.93 0.03c1.92 1.92 1.93 5.02 0.02 6.93z" />
	<path id="Layer" class="s3" d="m65.31 36c-3.48-15.57 7.64-31.31 24.83-35.15c17.19-3.84 33.94 5.68 37.42 21.25c3.48 15.57-7.91 21.32-25.1 25.16c-17.19 3.84-33.67 4.32-37.15-11.26z" />
	<path id="Layer" class="s0" d="m453.41 369.49c-2.88 2.38-11.34-3.12-18.92-12.31c-7.58-9.19-11.37-18.54-8.49-20.91c2.88-2.38 11.34 3.12 18.92 12.31c7.58 9.19 11.37 18.54 8.49 20.91z" />
	<path id="Layer" class="s0" d="m484.1 438.37c-23.51 3.81-45.59-12.1-49.41-35.61c-3.81-23.51 12.1-45.59 35.61-49.41c23.51-3.81 45.59 12.1 49.41 35.61c3.81 23.51-12.1 45.59-35.61 49.41z" />
	<path id="Layer" class="s0" d="m483.74 429.66h13.08v23.44h-13.08v-23.44z" />
	<path id="Layer" class="s0" d="m457.58 429.66h13.08v23.44h-13.08v-23.44z" />
	<path id="Layer" class="s0" d="m485.92 457.46c-6.03 0-10.9-1.83-10.9-4.09c0-2.26 4.87-4.09 10.9-4.09c6.03 0 10.9 1.83 10.9 4.09c0 2.26-4.87 4.09-10.9 4.09z" />
	<path id="Layer" class="s0" d="m459.76 456.92c-6.03 0-10.9-1.83-10.9-4.09c0-2.26 4.87-4.09 10.9-4.09c6.03 0 10.9 1.83 10.9 4.09c0 2.26-4.87 4.09-10.9 4.09z" />
	<path id="Layer" class="s4" d="m492.28 372.88c-13.58-11.22-21.12-21.51-10.96-33.81c10.16-12.3 29.41-13.18 42.99-1.96c13.58 11.22 16.34 30.29 6.18 42.59c-10.16 12.3-24.63 4.4-38.21-6.82z" />
	<path id="Layer" class="s1" d="m462.74 388.23c-8.14 0.24-14.91-6.14-15.15-14.28c-0.24-8.14 6.14-14.91 14.28-15.15c8.14-0.24 14.91 6.14 15.15 14.28c0.24 8.14-6.14 14.91-14.28 15.15z" />
	<path id="Layer" class="s2" d="m457.14 374.77c-2.71 0-4.91-2.19-4.91-4.91c0-2.71 2.19-4.91 4.91-4.91c2.71 0 4.91 2.19 4.91 4.91c0 2.71-2.19 4.91-4.91 4.91z" />
	<path id="Layer" class="s1" d="m449.96 391.68c4.19 4.19 11.68 4.56 8.7 7.55c-2.98 2.98-15.3 7.44-19.5 3.25c-4.19-4.19-2.09-13.86 0.9-16.84c2.98-2.98 5.71 1.85 9.9 6.04z" />
	<path id="Layer" class="s0" d="m518.08 453.45c-3.49 1.33-9.75-6.58-14-17.7c-4.25-11.12-4.87-21.19-1.37-22.53c3.49-1.33 9.75 6.58 14 17.7c4.25 11.12 4.87 21.19 1.37 22.53z" />
	<path id="Layer" class="s6" d="m730 458.13h-922c-0.27 0-0.52-0.11-0.71-0.29c-0.19-0.19-0.29-0.44-0.29-0.71c0-0.27 0.11-0.52 0.29-0.71c0.19-0.19 0.44-0.29 0.71-0.29h922c0.27 0 0.52 0.11 0.71 0.29c0.19 0.19 0.29 0.44 0.29 0.71c0 0.27-0.11 0.52-0.29 0.71c-0.19 0.19-0.44 0.29-0.71 0.29z" />
</svg>