<svg version="1.2" baseProfile="tiny-ps" xmlns="http://www.w3.org/2000/svg" viewBox="0 0 752 570" width="752" height="570">
	<title>undraw_reminders_re_gtyb-svg</title>
	<style>
		tspan { white-space:pre }
		.s0 { fill: #3f3d56 } 
		.s1 { fill: #ffffff } 
		.s2 { fill: #e6e6e6 } 
		.s3 { fill: #a0616a } 
		.s4 { fill: #2f2e41 } 
		.s5 { fill: #6c63ff } 
	</style>
	<path id="Layer" class="s0" d="m466.13 39.09v397.23l-1.38 16.54c-0.6 7.11-1.8 14.16-3.59 21.07c-1.79 6.91-4.16 13.66-7.09 20.17c-2.93 6.51-6.41 12.76-10.39 18.68c-3.99 5.92-8.47 11.5-13.39 16.66c-2.82 2.95-5.77 5.74-8.85 8.38c-0.95 0.82-1.91 1.62-2.88 2.41c-0.97 0.79-1.96 1.56-2.95 2.32c-1 0.76-2 1.5-3.02 2.23c-1.02 0.73-2.05 1.44-3.09 2.13c-2.38 1.6-4.82 3.11-7.3 4.54c-3.59 2.08-7.29 3.97-11.07 5.68c-3.78 1.71-7.65 3.23-11.58 4.56c-3.93 1.33-7.93 2.46-11.97 3.4c-4.04 0.94-8.13 1.67-12.25 2.2l-118.36 0c-2.33 0-4.66-0.21-6.95-0.62c-2.29-0.41-4.55-1.03-6.73-1.85c-2.18-0.82-4.29-1.83-6.29-3.02c-2-1.19-3.89-2.57-5.65-4.1c-0.88-0.76-1.72-1.56-2.52-2.4c-0.81-0.84-1.57-1.71-2.3-2.61c-0.73-0.9-1.42-1.84-2.06-2.81c-0.65-0.97-1.25-1.96-1.81-2.98c-0.78-1.43-1.47-2.9-2.06-4.41c-0.59-1.51-1.09-3.06-1.49-4.63c-0.4-1.57-0.7-3.17-0.9-4.78c-0.2-1.61-0.3-3.24-0.3-4.86l0-489.13c0.01-5.13 1.02-10.21 2.99-14.95c1.97-4.74 4.85-9.05 8.47-12.67c3.63-3.63 7.94-6.51 12.67-8.47c4.74-1.97 9.82-2.98 14.95-2.99l190.08 0c0.45 0 0.89 0.01 1.34 0.02c0.29 0.01 0.58 0.02 0.87 0.05c0.39 0.01 0.78 0.04 1.16 0.08c0.49 0.03 0.97 0.08 1.45 0.14c0.44 0.06 0.88 0.12 1.32 0.19c0.09 0.01 0.17 0.03 0.26 0.04c0.56 0.09 1.12 0.19 1.67 0.31c0.55 0.11 1.11 0.24 1.65 0.38c0.39 0.1 0.79 0.21 1.18 0.32c0.01 0 0.03 0.01 0.04 0.01c1.15 0.34 2.29 0.73 3.41 1.18c0.35 0.13 0.7 0.28 1.04 0.43l0.15 0.06c0.28 0.12 0.55 0.24 0.82 0.37c0.81 0.37 1.61 0.78 2.4 1.21c0.32 0.18 0.65 0.36 0.97 0.55c0.32 0.19 0.64 0.38 0.95 0.58c0.31 0.2 0.63 0.4 0.93 0.6c0.31 0.21 0.61 0.42 0.92 0.63c0.39 0.27 0.77 0.56 1.14 0.85c0.31 0.23 0.62 0.47 0.92 0.73c0.01 0 0.01 0.01 0.02 0.01c0.01 0 0.01 0.01 0.02 0.01c0.01 0 0.01 0.01 0.02 0.01c0.01 0 0.01 0.01 0.02 0.01c0.04 0.03 0.08 0.07 0.12 0.1c0.27 0.21 0.53 0.43 0.78 0.65c0.49 0.42 0.97 0.86 1.44 1.31c0.13 0.12 0.26 0.24 0.39 0.37c0.13 0.12 0.25 0.25 0.38 0.38c0.13 0.12 0.25 0.25 0.37 0.37c0.02 0.02 0.04 0.03 0.05 0.05c0.02 0.02 0.03 0.03 0.05 0.05c0.02 0.02 0.03 0.03 0.05 0.05c0.02 0.02 0.03 0.03 0.05 0.05c0.36 0.38 0.71 0.77 1.05 1.16c0.43 0.49 0.85 0.99 1.24 1.5c0.34 0.42 0.66 0.84 0.97 1.27c0.29 0.39 0.56 0.78 0.83 1.18c0.02 0.02 0.04 0.05 0.05 0.08c0.02 0.03 0.03 0.05 0.05 0.08c0.02 0.03 0.03 0.05 0.05 0.08c0.02 0.03 0.03 0.05 0.05 0.08c0.28 0.41 0.54 0.83 0.8 1.25c0.65 1.06 1.24 2.16 1.78 3.27c0.2 0.42 0.39 0.83 0.57 1.25c0.23 0.51 0.44 1.02 0.64 1.53c0.08 0.19 0.15 0.39 0.22 0.58c0.11 0.29 0.21 0.58 0.31 0.87c0.11 0.32 0.22 0.65 0.32 0.97l0.24 0.78c0.14 0.47 0.26 0.93 0.38 1.4c0.07 0.28 0.14 0.56 0.2 0.85c0.12 0.51 0.22 1.02 0.32 1.54c0.1 0.51 0.18 1.03 0.26 1.55c0.08 0.52 0.14 1.04 0.2 1.56c0.06 0.52 0.1 1.04 0.13 1.56c0.01 0.26 0.03 0.51 0.04 0.77c0.03 0.59 0.04 1.18 0.04 1.78z" />
	<path id="Layer" class="s0" d="m195.16 177.97c-0.58 0-1.15-0.11-1.68-0.34c-0.53-0.22-1.02-0.55-1.43-0.95c-0.41-0.41-0.73-0.89-0.95-1.43c-0.22-0.53-0.34-1.11-0.34-1.68v-29.91c0-1.17 0.46-2.29 1.29-3.11c0.83-0.83 1.95-1.29 3.11-1.29c1.17 0 2.29 0.46 3.11 1.29c0.83 0.83 1.29 1.95 1.29 3.11v29.91c0 0.58-0.11 1.15-0.34 1.68c-0.22 0.53-0.55 1.02-0.95 1.43c-0.41 0.41-0.89 0.73-1.43 0.95c-0.53 0.22-1.11 0.34-1.68 0.34l0 0z" />
	<path id="Layer" class="s0" d="m194.28 119.9c-0.58 0-1.15-0.11-1.68-0.34c-0.53-0.22-1.02-0.55-1.43-0.95c-0.41-0.41-0.73-0.89-0.95-1.43c-0.22-0.53-0.34-1.11-0.34-1.68v-29.91c0-1.17 0.47-2.28 1.29-3.11c0.82-0.82 1.94-1.29 3.11-1.29c1.17 0 2.28 0.46 3.11 1.29c0.82 0.82 1.29 1.94 1.29 3.11v29.91c0 0.58-0.11 1.15-0.34 1.68c-0.22 0.53-0.55 1.02-0.95 1.43c-0.41 0.41-0.89 0.73-1.43 0.95c-0.53 0.22-1.11 0.34-1.68 0.34l0 0z" />
	<path id="Layer" class="s1" d="m302.29 14.53c0-0.58 0.11-1.15 0.34-1.68c0.22-0.53 0.55-1.02 0.95-1.43c0.41-0.41 0.89-0.73 1.43-0.95c0.53-0.22 1.11-0.34 1.68-0.34h29.91c1.17 0 2.29 0.46 3.11 1.29c0.82 0.82 1.29 1.94 1.29 3.11c0 1.17-0.46 2.29-1.29 3.11c-0.82 0.82-1.94 1.29-3.11 1.29l-29.91 0c-0.58 0-1.15-0.11-1.68-0.34c-0.53-0.22-1.02-0.55-1.43-0.95c-0.41-0.41-0.73-0.89-0.95-1.43c-0.22-0.53-0.34-1.11-0.34-1.68z" />
	<path id="Layer" class="s0" d="m195.16 229c-0.58 0-1.15-0.11-1.68-0.34c-0.53-0.22-1.02-0.55-1.43-0.95c-0.41-0.41-0.73-0.89-0.95-1.43c-0.22-0.53-0.34-1.11-0.34-1.68v-29.91c0-1.17 0.46-2.29 1.29-3.11c0.83-0.83 1.95-1.29 3.11-1.29c1.17 0 2.29 0.46 3.11 1.29c0.83 0.83 1.29 1.95 1.29 3.11v29.91c0 0.58-0.11 1.15-0.34 1.68c-0.22 0.53-0.55 1.02-0.95 1.43c-0.41 0.41-0.89 0.73-1.43 0.95c-0.53 0.22-1.11 0.34-1.68 0.34h0z" />
	<path id="Layer" class="s0" d="m469.16 164c-0.58 0-1.15-0.11-1.68-0.34c-0.53-0.22-1.02-0.55-1.43-0.95c-0.41-0.41-0.73-0.89-0.95-1.43c-0.22-0.53-0.34-1.11-0.34-1.68v-29.91c0-1.17 0.46-2.29 1.29-3.11c0.83-0.83 1.95-1.29 3.11-1.29c1.17 0 2.29 0.46 3.11 1.29c0.83 0.83 1.29 1.95 1.29 3.11v29.91c0 0.58-0.11 1.15-0.34 1.68c-0.22 0.53-0.55 1.02-0.95 1.43c-0.41 0.41-0.89 0.73-1.43 0.95c-0.53 0.22-1.11 0.34-1.68 0.34h0z" />
	<path id="Layer" class="s1" d="m353.32 18.93c-2.43 0-4.4-1.97-4.4-4.4c0-2.43 1.97-4.4 4.4-4.4c2.43 0 4.4 1.97 4.4 4.4c0 2.43-1.97 4.4-4.4 4.4z" />
	<path id="Layer" class="s1" d="m446.67 53.2h-229.32c-0.27-0.01-0.52-0.12-0.7-0.31c-0.19-0.19-0.29-0.44-0.29-0.71c0-0.27 0.1-0.52 0.29-0.71c0.19-0.19 0.44-0.3 0.7-0.31h229.32c0.27 0.01 0.52 0.12 0.7 0.31c0.19 0.19 0.29 0.44 0.29 0.71c0 0.27-0.1 0.52-0.29 0.71c-0.19 0.19-0.44 0.3-0.7 0.31l0 0z" />
	<path id="Layer" class="s1" d="m234.73 45.99c-3.29 0-5.95-2.72-5.95-6.08c0-3.36 2.66-6.08 5.95-6.08c3.29 0 5.95 2.72 5.95 6.08c0 3.36-2.66 6.08-5.95 6.08z" />
	<path id="Layer" class="s1" d="m255.28 45.99c-3.29 0-5.95-2.72-5.95-6.08c0-3.36 2.66-6.08 5.95-6.08c3.29 0 5.95 2.72 5.95 6.08c0 3.36-2.66 6.08-5.95 6.08z" />
	<path id="Layer" class="s1" d="m275.84 45.99c-3.29 0-5.95-2.72-5.95-6.08c0-3.36 2.66-6.08 5.95-6.08c3.29 0 5.95 2.72 5.95 6.08c0 3.36-2.66 6.08-5.95 6.08z" />
	<path id="Layer" class="s1" d="m435.06 35.66c0.2 0.21 0.32 0.48 0.32 0.77c0 0.29-0.11 0.57-0.32 0.77c-0.2 0.21-0.48 0.33-0.77 0.33l-14.6 0c-0.29-0.01-0.57-0.12-0.77-0.33c-0.2-0.21-0.32-0.48-0.32-0.77c0-0.29 0.11-0.57 0.32-0.77c0.2-0.21 0.48-0.33 0.77-0.33h14.6c0.29 0.01 0.57 0.12 0.77 0.33z" />
	<path id="Layer" class="s1" d="m434.29 39.48c0.29 0.01 0.57 0.12 0.77 0.33c0.2 0.21 0.32 0.48 0.32 0.77c0 0.29-0.11 0.57-0.32 0.77c-0.2 0.21-0.48 0.33-0.77 0.33h-14.6c-0.29-0.01-0.57-0.12-0.77-0.33c-0.2-0.21-0.32-0.48-0.32-0.77c0-0.29 0.11-0.57 0.32-0.77c0.2-0.21 0.48-0.33 0.77-0.33h14.6v0z" />
	<path id="Layer" class="s1" d="m434.29 43.62c0.29 0.01 0.57 0.12 0.77 0.33c0.2 0.21 0.32 0.48 0.32 0.77c0 0.29-0.11 0.57-0.32 0.77c-0.2 0.21-0.48 0.33-0.77 0.33h-14.6c-0.29-0.01-0.57-0.12-0.77-0.33c-0.2-0.21-0.32-0.48-0.32-0.77c0-0.29 0.11-0.57 0.32-0.77c0.2-0.21 0.48-0.33 0.77-0.33h14.6v0z" />
	<path id="Layer" class="s2" d="m272.18 206.03c0.15-0.78 0.39-1.53 0.7-2.26c0.31-0.73 0.7-1.42 1.16-2.07c0.46-0.65 0.98-1.24 1.56-1.78c0.65-0.59 1.34-1.13 2.07-1.63c0.72-0.5 1.48-0.95 2.26-1.35c0.78-0.4 1.59-0.75 2.42-1.04c0.83-0.29 1.68-0.54 2.54-0.72c0.96-0.23 1.93-0.45 2.9-0.66c0.97-0.21 1.94-0.4 2.92-0.58c0.98-0.18 1.96-0.34 2.94-0.5c0.98-0.15 1.96-0.29 2.95-0.41c4.08-0.59 8.18-1.04 12.29-1.36c4.11-0.32 8.22-0.5 12.34-0.54c0.92-0.03 1.84-0.04 2.76-0.03c0.92 0 1.84 0.02 2.76 0.05c0.92 0.03 1.84 0.07 2.76 0.13c0.92 0.06 1.84 0.13 2.75 0.22c0.86 0.08 1.72 0.19 2.58 0.34c0.85 0.15 1.7 0.34 2.54 0.57c0.84 0.23 1.66 0.5 2.47 0.8c0.81 0.3 1.61 0.64 2.39 1.02c0.69 0.34 1.35 0.73 1.98 1.17c0.63 0.43 1.23 0.91 1.8 1.43c0.57 0.52 1.09 1.07 1.58 1.67c0.49 0.59 0.93 1.22 1.34 1.87c0.39 0.61 0.73 1.25 1.01 1.91c0.28 0.66 0.52 1.35 0.69 2.05c0.17 0.7 0.29 1.41 0.35 2.13c0.06 0.72 0.06 1.44 0.01 2.16c-0.04 0.35-0.09 0.7-0.16 1.05c-0.07 0.35-0.16 0.69-0.27 1.03c-0.11 0.34-0.24 0.67-0.38 0.99c-0.14 0.32-0.3 0.64-0.48 0.95c-0.21 0.34-0.43 0.67-0.67 0.99c-0.24 0.32-0.49 0.63-0.75 0.93c-0.26 0.3-0.54 0.59-0.82 0.87c-0.29 0.28-0.59 0.54-0.9 0.79c-2.56 2.17-5.63 3.75-7.84 6.32c-0.15 0.17-0.29 0.34-0.42 0.52c-0.14 0.18-0.27 0.36-0.39 0.54c-0.13 0.18-0.25 0.37-0.37 0.56c-0.12 0.19-0.23 0.38-0.34 0.58c-0.07 0.15-0.15 0.29-0.24 0.43c-0.09 0.14-0.19 0.27-0.3 0.39c-0.11 0.12-0.22 0.24-0.35 0.34c-0.12 0.11-0.26 0.2-0.39 0.29c-0.26 0.15-0.55 0.26-0.85 0.33c-0.3 0.07-0.6 0.09-0.91 0.07c-0.3-0.02-0.6-0.09-0.89-0.2c-0.28-0.11-0.55-0.26-0.79-0.44c-0.16-0.15-0.32-0.31-0.47-0.47c-0.15-0.16-0.3-0.33-0.44-0.5c-0.14-0.17-0.28-0.35-0.41-0.53c-0.13-0.18-0.26-0.36-0.38-0.55l-1.85-2.39c-0.03-0.05-0.07-0.11-0.1-0.16c-0.04-0.05-0.07-0.1-0.11-0.15c-0.04-0.05-0.08-0.1-0.12-0.15c-0.04-0.05-0.08-0.09-0.13-0.14c-0.13-0.1 0.08-0.01 0.04-0.04c-0.02-0.01-0.06-0.01-0.09-0.02c-0.03-0.01-0.06-0.02-0.09-0.02c-0.03-0.01-0.06-0.01-0.09-0.02c-0.03-0.01-0.06-0.01-0.1-0.02c-0.03 0-0.06-0.01-0.1-0.01c-1.35-0.25-2.71-0.48-4.07-0.7c-5.02-0.81-10.07-1.48-15.15-1.84c-0.65-0.05-1.31-0.1-1.96-0.13c-0.65-0.03-1.31-0.06-1.97-0.07c-0.66-0.02-1.31-0.02-1.97-0.02c-0.66 0-1.31 0.01-1.97 0.04c-3.39 0.14-6.74 0.81-10.11 1.1c-3.64 0.31-7.46 0.27-10.89-1.13c-0.7-0.27-1.37-0.59-2.02-0.97c-0.65-0.38-1.26-0.81-1.83-1.28c-0.58-0.48-1.11-1-1.6-1.57c-0.49-0.56-0.93-1.17-1.32-1.81c-0.18-0.31-0.33-0.62-0.47-0.95c-0.14-0.32-0.26-0.66-0.36-1c-0.1-0.34-0.19-0.68-0.25-1.03c-0.06-0.35-0.11-0.7-0.13-1.05c-0.01-0.79 0.06-1.58 0.21-2.36z" />
	<path id="Layer" class="s1" d="m330.26 199c0.35 0.15 0.67 0.36 0.95 0.63c0.27 0.27 0.49 0.59 0.63 0.95c0.15 0.35 0.22 0.73 0.22 1.12v0.47c0 0.38-0.08 0.76-0.22 1.12c-0.15 0.35-0.36 0.67-0.63 0.95c-0.27 0.27-0.59 0.49-0.95 0.63c-0.35 0.15-0.73 0.22-1.12 0.22l-39.02 0c-0.38 0-0.76-0.08-1.12-0.22c-0.35-0.15-0.67-0.36-0.95-0.63c-0.27-0.27-0.49-0.59-0.63-0.95c-0.15-0.35-0.22-0.73-0.22-1.12l0-0.47c0-0.38 0.08-0.76 0.22-1.12c0.15-0.35 0.36-0.67 0.63-0.95c0.27-0.27 0.59-0.49 0.95-0.63c0.35-0.15 0.73-0.22 1.12-0.22h39.02c0.38 0 0.76 0.08 1.12 0.22z" />
	<path id="Layer" class="s1" d="m330.26 207c0.35 0.15 0.67 0.36 0.95 0.63c0.27 0.27 0.49 0.59 0.63 0.95c0.15 0.35 0.22 0.73 0.22 1.12v0.47c0 0.38-0.08 0.76-0.22 1.12c-0.15 0.35-0.36 0.67-0.63 0.95c-0.27 0.27-0.59 0.49-0.95 0.63c-0.35 0.15-0.73 0.22-1.12 0.22l-39.02 0c-0.38 0-0.76-0.08-1.12-0.22c-0.35-0.15-0.67-0.36-0.95-0.63c-0.27-0.27-0.49-0.59-0.63-0.95c-0.15-0.35-0.22-0.73-0.22-1.12l0-0.47c0-0.38 0.08-0.76 0.22-1.12c0.15-0.35 0.36-0.67 0.63-0.95c0.27-0.27 0.59-0.49 0.95-0.63c0.35-0.15 0.73-0.22 1.12-0.22h39.02c0.38 0 0.76 0.08 1.12 0.22z" />
	<path id="Layer" class="s2" d="m410.15 150.39c-0.02 0.35-0.07 0.7-0.13 1.05c-0.06 0.35-0.15 0.69-0.25 1.03c-0.1 0.34-0.22 0.67-0.36 1c-0.14 0.32-0.3 0.64-0.47 0.95c-0.39 0.64-0.83 1.24-1.32 1.81c-0.49 0.56-1.02 1.09-1.6 1.57c-0.58 0.48-1.19 0.91-1.83 1.28c-0.65 0.38-1.32 0.7-2.02 0.97c-3.43 1.4-7.25 1.45-10.89 1.13c-3.38-0.29-6.72-0.96-10.11-1.1c-0.66-0.02-1.31-0.03-1.97-0.04c-0.66 0-1.31 0-1.97 0.02c-0.66 0.02-1.31 0.04-1.97 0.07c-0.65 0.03-1.31 0.08-1.96 0.13c-5.07 0.36-10.13 1.03-15.15 1.84c-1.36 0.22-2.72 0.45-4.07 0.7c-0.03 0-0.06 0.01-0.1 0.01c-0.03 0-0.06 0.01-0.1 0.02c-0.03 0.01-0.06 0.01-0.09 0.02c-0.03 0.01-0.06 0.02-0.09 0.02c-0.02 0.01-0.06 0-0.09 0.02c-0.04 0.03 0.17-0.07 0.04 0.04c-0.04 0.05-0.09 0.09-0.13 0.14c-0.04 0.05-0.08 0.1-0.12 0.15c-0.04 0.05-0.08 0.1-0.11 0.15c-0.04 0.05-0.07 0.1-0.1 0.16l-1.85 2.39c-0.12 0.19-0.25 0.37-0.38 0.55c-0.13 0.18-0.27 0.36-0.41 0.53c-0.14 0.17-0.29 0.34-0.44 0.5c-0.15 0.16-0.31 0.32-0.47 0.47c-0.24 0.19-0.51 0.34-0.79 0.44c-0.28 0.11-0.58 0.17-0.89 0.2c-0.3 0.02-0.61 0-0.91-0.07c-0.3-0.07-0.58-0.18-0.85-0.33c-0.14-0.09-0.27-0.18-0.39-0.29c-0.12-0.11-0.24-0.22-0.35-0.34c-0.11-0.12-0.21-0.25-0.3-0.39c-0.09-0.14-0.17-0.28-0.24-0.43c-0.11-0.2-0.22-0.39-0.34-0.58c-0.12-0.19-0.24-0.38-0.37-0.56c-0.13-0.18-0.26-0.36-0.39-0.54c-0.14-0.18-0.28-0.35-0.42-0.52c-2.21-2.57-5.27-4.16-7.84-6.32c-0.31-0.25-0.61-0.51-0.9-0.79c-0.29-0.28-0.56-0.57-0.82-0.87c-0.26-0.3-0.51-0.61-0.75-0.93c-0.24-0.32-0.46-0.65-0.67-0.99c-0.18-0.31-0.34-0.62-0.48-0.95c-0.14-0.32-0.27-0.66-0.38-0.99c-0.11-0.34-0.2-0.68-0.27-1.03c-0.07-0.35-0.13-0.7-0.16-1.05c-0.06-0.72-0.05-1.44 0.01-2.16c0.06-0.72 0.18-1.43 0.35-2.13c0.17-0.7 0.41-1.39 0.69-2.05c0.28-0.66 0.62-1.3 1.01-1.91c0.4-0.65 0.85-1.28 1.34-1.87c0.49-0.59 1.02-1.15 1.58-1.67c0.57-0.52 1.17-1 1.8-1.43c0.63-0.43 1.29-0.82 1.98-1.17c0.78-0.38 1.58-0.71 2.39-1.02c0.81-0.3 1.64-0.57 2.47-0.8c0.84-0.23 1.68-0.42 2.54-0.57c0.85-0.15 1.71-0.27 2.58-0.34c0.92-0.09 1.83-0.16 2.75-0.22c0.92-0.06 1.84-0.1 2.76-0.13c0.92-0.03 1.84-0.05 2.76-0.05c0.92 0 1.84 0.01 2.76 0.03c4.12 0.05 8.24 0.23 12.34 0.54c4.11 0.32 8.21 0.77 12.29 1.36c0.98 0.12 1.97 0.26 2.95 0.41c0.98 0.15 1.96 0.32 2.94 0.5c0.98 0.18 1.95 0.37 2.92 0.58c0.97 0.21 1.94 0.43 2.9 0.66c0.86 0.18 1.71 0.43 2.54 0.72c0.83 0.29 1.64 0.64 2.42 1.04c0.78 0.4 1.54 0.85 2.26 1.35c0.72 0.5 1.42 1.04 2.07 1.63c0.58 0.54 1.11 1.13 1.56 1.78c0.46 0.65 0.84 1.34 1.16 2.07c0.31 0.73 0.55 1.49 0.7 2.26c0.15 0.78 0.22 1.57 0.21 2.36z" />
	<path id="Layer" class="s1" d="m350.07 143.7c0-0.38 0.08-0.76 0.22-1.12c0.15-0.35 0.36-0.67 0.63-0.95c0.27-0.27 0.59-0.49 0.95-0.63c0.35-0.15 0.73-0.22 1.12-0.22h39.02c0.38 0 0.76 0.08 1.12 0.22c0.35 0.15 0.67 0.36 0.95 0.63c0.27 0.27 0.49 0.59 0.63 0.95c0.15 0.35 0.22 0.73 0.22 1.12v0.47c0 0.38-0.08 0.76-0.22 1.12c-0.15 0.35-0.36 0.67-0.63 0.95c-0.27 0.27-0.59 0.49-0.95 0.63c-0.35 0.15-0.73 0.22-1.12 0.22h-39.02c-0.38 0-0.76-0.08-1.12-0.22c-0.35-0.15-0.67-0.36-0.95-0.63c-0.27-0.27-0.49-0.59-0.63-0.95c-0.15-0.35-0.22-0.73-0.22-1.12v-0.47h0z" />
	<path id="Layer" class="s1" d="m350.29 150.58c0.15-0.35 0.36-0.67 0.63-0.95c0.27-0.27 0.59-0.49 0.95-0.63c0.35-0.15 0.73-0.22 1.12-0.22h39.02c0.38 0 0.76 0.08 1.12 0.22c0.35 0.15 0.67 0.36 0.95 0.63c0.27 0.27 0.49 0.59 0.63 0.95c0.15 0.35 0.22 0.73 0.22 1.12v0.47c0 0.38-0.08 0.76-0.22 1.12c-0.15 0.35-0.36 0.67-0.63 0.95c-0.27 0.27-0.59 0.49-0.95 0.63c-0.35 0.15-0.73 0.22-1.12 0.22h-39.02c-0.38 0-0.76-0.08-1.12-0.22c-0.35-0.15-0.67-0.36-0.95-0.63c-0.27-0.27-0.49-0.59-0.63-0.95c-0.15-0.35-0.22-0.73-0.22-1.12v-0.47c0-0.38 0.08-0.76 0.22-1.12z" />
	<path id="Layer" class="s3" d="m599.58 555.01l-12.39 0l-5.89-47.79l18.29 0l0 47.79v0z" />
	<path id="Layer" class="s4" d="m602.74 550.96v16.06h-39.95v-0.51c0-0.23 0-0.46 0.02-0.68c0.09-1.98 0.55-3.93 1.37-5.74c0.82-1.81 1.98-3.44 3.41-4.81c1.43-1.37 3.12-2.46 4.96-3.2c1.84-0.74 3.81-1.12 5.79-1.12l7.3-5.53l0.39 0.16l13.22 5.37h3.49z" />
	<path id="Layer" class="s3" d="m570.56 543.48l-11.69 4.11l-21.42-43.12l17.25-6.07l15.86 45.08v0z" />
	<path id="Layer" class="s4" d="m572.2 538.62l5.33 15.15l-37.69 13.26l-0.17-0.48c-0.08-0.22-0.15-0.43-0.21-0.65c-0.58-1.9-0.79-3.89-0.61-5.87c0.17-1.98 0.72-3.9 1.62-5.67c0.9-1.77 2.12-3.35 3.62-4.66c1.49-1.31 3.22-2.32 5.09-2.98l5.05-7.64l0.42 0.02l14.25 0.68l3.29-1.16z" />
	<path id="Layer" class="s4" d="m603.96 348.96c11.34-0.44-2.71 89.89-2.71 89.89c0 0 4.11 79.31 3.24 83.47c-0.87 4.16-0.11 15.39-0.11 15.39c-2.22-4.04-25.13-0.99-25.13-0.99l-3.12-80.38l-15.91-64.4l-22.06 43.17l21.15 66.26c0 0 8.56 7.92 7.65 11.06c-0.91 3.13-23.34 10.19-27.46 10.35c-4.12 0.16-2.26-5.07-2.46-10.22c-0.2-5.15-19.6-52.9-26.42-69.15c-6.82-16.25-1.52-39.16 1.96-55.8c3.48-16.65 21.8-47.89 21.8-47.89c22.74-25.65 58.24 9.7 69.58 9.26z" />
	<path id="Layer" class="s2" d="m598.07 363.44c-28.11 0-43.6-5.63-51.83-10.65c-10.06-6.14-11.78-12.62-11.85-12.9l-0.02-0.08l0.98-12.32l0.43-0.96c0.49-1.09 0.87-2.23 1.15-3.39c0.28-1.16 0.45-2.35 0.52-3.54c0.06-1.19 0.02-2.39-0.14-3.58c-0.16-1.19-0.42-2.36-0.79-3.49l-0.03-0.09l0.01-0.1l6.57-85.24l23.26-7.62l6.77-6.8l30.13-0.44l4.2 8.51l23.75 8.94l-11.67 69.46l-5.59 9.64l2.25 10.5l-0.02 0.09l-7.34 43.8l-0.4 0.02c-3.62 0.16-7.06 0.24-10.33 0.24z" />
	<path id="Layer" class="s3" d="m609.79 183.56c-0.9 6.59-4.39 12.55-9.69 16.58c-5.3 4.02-11.98 5.78-18.57 4.88c-6.59-0.9-12.56-4.37-16.59-9.67c-4.03-5.29-5.79-11.97-4.9-18.56l0.05-0.36c1.04-6.51 4.6-12.34 9.9-16.25c5.3-3.91 11.93-5.57 18.45-4.64c6.52 0.94 12.41 4.4 16.41 9.64c3.99 5.24 5.76 11.84 4.93 18.38l0.01 0z" />
	<path id="Layer" class="s4" d="m603.4 196.49c1.29-2.62 2.61-5.43 2.25-8.33c-0.36-2.9-3.2-5.66-5.99-4.8c-1.67 0.51-2.93 2.16-4.67 2.25c-2.4 0.12-3.77-2.63-4.52-4.91l-3.04-9.3c-1.46 1.13-3.03 2.11-4.7 2.89c-1.67 0.79-3.42 1.39-5.22 1.8c-1.8 0.41-3.64 0.61-5.49 0.62c-1.85 0-3.69-0.19-5.49-0.59c-2.82-0.65-5.68-1.9-7.33-4.28c-1.66-2.38-1.65-6.06 0.63-7.86c1.11-0.88 2.6-1.22 3.66-2.16c0.66-0.58 1.12-1.36 1.3-2.23c0.18-0.86 0.08-1.76-0.28-2.56c-0.37-0.8-0.98-1.46-1.76-1.89c-0.77-0.42-1.66-0.59-2.53-0.47l7.66-0.96l-2.28-4.13c0.43 0.29 0.89 0.54 1.38 0.74c0.48 0.2 0.99 0.35 1.5 0.44c0.51 0.09 1.04 0.13 1.56 0.12c0.52-0.01 1.04-0.08 1.55-0.2c2.06-0.37 4-1.22 6.02-1.78c2.43-0.62 4.94-0.84 7.43-0.66c2.5 0.18 4.95 0.77 7.26 1.74c2.31 0.97 4.45 2.31 6.33 3.96c1.88 1.65 3.48 3.6 4.74 5.77c0.94-0.31 1.92-0.48 2.9-0.5c0.99-0.02 1.97 0.11 2.92 0.38c0.95 0.27 1.85 0.69 2.68 1.23c0.82 0.54 1.56 1.21 2.19 1.97c2.05 2.6 2.61 6.07 2.69 9.38c0.04 1.62-0.02 3.25-0.18 4.87c-0.16 1.62-0.41 3.22-0.76 4.81c-0.35 1.59-0.79 3.15-1.33 4.69c-0.54 1.53-1.16 3.03-1.88 4.49c-0.21 0.46-0.43 0.92-0.68 1.36c-0.25 0.44-0.52 0.87-0.81 1.29c-0.29 0.41-0.61 0.82-0.94 1.2c-0.33 0.38-0.68 0.75-1.05 1.1c-0.37 0.35-0.78 0.65-1.21 0.91c-0.44 0.26-0.9 0.47-1.38 0.63c-0.48 0.16-0.98 0.26-1.49 0.31c-0.51 0.05-1.01 0.04-1.52-0.02" />
	<path id="Layer" class="s5" d="m319.54 421.79c-0.12 0-0.24 0-0.36-0.01c-0.69-0.03-1.38-0.13-2.05-0.32c-0.67-0.19-1.31-0.46-1.91-0.8c-0.6-0.34-1.16-0.76-1.67-1.23c-0.5-0.48-0.95-1.01-1.33-1.6c-1.41-2.11-2.9-4.16-4.47-6.15c-1.57-1.99-3.22-3.92-4.94-5.79c-1.72-1.86-3.51-3.66-5.38-5.39c-1.86-1.72-3.79-3.38-5.78-4.95c-4.83-3.86-9.87-7.45-14.75-10.92c-12.58-8.95-24.44-17.38-31.01-29.02c-14.34-25.39 2.55-60.76 26.68-76.62c27.07-17.79 62.67-20.58 97.11-20.94c3.58-0.04 7.16-0.06 10.74-0.06v0c15.5 0.01 31 0.36 46.49 1.07c15.49 0.71 30.96 1.77 46.4 3.18c15.44 1.41 30.84 3.17 46.2 5.28c15.36 2.11 30.67 4.57 45.92 7.38c20.29 3.74 41.54 8.33 58.61 19.46c16.97 11.06 27.28 28.49 26.28 44.39c-1.47 23.22-26.08 40.56-48.49 45.1c-21.36 4.32-43.55 1.4-67.04-1.69c-5.19-0.68-10.55-1.39-15.85-2c-57.63-6.66-165.89 13.87-170.47 14.75l-4.54 0.87l-17.63 22.69c-0.4 0.52-0.85 0.98-1.35 1.4c-0.5 0.41-1.05 0.76-1.63 1.05c-0.58 0.29-1.2 0.5-1.83 0.65c-0.63 0.15-1.28 0.22-1.93 0.22z" />
	<path id="Layer" class="s1" d="m576.18 308.54h-243.58c-1.41 0-2.75-0.56-3.75-1.55c-0.99-0.99-1.55-2.34-1.55-3.75c0-1.41 0.56-2.75 1.55-3.75c0.99-0.99 2.34-1.55 3.75-1.55l243.58 0c1.41 0 2.75 0.56 3.75 1.55c0.99 0.99 1.55 2.34 1.55 3.75c0 1.41-0.56 2.75-1.55 3.75c-0.99 0.99-2.34 1.55-3.75 1.55h0z" />
	<path id="Layer" class="s1" d="m576.18 341.07h-243.58c-1.41 0-2.76-0.55-3.75-1.55c-1-0.99-1.56-2.34-1.56-3.75c0-1.41 0.56-2.76 1.55-3.75c0.99-1 2.34-1.55 3.75-1.55h243.59c1.4 0 2.75 0.56 3.74 1.55c0.99 0.99 1.55 2.34 1.55 3.74c0 1.4-0.56 2.75-1.55 3.74c-0.99 0.99-2.34 1.55-3.74 1.55h0z" />
	<path id="Layer" class="s1" d="m360.98 373.6h-28.39c-1.4 0-2.75-0.56-3.74-1.55c-0.99-0.99-1.55-2.34-1.55-3.74c0-1.4 0.56-2.75 1.55-3.74c0.99-0.99 2.34-1.55 3.74-1.55h28.39c1.4 0 2.75 0.56 3.74 1.55c0.99 0.99 1.55 2.34 1.55 3.74c0 1.4-0.56 2.75-1.55 3.74c-0.99 0.99-2.34 1.55-3.74 1.55h0z" />
	<path id="Layer" class="s3" d="m596.22 391.92c-2.46 0.98-5.19 1.01-7.68 0.11c-2.49-0.91-4.56-2.69-5.81-5.02c-1.26-2.33-1.62-5.04-1.01-7.62c0.61-2.58 2.14-4.84 4.3-6.37l18.75-93.46l23.26 2.43l-26.51 94.3c0.82 1.34 1.33 2.85 1.51 4.41c0.17 1.56 0 3.14-0.5 4.63c-0.5 1.49-1.33 2.85-2.42 3.99c-1.09 1.14-2.41 2.02-3.87 2.59v0z" />
	<path id="Layer" class="s2" d="m631.94 230.23c0 0 5.68 0.2 2.87 11.91c-2.25 9.37-10.5 68.16-16.95 79.88c0.69 0.62 1.28 1.36 1.73 2.17c0.45 0.81 0.77 1.7 0.93 2.61c0.16 0.92 0.18 1.85 0.04 2.77c-0.14 0.92-0.43 1.81-0.87 2.64l-25.71-10.6c-2.14-5.93-0.48-11.31 1.95-11.79l3-17.14l4.43-57.52l24.48-5.16l4.1 0.22z" />
	<path id="Layer" class="s3" d="m492.27 384.26c-0.94-1.26-1.6-2.71-1.92-4.25c-0.32-1.54-0.31-3.13 0.05-4.66c0.36-1.53 1.05-2.96 2.02-4.2c0.97-1.24 2.2-2.24 3.61-2.95l27.26-94.08l21.04 10.22l-33.41 89.27c1.03 2.44 1.14 5.17 0.29 7.68c-0.85 2.51-2.58 4.62-4.88 5.93c-2.3 1.31-5 1.74-7.59 1.19c-2.59-0.54-4.89-2.02-6.47-4.15v0z" />
	<path id="Layer" class="s2" d="m550.89 230.06l18.07 17.3l-26.6 51.19l-6.5 16.15c1.81 1.69 0.37 7.13-4.57 11.04l-27.43-4.57c0.07-0.93 0.29-1.84 0.66-2.7c0.37-0.86 0.87-1.65 1.49-2.34c0.62-0.69 1.36-1.28 2.17-1.73c0.81-0.45 1.7-0.77 2.61-0.93c0.71-13.36 24.73-67.65 27.77-76.79c3.8-11.42 8.73-8.6 8.73-8.6l3.6 1.98z" />
	<path id="Layer" fill-rule="evenodd" class="s1" d="m286.12 492.55c-5.99-14.47-2.68-31.12 8.39-42.19c11.07-11.07 27.72-14.38 42.19-8.39c14.47 5.99 23.9 20.11 23.9 35.77c-0.01 5.08-1.01 10.11-2.96 14.81c-1.95 4.69-4.8 8.96-8.39 12.55c-3.59 3.59-7.86 6.45-12.55 8.39c-4.69 1.95-9.73 2.95-14.81 2.96c-15.66 0-29.77-9.43-35.77-23.9zm1.85-28.86c-5.68 13.72-2.54 29.51 7.96 40.01c10.5 10.5 26.29 13.64 40.01 7.96c13.72-5.68 22.66-19.07 22.66-33.92c-0.01-4.82-0.96-9.59-2.81-14.04c-1.85-4.45-4.55-8.5-7.96-11.9c-3.41-3.41-7.45-6.11-11.9-7.96c-4.45-1.85-9.22-2.8-14.04-2.81c-14.85 0-28.24 8.94-33.92 22.66z" />
	<path id="Layer" class="s5" d="m319.06 492.81c-0.08 0-0.16 0-0.24-0.01c-0.35-0.02-0.71-0.07-1.05-0.16c-0.34-0.09-0.67-0.22-0.99-0.38c-0.31-0.16-0.61-0.36-0.88-0.59c-0.27-0.23-0.52-0.48-0.74-0.76l-6.3-8.1c-0.4-0.51-0.69-1.1-0.86-1.72c-0.17-0.62-0.22-1.28-0.14-1.92c0.08-0.64 0.29-1.26 0.61-1.83c0.32-0.56 0.75-1.06 1.26-1.46l0.23-0.18c0.51-0.4 1.1-0.69 1.72-0.86c0.62-0.17 1.28-0.22 1.92-0.14c0.64 0.08 1.26 0.29 1.83 0.61c0.56 0.32 1.06 0.75 1.46 1.26c0.32 0.41 0.72 0.74 1.18 0.98c0.46 0.24 0.97 0.38 1.48 0.4c0.52 0.03 1.03-0.06 1.52-0.25c0.48-0.19 0.91-0.49 1.27-0.86l12.8-13.51c0.45-0.47 0.98-0.85 1.57-1.11c0.59-0.26 1.23-0.41 1.88-0.43c0.65-0.02 1.29 0.09 1.9 0.32c0.61 0.23 1.16 0.58 1.63 1.02l0.21 0.2c0.47 0.45 0.85 0.98 1.11 1.57c0.26 0.59 0.41 1.23 0.43 1.88c0.02 0.65-0.09 1.29-0.32 1.9c-0.23 0.61-0.58 1.16-1.03 1.63l-19.86 20.96c-0.23 0.24-0.48 0.46-0.76 0.65c-0.27 0.19-0.57 0.35-0.87 0.49c-0.31 0.13-0.63 0.23-0.95 0.3c-0.33 0.07-0.66 0.1-1 0.1v0z" />
</svg>